<svg width="60" height="14" fill="none" xmlns="http://www.w3.org/2000/svg"><path d="M5.732 7.124c-.28-.293-.52-.488-.853-.641a2.1 2.1 0 00-1.04-.251c-.373 0-.76.097-1.04.25a1.86 1.86 0 00-.706.642 2.604 2.604 0 00-.427.893A4.022 4.022 0 001.52 9.05c0 .335.053.698.186 1.032.094.35.28.586.467.837.186.251.466.447.76.586.28.154.613.196.986.196.427 0 .76-.098 1.04-.252.28-.153.56-.348.8-.641l.986 1.088c-.373.446-.8.739-1.28.934a4.002 4.002 0 01-1.56.293c-.56 0-1.132-.097-1.599-.293a3.678 3.678 0 01-1.226-.837 3.88 3.88 0 01-.8-1.283C.093 10.221 0 9.621 0 9.035 0 8.45.093 7.85.28 7.361c.187-.488.467-.934.8-1.339.333-.348.76-.641 1.226-.836.467-.196 1.04-.293 1.6-.293s1.08.097 1.56.293c.52.195.946.544 1.32.934L5.731 7.124zm3.2 1.828c0 .39.053.795.186 1.088.093.348.28.641.467.892.186.251.466.447.76.544.28.154.666.196 1.04.196a2.61 2.61 0 001.039-.196c.28-.153.56-.348.76-.544.186-.25.373-.544.466-.892.094-.35.187-.698.187-1.088 0-.39-.053-.795-.187-1.088-.093-.35-.28-.642-.466-.893a1.593 1.593 0 00-.76-.544c-.28-.153-.667-.195-1.04-.195s-.706.055-1.04.195c-.28.153-.56.349-.76.544-.186.251-.373.544-.466.893-.093.348-.187.697-.187 1.088zm-1.507 0c0-.586.093-1.13.28-1.632.187-.489.467-.935.853-1.34.373-.39.76-.697 1.28-.892.466-.195.986-.349 1.56-.349.573 0 1.08.098 1.56.349a3.77 3.77 0 011.279.893c.373.39.613.837.853 1.339a4.54 4.54 0 01.28 1.632 4.65 4.65 0 01-.28 1.632 3.972 3.972 0 01-.853 1.339c-.373.39-.76.641-1.28.892-.466.196-.986.35-1.56.35-.56 0-1.08-.099-1.56-.35a3.77 3.77 0 01-1.279-.892c-.373-.39-.613-.795-.853-1.34-.133-.502-.28-1.046-.28-1.631zm9.398 4.003h1.413V5.06h-1.413v7.895zM16.49 2.187c0-.293.093-.544.28-.795.186-.196.426-.35.706-.35.28 0 .52.098.707.35.186.195.28.488.28.795 0 .306-.094.544-.28.795-.187.195-.427.348-.707.348a.826.826 0 01-.706-.348 1.2 1.2 0 01-.28-.795zm3.719 2.859h1.426v1.228h.053c.187-.447.467-.796.947-1.033.426-.25.946-.39 1.56-.39.373 0 .706.056 1.04.195.333.098.613.293.852.544.24.251.427.544.614.935.146.39.24.836.24 1.38v5.092H25.5V8.31c0-.349-.053-.697-.147-.935a2.202 2.202 0 00-.373-.641 1.181 1.181 0 00-.56-.349 2.409 2.409 0 00-.666-.098c-.28 0-.56.056-.8.154s-.467.251-.667.488c-.186.195-.333.488-.426.837-.093.349-.147.74-.147 1.186v4.1h-1.413V5.06m11.85 6.653c.374 0 .707-.055 1.04-.195.334-.153.56-.349.8-.586.187-.25.374-.544.467-.892.093-.35.187-.698.187-1.13 0-.39-.054-.795-.187-1.13-.093-.349-.28-.642-.467-.893-.24-.25-.466-.446-.8-.586-.333-.153-.666-.195-1.04-.195a2.61 2.61 0 00-1.039.195c-.333.154-.56.35-.8.586-.186.251-.373.544-.466.893-.094.349-.187.697-.187 1.13 0 .39.053.795.187 1.13.093.348.28.641.466.892.187.251.467.447.8.586.28.098.667.195 1.04.195zm3.92 1.186h-1.413v-1.13h-.053c-.28.447-.667.74-1.133.99-.467.252-.987.35-1.507.35-.56 0-1.133-.098-1.6-.294a3.141 3.141 0 01-1.226-.892c-.333-.39-.613-.837-.76-1.34a4.537 4.537 0 01-.28-1.631 5 5 0 01.28-1.674 4.71 4.71 0 01.76-1.34c.333-.39.76-.697 1.227-.892.466-.195.986-.293 1.6-.293.52 0 1.039.098 1.506.349.466.25.853.586 1.08.99h.053V.164h1.413V12.9h.053zm7.212-4.589c0-.349-.054-.642-.147-.935a1.896 1.896 0 00-.426-.739c-.187-.195-.427-.349-.667-.488-.28-.098-.56-.195-.947-.195-.333 0-.666.055-.946.195-.28.153-.52.293-.76.544a1.967 1.967 0 00-.466.74c-.094.292-.187.543-.187.794h4.532l.014.084zm-4.52 1.227c0 .35.094.642.24.935.147.293.334.544.56.74.24.195.52.348.8.446.334.097.614.153.947.153.426 0 .853-.098 1.173-.349.333-.195.613-.488.893-.837l1.08.893c-.8 1.088-1.933 1.632-3.346 1.632-.613 0-1.133-.098-1.6-.293a3.145 3.145 0 01-1.226-.893c-.333-.39-.613-.795-.76-1.339a4.54 4.54 0 01-.28-1.632c0-.585.093-1.13.28-1.632.187-.488.467-.934.8-1.339.333-.39.76-.641 1.226-.892a4.003 4.003 0 011.56-.293c.666 0 1.226.097 1.693.349.466.25.853.544 1.133.934s.52.837.666 1.34c.147.487.187.99.187 1.533v.544h-6.025zm11.598-2.51c-.187-.196-.373-.39-.613-.544a1.688 1.688 0 00-.893-.251c-.333 0-.613.097-.893.25-.24.154-.374.35-.374.642 0 .251.094.447.24.544.147.154.334.251.52.35.187.097.427.152.614.194.24.056.426.098.56.098.28.098.612.153.852.293.28.098.52.251.707.446.187.196.333.39.466.642.094.251.187.544.187.934 0 .447-.093.837-.28 1.13a3.03 3.03 0 01-.706.795c-.28.21-.614.349-.987.447-.373.097-.76.153-1.08.153-.613 0-1.173-.098-1.653-.293-.466-.195-.893-.544-1.28-1.088l1.08-.934c.24.25.467.446.76.641.294.196.614.293 1.04.293.187 0 .373 0 .56-.056.187-.055.333-.097.467-.195.146-.098.24-.195.333-.293a.815.815 0 00-.04-.99 1.658 1.658 0 00-.467-.349 2.233 2.233 0 00-.56-.195l-.56-.154c-.28-.097-.613-.153-.853-.25a2.665 2.665 0 01-.706-.391 2.468 2.468 0 01-.52-.642c-.147-.25-.187-.586-.187-.934 0-.39.094-.795.24-1.088a1.94 1.94 0 01.667-.74c.28-.195.56-.348.893-.446a3.83 3.83 0 011.04-.153c.52 0 .986.097 1.466.293.467.195.853.544 1.133.99l-1.173.85zM53.108.359h1.413v7.993l3.213-3.362h1.933l-3.44 3.557L60 12.787h-2.026l-3.44-4.045v4.045h-1.413V.36" fill="#00175C"/></svg>