<svg width="88" height="8" fill="none" xmlns="http://www.w3.org/2000/svg"><path d="M8.01 4.867h2.512v.727c0 .616-.12 1.063-.3 1.399-.238.392-.597.615-1.255.783C8.37 7.888 7.293 8 5.8 8c-1.554 0-2.69-.056-3.348-.112-.658-.056-1.196-.168-1.494-.336-.3-.167-.539-.335-.658-.615C.179 6.713.059 6.322 0 5.93V4.028c0-.895 0-1.51.06-1.958.06-.392.12-.671.18-.895C.477.67.956.392 1.613.224 2.332.056 3.766 0 5.918 0 6.995 0 7.772 0 8.25.056c.478.056.897.112 1.136.28.359.167.658.391.777.727.18.336.24.783.24 1.454v.392H7.89c0-.28 0-.447-.06-.503 0-.112-.06-.168-.119-.224-.12-.056-.359-.112-.717-.168-.419-.056-.957-.056-1.794-.056-.777 0-1.315 0-1.614.056-.299 0-.538.056-.658.168-.12.112-.239.28-.299.56-.06.279-.12.67-.12 1.286 0 .56 0 1.007.06 1.23.06.225.18.392.3.504.12.112.358.168.657.224.3.056.837.056 1.614.056.957 0 1.614 0 1.913-.056.3-.056.538-.112.658-.224.24-.112.299-.447.299-.895zm8.43-1.398h5.74v.223c0 1.12-.06 1.902-.12 2.462-.12.895-.658 1.454-1.614 1.622a50.1 50.1 0 01-1.435.168c-.538 0-1.375.056-2.511.056-1.435 0-2.391-.056-2.99-.112-.597-.056-1.075-.224-1.374-.447-.24-.168-.419-.336-.538-.56-.12-.224-.24-.56-.24-.895-.06-.336-.06-1.063-.06-2.07 0-.727 0-1.23.06-1.622.06-.336.12-.672.24-.951.239-.616.717-.951 1.494-1.063.837-.112 2.153-.224 3.886-.224 1.017 0 1.853 0 2.451.056.598.056 1.076.112 1.495.224.657.167 1.016.615 1.136 1.23.06.28.12.728.12 1.287h-2.511c0-.224 0-.391-.06-.447 0-.056-.06-.168-.18-.224-.12-.112-.418-.168-.896-.168-.419 0-1.017-.056-1.854-.056-.837 0-1.494 0-1.853.056s-.598.112-.777.224c-.12.112-.24.28-.299.503.06.224 0 .616 0 1.175 0 .671 0 1.119.06 1.343.06.28.12.447.299.56.12.111.299.167.538.167.239 0 .896.056 2.092.056 1.136 0 1.853 0 2.092-.056.24 0 .419-.056.598-.112a.453.453 0 00.24-.224c.06-.112.06-.28.06-.503v-.224H16.44V3.47zm6.516 1.958h1.077v.167c0 .448.06.728.12.896.059.167.178.28.358.335.299.112 1.315.168 2.989.168 1.255 0 2.092-.056 2.63-.168.539-.112.778-.503.778-1.175 0-.335-.06-.56-.12-.727-.06-.168-.24-.28-.418-.336a2.948 2.948 0 00-.837-.111h-3.587c-.658 0-1.256-.056-1.674-.168-.419-.112-.718-.336-.957-.56-.239-.335-.418-.783-.418-1.398 0-.672.18-1.175.598-1.51.179-.169.418-.28.657-.337.24-.055.598-.167 1.017-.167a33.146 33.146 0 012.57-.112c.957 0 1.674.056 2.152.112.479.112.897.223 1.196.447.24.168.418.392.478.616.06.223.12.615.12 1.118h-1.076v-.111c0-.392-.06-.616-.12-.784 0-.28-.299-.447-.717-.56-.419-.111-1.076-.111-1.913-.111-1.076 0-1.854.056-2.392.112-.538.056-.896.224-1.076.392-.179.167-.239.447-.239.839 0 .335.06.615.12.727.06.168.239.28.538.336.299.112 1.016.167 2.092.167h2.69c.598 0 1.077.056 1.375.168.3.112.598.28.778.504.239.335.358.783.358 1.342 0 .56-.12 1.007-.299 1.343-.239.392-.717.615-1.375.783-.657.112-1.853.168-3.587.168-.896 0-1.614 0-2.032-.056a3.62 3.62 0 01-1.016-.28c-.3-.167-.539-.391-.658-.615-.12-.224-.18-.615-.18-1.119v-.335zM38.322.112c1.434 0 2.391.056 2.989.112.598.112 1.016.224 1.255.503.18.168.3.336.359.56.06.223.18.503.18.895a16.685 16.685 0 010 3.972c-.12.503-.24.839-.479 1.063-.24.224-.658.391-1.196.503-.538.112-1.434.112-2.75.112-.598 0-1.315 0-2.092-.056-.777 0-1.256-.056-1.495-.056a9.956 9.956 0 01-.956-.168c-.24-.111-.478-.223-.658-.391-.239-.224-.418-.56-.478-1.007-.06-.448-.12-1.175-.12-2.238 0-1.23.12-2.126.3-2.63.239-.615.717-.95 1.494-1.062.717-.056 1.913-.112 3.647-.112zm-.658.895c-1.136 0-1.973.056-2.57.112-.3.056-.539.112-.658.224-.12.112-.24.335-.3.56-.119.447-.119 1.062-.119 1.901 0 .84 0 1.455.06 1.846.06.392.12.672.299.784.12.111.24.167.478.223.18.056.538.112.957.112.717.056 1.554.056 2.45.056 1.316 0 2.273-.056 2.93-.168.479-.056.777-.335.837-.783.12-.503.12-1.119.12-1.958 0-1.007-.06-1.734-.12-2.126-.06-.447-.418-.671-.956-.727-.3-.056-.658-.056-1.076-.112-.419.056-1.136.056-2.332.056zm15.065 4.196h1.076c0 .671-.06 1.175-.12 1.454-.119.56-.537.895-1.255 1.063-.538.112-1.554.168-2.989.168-1.853 0-3.108-.056-3.766-.168-.598-.112-1.016-.391-1.255-.895-.24-.503-.3-1.398-.3-2.685 0-1.23.06-2.126.24-2.685.179-.672.717-1.063 1.494-1.175.777-.112 1.913-.168 3.408-.168 1.435 0 2.451.056 3.049.224.299.056.598.167.777.391.24.168.359.392.418.672.06.223.12.67.12 1.342H52.61v-.28c0-.391-.06-.615-.12-.783-.06-.168-.239-.28-.418-.335-.419-.168-1.375-.224-2.87-.224-1.076 0-1.913 0-2.451.056s-.897.168-1.076.28c-.12.055-.24.28-.299.67a9.99 9.99 0 00-.12 1.567c0 .336 0 .728.06 1.231 0 .504.06.84.06 1.007.06.28.12.504.299.671.18.112.418.224.777.224.598.056 1.495.112 2.69.112.359 0 .837 0 1.375-.056.598 0 .957-.056 1.076-.056.3-.056.538-.112.658-.168.18-.056.24-.167.299-.335.12-.112.12-.504.18-1.12zM55.06.112h1.076v7.72H55.06V.112zm2.391 7.72V.112h8.07v.95h-6.994v2.35h6.696v.952h-6.696v2.629h6.995v.951h-8.07v-.112zm9.266-7.72h9.386v.95h-4.125v6.77h-1.076v-6.77h-4.125v-.95h-.06zm10.403 0h1.494l4.006 3.692L86.446.112H88l-4.842 4.587v3.133h-1.076V4.7L77.12.112z" fill="#00175C"/></svg>