<svg width="1440" height="3513" fill="none" xmlns="http://www.w3.org/2000/svg"><g filter="url(#filter0_bf_426_94)"><path fill-rule="evenodd" clip-rule="evenodd" d="M1237.87 3748.87c239.46 20.18 455.12-202.55 569.07-648.18 91.65-358.37 100.83-795.61 41.69-1219.07 0 0-193.68-459.87-934.551 1697.32-740.867 2157.19 47.074-3277.153 47.074-3277.153C715.415 270.276 2425 2096.68 2308.55 2552.07c-136.36 533.25-2022.378-362.68-1840.198 214.59l384.758 491.1 384.76 491.11z" fill="url(#paint0_linear_426_94)"/><path fill-rule="evenodd" clip-rule="evenodd" d="M1237.87 3748.87c239.46 20.18 455.12-202.55 569.07-648.18 91.65-358.37 100.83-795.61 41.69-1219.07 0 0-193.68-459.87-934.551 1697.32-740.867 2157.19 47.074-3277.153 47.074-3277.153C715.415 270.276 2425 2096.68 2308.55 2552.07c-136.36 533.25-2022.378-362.68-1840.198 214.59l384.758 491.1 384.76 491.11z" fill="url(#paint1_radial_426_94)"/><path d="M1436.56 675.642c205 308.436 348.28 749.188 412.07 1205.978 0 0-193.68-459.87-934.551 1697.32-740.867 2157.19 47.074-3277.153 47.074-3277.153C1117.41 321.823 1283 444.61 1436.56 675.642z" fill="url(#paint2_linear_426_94)"/><path d="M1436.56 675.642c205 308.436 348.28 749.188 412.07 1205.978 0 0-193.68-459.87-934.551 1697.32-740.867 2157.19 47.074-3277.153 47.074-3277.153C1117.41 321.823 1283 444.61 1436.56 675.642z" fill="url(#paint3_radial_426_94)"/><path d="M1237.87 3748.87c-160.85-13.57-332.435-136.72-491.167-375.53-112.268-168.91-206.024-377.51-278.351-606.68l384.758 491.1 384.76 491.11z" fill="url(#paint4_linear_426_94)"/><path d="M1237.87 3748.87c-160.85-13.57-332.435-136.72-491.167-375.53-112.268-168.91-206.024-377.51-278.351-606.68l384.758 491.1 384.76 491.11z" fill="url(#paint5_radial_426_94)"/></g><g filter="url(#filter1_bf_426_94)"><path d="M-173.092 1056.3c-107.835-331.5-242.244 951.39-148.178 379.42 53.836-327.34 569.224-958.038 784.297-2335.344 146.251-328.716-50.409 454.854 53.769 243.605C760.384-1149.96 130.711 641.332 388.186 500.449 645.661 359.566 1458.48-1271.92 1586.47-981.296c127.99 290.624 158.83 765.759 86.07 1326.064-72.75 560.304-243.48 1162.392-476.48 1680.392-232.993 517.99-510.221 911.78-773.717 1099.03s-492.86 153.47-640.134-94.29c0 0 1701.571-874.62 1203.556-1707.78-115.513-193.25-193.263-247.38-323.514-341.019-325.127-233.729-835.343 75.199-835.343 75.199z" fill="url(#paint6_radial_426_94)"/></g><g style="mix-blend-mode:screen" opacity=".7" filter="url(#filter2_bf_426_94)"><path d="M145.348 1735.94C283.716-278.118 1859.63 3156.77 626.798-347.401 492.721-1268.07 121.631-2024.47-370.293-1598.1-862.217-1171.74-1152.31-79.755-1018.23 840.917-813.466 293.122-346.576 2162.3 145.348 1735.94z" fill="url(#paint7_linear_426_94)"/><path d="M145.348 1735.94C283.716-278.118 1859.63 3156.77 626.798-347.401 492.721-1268.07 121.631-2024.47-370.293-1598.1-862.217-1171.74-1152.31-79.755-1018.23 840.917-813.466 293.122-346.576 2162.3 145.348 1735.94z" fill="url(#paint8_radial_426_94)" style="mix-blend-mode:soft-light"/></g><g style="mix-blend-mode:color-dodge" filter="url(#filter3_bf_426_94)"><path d="M-20.51 1173.09c279.763-273.513 555.716-461.369 784.834-534.277 229.118-72.908 398.526-26.772 481.796 131.216 83.28 157.988 75.75 418.951-21.41 742.191s-278.496 690.6-515.729 1044.8l-674.01-316.48-55.481-1067.45z" fill="url(#paint9_linear_426_94)"/></g><defs><radialGradient id="paint1_radial_426_94" cx="0" cy="0" r="1" gradientUnits="userSpaceOnUse" gradientTransform="matrix(772.11866 1161.6657 -929.43416 617.76246 1091.63 2024.49)"><stop offset=".062" stop-color="#E9E9E9"/><stop offset="1" stop-color="#29E5FF"/></radialGradient><radialGradient id="paint3_radial_426_94" cx="0" cy="0" r="1" gradientUnits="userSpaceOnUse" gradientTransform="matrix(772.11866 1161.6657 -929.43416 617.76246 1091.63 2024.49)"><stop offset=".062" stop-color="#E9E9E9"/><stop offset="1" stop-color="#29E5FF"/></radialGradient><radialGradient id="paint5_radial_426_94" cx="0" cy="0" r="1" gradientUnits="userSpaceOnUse" gradientTransform="matrix(772.11866 1161.6657 -929.43416 617.76246 1091.63 2024.49)"><stop offset=".062" stop-color="#E9E9E9"/><stop offset="1" stop-color="#29E5FF"/></radialGradient><radialGradient id="paint6_radial_426_94" cx="0" cy="0" r="1" gradientUnits="userSpaceOnUse" gradientTransform="rotate(71.981 -357.643 1442.555) scale(1350.88 1466.87)"><stop offset=".188" stop-color="#3723B5"/><stop offset=".943" stop-color="#fff"/></radialGradient><radialGradient id="paint8_radial_426_94" cx="0" cy="0" r="1" gradientUnits="userSpaceOnUse" gradientTransform="rotate(-40.916 28.61 205.38) scale(1272.3 1531.38)"><stop offset=".193" stop-color="#3E56D3" stop-opacity=".813"/><stop offset=".531" stop-color="#515B6A"/><stop offset="1" stop-color="#2366B5"/></radialGradient><linearGradient id="paint0_linear_426_94" x1="376.315" y1="948.288" x2="2235.76" y2="1423.79" gradientUnits="userSpaceOnUse"><stop stop-color="#fff"/><stop offset="1" stop-color="#fff" stop-opacity="0"/></linearGradient><linearGradient id="paint2_linear_426_94" x1="376.315" y1="948.288" x2="2235.76" y2="1423.79" gradientUnits="userSpaceOnUse"><stop stop-color="#fff"/><stop offset="1" stop-color="#fff" stop-opacity="0"/></linearGradient><linearGradient id="paint4_linear_426_94" x1="376.315" y1="948.288" x2="2235.76" y2="1423.79" gradientUnits="userSpaceOnUse"><stop stop-color="#fff"/><stop offset="1" stop-color="#fff" stop-opacity="0"/></linearGradient><linearGradient id="paint7_linear_426_94" x1="-1018.23" y1="840.917" x2="946.367" y2="554.813" gradientUnits="userSpaceOnUse"><stop offset="0" stop-color="#9B2121"/><stop offset=".385" stop-color="#FF7E7E"/><stop offset="1" stop-color="#FFE8AC" stop-opacity="0"/></linearGradient><linearGradient id="paint9_linear_426_94" x1="-20.51" y1="1173.09" x2="1100.9" y2="2320.13" gradientUnits="userSpaceOnUse"><stop stop-color="#FFA89F"/><stop offset="1" stop-color="#2366B5"/></linearGradient><filter id="filter0_bf_426_94" x="265.969" y="111.384" width="2238.28" height="4163.85" filterUnits="userSpaceOnUse" color-interpolation-filters="sRGB"><feFlood flood-opacity="0" result="BackgroundImageFix"/><feGaussianBlur in="BackgroundImage" stdDeviation="68.866"/><feComposite in2="SourceAlpha" operator="in" result="effect1_backgroundBlur_426_94"/><feBlend in="SourceGraphic" in2="effect1_backgroundBlur_426_94" result="shape"/><feGaussianBlur stdDeviation="95" result="effect2_foregroundBlur_426_94"/></filter><filter id="filter1_bf_426_94" x="-490.778" y="-1153.63" width="2339.66" height="4535.07" filterUnits="userSpaceOnUse" color-interpolation-filters="sRGB"><feFlood flood-opacity="0" result="BackgroundImageFix"/><feGaussianBlur in="BackgroundImage" stdDeviation="68.866"/><feComposite in2="SourceAlpha" operator="in" result="effect1_backgroundBlur_426_94"/><feBlend in="SourceGraphic" in2="effect1_backgroundBlur_426_94" result="shape"/><feGaussianBlur stdDeviation="68.866" result="effect2_foregroundBlur_426_94"/></filter><filter id="filter2_bf_426_94" x="-1290.95" y="-1960.17" width="2625.95" height="3999.95" filterUnits="userSpaceOnUse" color-interpolation-filters="sRGB"><feFlood flood-opacity="0" result="BackgroundImageFix"/><feGaussianBlur in="BackgroundImage" stdDeviation="68.866"/><feComposite in2="SourceAlpha" operator="in" result="effect1_backgroundBlur_426_94"/><feBlend in="SourceGraphic" in2="effect1_backgroundBlur_426_94" result="shape"/><feGaussianBlur stdDeviation="120" result="effect2_foregroundBlur_426_94"/></filter><filter id="filter3_bf_426_94" x="-270.51" y="355.114" width="1824.03" height="2451.9" filterUnits="userSpaceOnUse" color-interpolation-filters="sRGB"><feFlood flood-opacity="0" result="BackgroundImageFix"/><feGaussianBlur in="BackgroundImage" stdDeviation="68.866"/><feComposite in2="SourceAlpha" operator="in" result="effect1_backgroundBlur_426_94"/><feBlend in="SourceGraphic" in2="effect1_backgroundBlur_426_94" result="shape"/><feGaussianBlur stdDeviation="125" result="effect2_foregroundBlur_426_94"/></filter></defs></svg>