<svg width="127" height="32" fill="none" xmlns="http://www.w3.org/2000/svg"><path fill-rule="evenodd" clip-rule="evenodd" d="M23.58 1.814c5.094 2.68 8.574 8.02 8.574 14.178 0 6.157-3.48 11.515-8.574 14.178v-1.83a14.318 14.318 0 004.795-4.727l-4.795-1.947v-2.962l5.26 4.11a14.254 14.254 0 001.715-6.823c0-5.225-2.797-9.817-6.975-12.347v-1.83zM16.17 0c2.664 0 5.178.65 7.409 1.814v1.83a14.46 14.46 0 00-6.976-2.047l1.83 13.097 5.146 4.01v2.963l-7.443-3.012-7.392 3.028v-2.945l5.178-4.044 1.815-13.097a14.424 14.424 0 00-6.993 2.047v-1.83A15.911 15.911 0 0116.171 0zm7.409 30.17A15.956 15.956 0 0116.17 32c-2.68 0-5.21-.665-7.426-1.814V28.34a14.27 14.27 0 007.426 2.064c2.697 0 5.228-.75 7.409-2.064v1.831zm-14.835.016C3.634 27.508.155 22.15.155 15.992S3.634 4.493 8.745 1.814v1.83C4.55 6.175 1.753 10.75 1.753 15.993c0 2.479.633 4.826 1.732 6.856l5.26-4.11v2.945l-4.778 1.963a14.306 14.306 0 004.778 4.693v1.848z" fill="#00175C"/><path d="M95.593 16.572h3.216v.744h-3.216v-.744zM42.112 12.06l-.288 7.47v.13c0 .633.187.762 1.194.834v.346c-.734-.058-1.022-.072-1.425-.072-.402 0-.69.014-1.439.072v-.346c1.008-.072 1.152-.187 1.18-.964l.303-7.067v-.086c0-.662-.202-.806-1.195-.864v-.36a12.73 12.73 0 002.548-.014l2.677 7.283 2.72-7.283c.648.058.95.072 1.382.072.36 0 .59-.014 1.137-.058v.36c-.979.058-1.195.202-1.195.85v.1l.158 7.067c.015.777.144.892 1.18.964v.346c-.906-.087-1.252-.115-1.798-.115-.547 0-.893.028-1.8.115v-.346c.98-.057 1.195-.216 1.195-.892v-.072l-.13-7.455-2.374 6.419-.173.475-.202.532-.187.547-.158.475h-.216l-.158-.46-.202-.562-.201-.561-.173-.504-2.36-6.376zm10.808 4.647c.143-1.655.69-2.504 1.612-2.504.935 0 1.41.806 1.497 2.504h-3.11zm1.87 3.771c-1.31 0-1.885-1.008-1.9-3.253h4.29c-.029-2.216-.936-3.397-2.634-3.397-1.727 0-2.807 1.397-2.807 3.613 0 2.217 1.08 3.512 2.937 3.512 1.41 0 2.331-.878 2.518-2.36h-.576c-.172 1.223-.806 1.885-1.827 1.885zm3.248-6.115v-.26c.82-.071 1.31-.157 1.9-.33.072.532.101.763.13 1.194v.159c.316-.82.935-1.296 1.684-1.296.72 0 1.252.475 1.252 1.166 0 .418-.245.691-.604.691-.332 0-.59-.201-.59-.49 0-.028.014-.085.028-.143l.029-.144v-.13c0-.201-.173-.345-.432-.345-.748 0-1.223.907-1.223 2.332v3.008c0 .619.144.734 1.022.777v.288c-.792-.072-1.094-.087-1.598-.087-.518 0-.82.015-1.612.087v-.288c.878-.043 1.036-.159 1.036-.777v-4.706c-.014-.62-.086-.692-.834-.706h-.188zm10.468-.663v2.374h-.317c-.259-1.252-.791-1.857-1.67-1.857-1.079 0-1.712 1.166-1.712 3.224 0 2.015.561 3.037 1.67 3.037.892 0 1.424-.633 1.597-1.9h.59c-.187 1.54-1.007 2.375-2.303 2.375-1.67 0-2.806-1.41-2.806-3.512 0-2.144 1.151-3.612 2.85-3.612.618 0 1.007.158 1.468.604l.388-.734h.245zm2.365 3.007c.144-1.655.691-2.504 1.612-2.504.936 0 1.41.806 1.497 2.504h-3.109zm1.871 3.771c-1.31 0-1.885-1.008-1.9-3.253h4.29c-.03-2.216-.936-3.397-2.634-3.397-1.728 0-2.807 1.397-2.807 3.613 0 2.217 1.08 3.512 2.936 3.512 1.41 0 2.332-.878 2.519-2.36h-.576c-.172 1.223-.806 1.885-1.828 1.885zm6.374.087c-1.037 0-1.584-1.079-1.584-3.137 0-2.087.504-3.109 1.54-3.109 1.065 0 1.612 1.094 1.612 3.21 0 2-.532 3.036-1.568 3.036zm2.705-1.223v-8.31c-.72.193-1.367.308-2.173.394v.245c.907 0 1.022.1 1.022.849v2.519c-.533-.864-.95-1.123-1.727-1.123-1.54 0-2.62 1.454-2.62 3.526 0 2.073 1.094 3.527 2.663 3.527.82 0 1.382-.375 1.785-1.18.057.546.057.604.201 1.15.59-.186.835-.244 1.684-.345l.216-.029v-.244c-.964-.029-1.05-.1-1.05-.979zm2.778-2.635c.144-1.655.69-2.504 1.612-2.504.935 0 1.41.806 1.497 2.504h-3.11zm1.871 3.771c-1.31 0-1.885-1.008-1.9-3.253h4.29c-.03-2.216-.936-3.397-2.635-3.397-1.727 0-2.806 1.397-2.806 3.613 0 2.217 1.079 3.512 2.936 3.512 1.41 0 2.331-.878 2.518-2.36h-.575c-.173 1.223-.806 1.885-1.828 1.885zm3.612.491v-2.404l.317-.014c.259 1.31.863 1.943 1.87 1.943.85 0 1.483-.562 1.483-1.296 0-.49-.273-.82-.978-1.137l-.548-.245-.662-.302c-1.05-.49-1.381-.892-1.381-1.727 0-1.137.892-1.914 2.159-1.914.561 0 .978.13 1.468.46l.244-.59h.26v2.231h-.332c-.13-1.151-.604-1.698-1.51-1.698-.764 0-1.354.518-1.354 1.194 0 .576.216.763 1.526 1.339l.604.26c1.094.474 1.483.934 1.483 1.784 0 1.209-.964 2.072-2.318 2.072-.662 0-1.18-.172-1.727-.604l-.345.648h-.259zm12.651-4.965c.762 0 1.194.13 1.525.46.331.332.518.95.518 1.641 0 1.44-.719 2.246-2 2.246h-.518c-.763 0-.893-.116-.893-.749v-3.598h1.368zm-1.368-4.36h1.224c1.209 0 1.741.59 1.741 1.928 0 .662-.158 1.137-.475 1.511-.317.36-.705.475-1.511.475h-.979v-3.915zm4.246 1.899c0-.749-.317-1.41-.863-1.828-.49-.36-1.051-.518-1.987-.518h-3.785v.36c1.036.057 1.18.172 1.18.95v6.98c0 .777-.115.878-1.18.965v.345h3.641c1.065 0 1.641-.13 2.245-.504.72-.46 1.195-1.338 1.195-2.245 0-.777-.331-1.482-.892-1.914-.303-.23-.619-.36-1.137-.461 1.036-.389 1.583-1.123 1.583-2.13zm2.794 3.164c.144-1.655.691-2.504 1.612-2.504.936 0 1.411.806 1.497 2.504h-3.109zm1.872 3.771c-1.31 0-1.886-1.008-1.9-3.253h4.289c-.029-2.216-.936-3.397-2.634-3.397-1.727 0-2.807 1.397-2.807 3.613 0 2.217 1.08 3.512 2.936 3.512 1.411 0 2.332-.878 2.519-2.36h-.575c-.173 1.223-.807 1.885-1.828 1.885zm3.15-6.058v-.244c.835-.115 1.324-.23 1.899-.432.073.331.116.705.145 1.252.517-.777 1.108-1.122 1.942-1.122.864 0 1.612.446 1.9 1.15.144.346.216.75.216 1.296v3.455c0 .619.144.734 1.022.777v.288c-.763-.072-1.051-.087-1.569-.087-.532 0-.82.015-1.569.087v-.288c.778-.029.965-.173.965-.748v-3.527c0-1.252-.374-1.756-1.295-1.756-.979 0-1.497.62-1.497 1.8v3.482c0 .576.187.72.935.749v.288a13.496 13.496 0 00-1.554-.087c-.504 0-.806.015-1.555.087v-.288c.878-.043 1.022-.159 1.022-.777V15.11c-.014-.59-.1-.676-.82-.676-.043 0-.115-.014-.187-.014zm7.684 6.377l3.901-6.42h-1.771c-.935 0-1.166.202-1.684 1.497h-.288l.331-1.87h4.952l-3.915 6.419h1.684c.979 0 1.381-.389 1.813-1.699h.303l-.375 2.073h-4.951z" fill="#00175C"/></svg>