<svg width="65" height="24" fill="none" xmlns="http://www.w3.org/2000/svg"><g clip-path="url(#clip0_413_580)" fill="#00175C"><path d="M1.323 20.102h.504v1.512h1.932v-1.512h.488v3.529h-.488v-1.614H1.827v1.614h-.504V20.1zm10.744 2.252c0 .89-.538 1.361-1.463 1.361-.94 0-1.512-.42-1.512-1.361v-2.252h.504v2.252c0 .622.37.974 1.008.974.622 0 .975-.352.975-.974v-2.252h.488v2.252zm6.095 1.376c-1.11.067-1.782-.874-1.782-1.798 0-1.026.589-1.916 1.765-1.916.807 0 1.445.336 1.58 1.176h-.488c-.1-.538-.554-.79-1.092-.79-.907 0-1.277.756-1.277 1.513 0 .74.47 1.445 1.361 1.428.454-.017.824-.1 1.009-.403.134-.185.1-.521.084-.773h-1.177v-.404h1.614v1.328c-.42.521-.925.605-1.597.639zm7.631-.404c.891 0 1.278-.756 1.278-1.462s-.387-1.462-1.278-1.462c-.907 0-1.277.756-1.277 1.462s.37 1.462 1.277 1.462zm0-3.31c1.177 0 1.765.89 1.765 1.848 0 .958-.588 1.85-1.765 1.85-1.176 0-1.764-.892-1.764-1.85 0-.958.588-1.848 1.764-1.848zm11.664 1.598h.975c.554 0 .79-.185.79-.555 0-.487-.353-.57-.79-.57h-.975v1.125zm0 1.63h1.227c.42 0 .689-.252.689-.638 0-.454-.387-.589-.807-.589h-1.11v1.227zm-.488-3.142h1.328c.336 0 .757 0 .975.117.252.151.437.404.437.74a.825.825 0 01-.538.806c.454.084.706.42.706.857 0 .521-.403 1.009-1.126 1.009h-1.782V20.1zm9.073 3.224c.908 0 1.278-.756 1.278-1.462s-.37-1.462-1.278-1.462c-.89 0-1.277.756-1.277 1.462s.387 1.462 1.277 1.462zm0-3.31c1.177 0 1.782.89 1.782 1.848 0 .958-.605 1.85-1.782 1.85-1.176 0-1.764-.892-1.764-1.85 0-.958.588-1.848 1.764-1.848zm8.556 1.126c-.05-.521-.403-.74-.907-.74-.42 0-.824.151-.824.605 0 .437.588.504 1.176.639.589.117 1.177.32 1.177 1.025 0 .74-.773 1.042-1.445 1.042-.824 0-1.513-.387-1.513-1.244h.454c0 .589.52.857 1.075.857.454 0 .942-.134.942-.655 0-.487-.589-.555-1.177-.689-.588-.118-1.193-.286-1.193-.941 0-.706.672-1.025 1.344-1.025.757 0 1.328.336 1.362 1.126h-.47zm7.97 0c-.068-.521-.42-.74-.925-.74-.403 0-.823.151-.823.605 0 .437.588.504 1.193.639.588.117 1.176.32 1.176 1.025 0 .74-.773 1.042-1.445 1.042-.824 0-1.53-.387-1.53-1.244h.471c0 .589.521.857 1.076.857.437 0 .941-.134.941-.655 0-.487-.605-.555-1.193-.689-.589-.118-1.177-.286-1.177-.941 0-.706.656-1.025 1.345-1.025.74 0 1.328.336 1.344 1.126h-.453zM5.66 1.443v6.352h2.303s.202-.016.32-.05c1.344-.118 2.201-1.731 2.285-2.907.135-1.261-.638-3.345-2.571-3.395-.572-.017-2.336 0-2.336 0zm0 7.092v7.613h2.085s1.176.084 2.235-.773c1.042-.84 1.58-2.084 1.462-3.512-.084-1.278-1.059-3.093-3.244-3.328H5.661zM10.569.703c1.731.101 2.857 1.025 2.958 1.143.89.823 1.16 2.067.941 3.26-.285 2-2.773 2.84-2.773 2.84 2.084.253 3.647 1.816 3.882 3.497.202 1.646-.403 3.109-1.764 4.134-1.378 1.025-3.395 1.361-4.488 1.361H.417v-.706c1.143.017 1.277.017 1.277-.437-.016-1.714 0-13.68 0-14 0-.37-.185-.386-1.277-.386C.4 1.123.434.703.434.703h10.134zm13.747.875c-1.11.74-1.883 2.437-2.252 3.849-.588 2.134-.47 4.655.117 7.244.605 2.588 2.27 3.495 3.26 3.714 1.85.42 3.06-.656 3.715-1.647 1.277-1.933 1.597-5.916 1.193-8.202-.37-2.117-.94-3.596-2.05-4.588-1.244-1.092-3.025-1.008-3.983-.37zm9.966 10.05c-.773 2.303-2.32 3.748-4.1 4.69-2.337 1.26-5.681 1.462-8.017.067-1.446-.857-5.126-3.143-4.639-8.538.1-1.16.69-4.067 3.933-6.252C23.677.15 26.87-.27 29.845 1.108c4.639 2.117 5.614 7.344 4.437 10.52zM47.908 1.46c.017 1.21 0 3.713 0 3.713l-.588.017c-.353-1.563-1.11-2.907-2.403-3.53-1.244-.604-3.126-.907-4.353.169-.723.639-.824 1.294-.572 2.034.437 1.092 1.648 1.428 2.589 1.848.773.303 2.42.84 2.42.84 1.832.64 3.865 1.883 4.42 3.95.252.89.252 1.9.05 2.807-.453 2.017-1.747 2.504-2.487 3.008-.37.252-3.832 1.58-8 .219-.857-.286-1.849-.622-1.849-.622v-4.521s.454.017.639.017c.286.722.538 1.596 1.143 2.47 1.412 2.05 3.412 2.672 5.613 2.202.874-.202 1.832-.807 2.084-1.714.32-1.026.219-2.723-2.874-3.866-2.235-1.025-5.042-1.445-6.37-3.933-.52-1.395-.37-3.815 1.345-4.991C40.446.4 42.127.13 44.16.4c2.017.286 2.555.555 3.748 1.06zm14.726 0c.017 1.21 0 3.713 0 3.713l-.588.017c-.353-1.563-1.11-2.907-2.404-3.53-1.243-.604-3.126-.907-4.353.169-.722.639-.823 1.294-.571 2.034.437 1.092 1.647 1.428 2.588 1.848.773.303 2.42.84 2.42.84 1.832.64 3.866 1.883 4.42 3.95.252.89.252 1.9.05 2.807-.453 2.017-1.747 2.504-2.486 3.008-.37.252-3.832 1.58-8 .219a455.84 455.84 0 01-1.85-.622v-4.521s.455.017.64.017c.285.722.537 1.596 1.142 2.47 1.412 2.05 3.412 2.672 5.614 2.202.874-.202 1.832-.807 2.084-1.714.32-1.026.218-2.723-2.874-3.866-2.235-1.025-5.042-1.445-6.37-3.933-.52-1.395-.37-3.815 1.362-4.991C55.172.4 56.852.13 58.869.4c2.034.286 2.572.555 3.765 1.06z"/></g><defs><clipPath id="clip0_413_580"><path fill="#fff" transform="translate(.147)" d="M0 0h64.46v24H0z"/></clipPath></defs></svg>