<svg width="94" height="25" fill="none" xmlns="http://www.w3.org/2000/svg"><path fill-rule="evenodd" clip-rule="evenodd" d="M17.627 2.273c3.778 1.987 6.36 5.949 6.36 10.515a11.86 11.86 0 01-6.36 10.516v-1.358a10.62 10.62 0 003.556-3.505l-3.556-1.444V14.8l3.902 3.049a10.573 10.573 0 001.272-5.061c0-3.876-2.075-7.282-5.174-9.158V2.273zM12.132.927c1.976 0 3.84.482 5.495 1.346V3.63a10.724 10.724 0 00-5.174-1.518l1.358 9.714 3.816 2.974v2.197l-5.52-2.234-5.483 2.246v-2.184l3.84-3 1.347-9.713A10.698 10.698 0 006.624 3.63V2.273A11.801 11.801 0 0112.132.927zm5.495 22.377a11.834 11.834 0 01-5.495 1.357 11.95 11.95 0 01-5.508-1.345v-1.37a10.584 10.584 0 005.508 1.53c2 0 3.877-.555 5.495-1.53v1.358zm-11.003.012A11.88 11.88 0 01.253 12.788c0-4.566 2.58-8.528 6.371-10.515V3.63C3.513 5.506 1.438 8.9 1.438 12.788c0 1.839.47 3.58 1.285 5.085l3.901-3.048v2.184L3.08 18.465c.89 1.42 2.1 2.617 3.544 3.481v1.37z" fill="#000"/><path d="M71.038 13.22h2.386v.551h-2.386v-.552zM31.372 9.872l-.214 5.54v.097c0 .47.139.566.886.619v.256a11.962 11.962 0 00-1.057-.053c-.298 0-.512.01-1.067.053v-.256c.747-.053.854-.139.875-.715l.224-5.242v-.064c0-.49-.149-.597-.886-.64V9.2c.417.032.577.043.876.043.395 0 .608-.011 1.014-.054l1.985 5.402 2.018-5.402c.48.043.705.054 1.025.054.267 0 .438-.011.843-.043v.267c-.726.043-.886.15-.886.63v.074l.117 5.242c.011.576.107.662.876.715v.256c-.673-.064-.929-.085-1.334-.085-.406 0-.662.021-1.335.085v-.256c.726-.043.886-.16.886-.662v-.053l-.096-5.53-1.761 4.761-.128.352-.15.395-.139.406-.117.352h-.16l-.117-.341-.15-.417-.15-.416-.128-.374-1.75-4.729zm8.016 3.447c.107-1.228.512-1.857 1.196-1.857.693 0 1.046.597 1.11 1.857h-2.306zm1.388 2.797c-.972 0-1.399-.747-1.41-2.413h3.182c-.022-1.644-.694-2.519-1.954-2.519-1.28 0-2.081 1.036-2.081 2.68 0 1.643.8 2.604 2.177 2.604 1.046 0 1.73-.651 1.868-1.75h-.427c-.128.907-.598 1.398-1.355 1.398zm2.408-4.536v-.192c.609-.053.972-.117 1.41-.245.053.395.074.566.096.886v.117c.234-.608.694-.96 1.248-.96.534 0 .93.352.93.864 0 .31-.182.513-.449.513-.246 0-.438-.15-.438-.363 0-.022.011-.064.022-.107l.021-.107v-.096c0-.15-.128-.256-.32-.256-.555 0-.908.672-.908 1.73v2.23c0 .46.107.545.758.577v.213a11.006 11.006 0 00-2.38 0v-.213c.651-.032.768-.118.768-.577v-3.49c-.01-.46-.064-.513-.619-.524h-.139zm7.764-.492v1.761h-.235c-.192-.928-.587-1.377-1.238-1.377-.8 0-1.27.865-1.27 2.392 0 1.494.416 2.252 1.238 2.252.662 0 1.057-.47 1.185-1.41h.437c-.138 1.143-.747 1.762-1.707 1.762-1.239 0-2.082-1.046-2.082-2.604 0-1.591.854-2.68 2.113-2.68.46 0 .748.117 1.09.448l.288-.544h.181zm1.754 2.231c.107-1.228.513-1.857 1.196-1.857.694 0 1.046.597 1.11 1.857h-2.306zm1.388 2.797c-.971 0-1.398-.747-1.409-2.413h3.181c-.021-1.644-.694-2.519-1.953-2.519-1.281 0-2.082 1.036-2.082 2.68 0 1.643.8 2.604 2.178 2.604 1.046 0 1.73-.651 1.868-1.75h-.427c-.128.907-.598 1.398-1.356 1.398zm4.727.064c-.768 0-1.174-.8-1.174-2.326 0-1.548.374-2.306 1.142-2.306.79 0 1.196.811 1.196 2.38 0 1.484-.395 2.253-1.164 2.253zm2.007-.906V9.11a10.16 10.16 0 01-1.612.291v.182c.673 0 .758.075.758.63v1.868c-.395-.64-.704-.833-1.28-.833-1.143 0-1.944 1.078-1.944 2.615 0 1.538.812 2.616 1.975 2.616.609 0 1.025-.278 1.324-.876.043.406.043.449.15.855.437-.14.618-.182 1.248-.257l.16-.021v-.182c-.715-.021-.779-.074-.779-.726zm2.06-1.955c.107-1.228.512-1.857 1.195-1.857.694 0 1.047.597 1.11 1.857h-2.305zm1.388 2.797c-.972 0-1.399-.747-1.41-2.413h3.182c-.022-1.644-.694-2.519-1.954-2.519-1.28 0-2.082 1.036-2.082 2.68 0 1.643.801 2.604 2.178 2.604 1.046 0 1.73-.651 1.868-1.75h-.427c-.128.907-.597 1.398-1.355 1.398zm2.678.364v-1.783l.236-.01c.192.97.64 1.44 1.387 1.44.63 0 1.1-.416 1.1-.96 0-.363-.203-.609-.726-.844l-.406-.181-.49-.224c-.78-.363-1.026-.662-1.026-1.281 0-.844.662-1.42 1.602-1.42.416 0 .726.096 1.089.342l.18-.438h.193v1.654h-.246c-.096-.853-.448-1.259-1.12-1.259-.566 0-1.004.384-1.004.886 0 .427.16.566 1.132.993l.448.192c.811.352 1.1.694 1.1 1.324 0 .896-.715 1.537-1.72 1.537a1.92 1.92 0 01-1.28-.449l-.256.481h-.192zm9.383-3.682c.566 0 .886.096 1.132.341.245.246.384.705.384 1.217 0 1.068-.534 1.666-1.484 1.666h-.384c-.566 0-.662-.086-.662-.555v-2.67h1.014zM75.32 9.563h.907c.897 0 1.292.438 1.292 1.43 0 .492-.117.844-.352 1.122-.235.267-.523.352-1.12.352h-.727V9.563zm3.15 1.41c0-.556-.236-1.047-.641-1.356-.363-.267-.78-.385-1.473-.385h-2.808V9.5c.769.043.876.128.876.705v5.177c0 .577-.086.651-.876.715v.256h2.7c.79 0 1.218-.096 1.666-.373.534-.342.886-.993.886-1.665 0-.577-.245-1.1-.662-1.42-.224-.17-.459-.267-.843-.342.769-.288 1.174-.832 1.174-1.58zm2.071 2.346c.107-1.228.513-1.857 1.196-1.857.694 0 1.046.597 1.11 1.857H80.54zm1.388 2.797c-.972 0-1.399-.747-1.41-2.413h3.182c-.022-1.644-.694-2.519-1.954-2.519-1.28 0-2.081 1.036-2.081 2.68 0 1.643.8 2.604 2.178 2.604 1.046 0 1.729-.651 1.868-1.75h-.427c-.129.907-.598 1.398-1.356 1.398zm2.336-4.493v-.181c.62-.086.982-.171 1.41-.32.053.245.085.523.106.928.384-.576.822-.833 1.441-.833.64 0 1.196.331 1.41.854.106.257.16.556.16.961v2.562c0 .46.106.545.757.577v.213a10.384 10.384 0 00-1.163-.064c-.395 0-.609.01-1.164.064v-.213c.577-.022.715-.128.715-.555V13c0-.929-.277-1.302-.96-1.302-.726 0-1.11.459-1.11 1.334v2.584c0 .427.138.533.693.555v.213a10.022 10.022 0 00-1.152-.064c-.374 0-.598.01-1.153.064v-.213c.65-.032.758-.118.758-.577v-3.458c-.011-.438-.075-.502-.609-.502-.032 0-.085-.01-.139-.01zm5.7 4.729l2.893-4.76h-1.313c-.694 0-.865.149-1.25 1.11h-.213l.246-1.388H94l-2.904 4.761h1.25c.725 0 1.024-.288 1.344-1.26h.225l-.278 1.537h-3.672z" fill="#000"/></svg>