<svg width="148" height="24" fill="none" xmlns="http://www.w3.org/2000/svg"><path d="M22.422 13.15c.015-.308.05-.323 1.097-.45l.998-.122.043-.244c.051-.287.049-5.936-.004-9.316L24.52.645l-.274-.081c-.15-.045-.6-.104-.997-.133-.737-.053-.827-.088-.83-.324 0-.1.173-.107 2.793-.107 4.165 0 5.362.133 6.495.72.835.432 1.407 1.189 1.476 1.954.063.699-.242 1.726-.72 2.42-.687 1-2.14 1.925-3.618 2.307-.867.223-1.005.238-1.004.109.002-.306.066-.365.641-.593.718-.284 1.194-.59 1.571-1.01.618-.688.858-1.438.82-2.558-.021-.634-.043-.741-.218-1.116C30.176 1.211 29.16.67 27.534.571l-.656-.04-.053.267c-.059.303-.05 9.702.012 10.937.037.752.047.804.17.838.072.02.597.079 1.167.13.57.053 1.07.107 1.111.12.042.014.076.095.076.18v.153h-2.73c-1.503 0-3.066.018-3.473.04-.615.033-.74.026-.736-.045zm22.608-.072a.44.44 0 01.045-.201c.024-.035.362-.098.75-.14.39-.041.838-.108 1-.148.291-.072.292-.072.332-.374.086-.65.02-11.323-.071-11.47-.023-.036-.474-.122-1.004-.19a28.2 28.2 0 01-.973-.132 1.301 1.301 0 01-.052-.177L45.015.08h2.812c1.547 0 3.024-.018 3.284-.04l.472-.04-.044.176a.671.671 0 01-.084.217c-.023.023-.47.093-.995.157-.524.063-.974.136-.998.16-.063.063-.087 8.43-.03 10.294l.045 1.513.301.075c.166.04.612.101.992.134s.698.068.707.077c.01.01.035.085.055.168l.038.152-3.135.013c-1.724.007-3.195.028-3.27.046-.111.027-.136.008-.136-.104zm30.381.284c-1.044-.851-2.903-2.849-5.284-5.676-.26-.308-.497-.56-.526-.56-.205 0-2.65 3.73-3.324 5.072l-.188.374.589.1c.324.054.675.111.78.127.18.027.264.12.264.289 0 .053-.628.072-2.457.078l-2.457.007.038-.129c.063-.21.155-.26.628-.334.626-.1.791-.194 1.316-.757.626-.671 3.652-4.479 4.293-5.402.04-.06-.06-.22-.369-.587-.234-.279-1.067-1.366-1.852-2.416-.784-1.05-1.615-2.129-1.846-2.395-.4-.461-.44-.49-.813-.588a3.445 3.445 0 00-.62-.106c-.2-.003-.227-.021-.227-.155a.655.655 0 00-.015-.175c-.008-.013 1.315-.04 2.941-.058 2.763-.033 2.956-.029 2.955.068-.002.199-.094.242-.728.341-.351.055-.713.12-.805.144l-.167.045.414.636c.824 1.265 2.484 3.57 2.573 3.575.128.006 2.277-3.033 2.778-3.928.182-.326.169-.336-.618-.474-.548-.096-.587-.113-.616-.26a.677.677 0 01-.02-.166c.005-.005 1.013-.019 2.24-.03L76.518 0l-.04.182c-.02.1-.042.187-.047.193-.005.006-.28.066-.61.134-.582.119-.611.133-.93.444-.377.368-1.986 2.188-3.147 3.559l-.79.933.473.608c.47.603.678.891 2.874 3.983.936 1.317 2.324 3.224 2.593 3.562.047.06-.065.076-.52.076h-.58l-.383-.312zm48.801-.132c-1.017-.755-3.183-2.913-5.342-5.322l-.865-.965-.875.037c-.482.02-.897.057-.924.08-.058.053.019 5.216.079 5.314.059.095.39.16 1.247.245.706.07.737.078.773.222.021.083.029.158.02.167-.01.01-1.465.027-3.233.039l-3.214.021c-.008-.119.003-.219.076-.315.041-.032.496-.104 1.009-.162.522-.057.953-.134.977-.172.023-.038.062-.301.086-.585.048-.576-.021-10.784-.076-11.056-.043-.216-.252-.283-1.015-.329-1.021-.06-1.057-.07-1.057-.272V0l2.188.002c6.087.006 7.446.212 8.4 1.268.595.658.656 1.526.178 2.504-.357.729-1.299 1.713-2.056 2.147l-.313.18.218.375c.312.536 2.041 3.12 2.753 4.117.719 1.004 1.098 1.49 1.769 2.272l.501.583-.381.066a8.547 8.547 0 01-.415.066c-.02 0-.248-.158-.508-.35zm-6.393-6.96c.839-.168 1.401-.454 1.941-.988.495-.49.71-.885.848-1.56.285-1.398-.628-2.554-2.368-3-.664-.169-1.875-.284-1.972-.186-.056.055-.079.8-.094 3.005l-.02 2.932.533-.042c.293-.023.803-.096 1.132-.161zm-31.812 6.712c.031-.215-.025-.195.984-.353l.697-.109.226-.424c.431-.813 1.338-3.04 3.183-7.824.752-1.948 1.361-3.62 1.331-3.65-.014-.014-.295-.067-.624-.118-.916-.141-.871-.125-.871-.311V.027l2.889-.02c2.663-.017 2.885-.01 2.85.082a.605.605 0 00-.038.175c0 .048-.244.113-.699.184-.384.06-.712.132-.729.159-.017.027.296.972.694 2.1 1.453 4.11 2.683 7.264 3.521 9.03l.35.737.296.07c.283.066 1.096.183 1.305.187.063 0 .109.067.125.177l.026.174-3.188.027c-1.753.015-3.19.025-3.195.022a1.132 1.132 0 01.02-.192l.03-.188.828-.102c1.047-.129 1.12-.147 1.064-.273-.068-.156-.595-1.646-.968-2.736a70.46 70.46 0 00-.646-1.805l-.304-.803h-.342c-.945 0-4.042.193-4.105.256-.132.132-.982 3.197-1.207 4.353-.085.434-.154.8-.154.812 0 .046.29.11.97.21.685.1.698.106.717.268l.02.166h-2.234c-1.228 0-2.371.017-2.541.038l-.31.037.029-.19zm8.928-6.648a3.914 3.914 0 00-.15-.331c-.087-.168-.861-2.412-1.465-4.245a16.051 16.051 0 00-.29-.836c-.072-.072-2.037 5.184-2.037 5.45 0 .028.69.06 1.532.069.842.01 1.742.023 2 .03l.468.015-.058-.152zM.182 22.767c.009-.032.02-.036.202-.064.288-.045.257-.025.336-.211.107-.25.276-.677.507-1.282.25-.654.736-1.955.743-1.985.003-.016-.037-.027-.203-.054a12.006 12.006 0 01-.21-.034l-.01-.036-.007-.035h1.424l-.004.035c-.004.033-.011.036-.198.067a1.532 1.532 0 00-.202.041 3.28 3.28 0 00.105.362c.334 1.037.83 2.353 1.11 2.95l.063.133.077.016c.042.009.145.026.229.039.142.021.152.025.16.057l.01.035h-.78c-.428 0-.779-.005-.779-.011 0-.046.03-.062.135-.07.144-.014.383-.05.404-.064.012-.008-.015-.105-.104-.368a39.42 39.42 0 00-.393-1.125l-.045-.116-.32.01c-.32.008-.689.027-.876.044l-.1.009-.07.216c-.205.65-.37 1.298-.338 1.328.015.014.292.07.345.07.025 0 .04.01.049.036l.013.038c0 .002-.288.003-.64.003H.172l.01-.034zm2.532-1.844c0-.025-.359-1.06-.485-1.399l-.086-.233-.024.047c-.036.07-.165.4-.332.849-.204.55-.254.697-.243.709a5.3 5.3 0 00.448.018l.58.01c.078.002.142.001.142-.001zm9.913 1.229a192.96 192.96 0 00-2.096-2.579l-.034-.033.009.707c.018 1.49.045 2.372.075 2.39.018.012.18.033.415.054l.174.017.01.035.008.033h-.707c-.583 0-.706-.003-.7-.018a.114.114 0 00.006-.034c0-.01.058-.024.177-.039.213-.027.269-.042.277-.072.027-.09.068-1.15.101-2.636.01-.454.01-.609-.001-.616-.017-.01-.09-.02-.354-.046a2.7 2.7 0 01-.193-.022.222.222 0 01-.011-.038l-.008-.035.3-.008c.165-.005.395-.012.511-.017l.212-.008.098.137c.253.35.858 1.124 1.665 2.132l.608.762.059.076.004-.3c.009-.664-.03-2.425-.058-2.595-.008-.047-.009-.048-.09-.062a7.208 7.208 0 00-.279-.036 5.46 5.46 0 01-.2-.024.202.202 0 01-.01-.034l-.01-.033h.681c.675 0 .68 0 .673.026a.115.115 0 01-.016.035 1.66 1.66 0 01-.207.044c-.108.02-.2.038-.203.04a6.277 6.277 0 00-.054.581 66.92 66.92 0 00-.053 2.146l-.017.968c-.003.05-.023.026-.762-.898zm63.775-.002a195.609 195.609 0 00-2.128-2.618l-.034-.034.009.718c.018 1.512.046 2.408.076 2.427.018.011.182.032.421.054l.177.017c0 .001.006.017.01.035l.009.034h-.718c-.593 0-.717-.003-.712-.018a.115.115 0 00.007-.035c0-.01.059-.024.18-.04.216-.027.273-.042.281-.072.028-.092.069-1.168.103-2.676.01-.46.01-.618-.001-.625-.018-.011-.091-.02-.36-.047a2.768 2.768 0 01-.195-.022.23.23 0 01-.012-.04l-.008-.034.304-.009c.168-.005.401-.012.52-.017l.214-.007.1.138c.257.355.87 1.14 1.69 2.165.306.382.584.73.617.773l.06.077.004-.305c.009-.674-.03-2.461-.059-2.634-.008-.048-.009-.049-.09-.063a7.378 7.378 0 00-.285-.036l-.203-.024a.19.19 0 01-.01-.035l-.009-.034h.69c.686 0 .692 0 .684.027a.118.118 0 01-.017.036 1.69 1.69 0 01-.21.044 2.97 2.97 0 00-.206.041 6.58 6.58 0 00-.055.59c-.018.302-.035.98-.054 2.178-.008.512-.015.954-.017.982-.003.05-.023.026-.773-.911zm-56.577.663l.013-.036c.01-.028.022-.034.063-.035.074-.001.466-.059.477-.07.038-.038.04-3.258.003-3.295-.007-.007-.103-.021-.462-.07-.062-.009-.074-.015-.081-.043l-.009-.034h.775c.768 0 .774 0 .766.027a.115.115 0 01-.016.035 2.6 2.6 0 01-.27.045l-.262.037-.01.074c-.014.098-.014 2.992 0 3.125.013.122-.018.107.308.148.24.03.25.034.258.088a63.702 63.702 0 01-1.553.004zm7.539-.003a.116.116 0 00.007-.036c0-.011.049-.024.15-.04.235-.035.247-.04.262-.098.063-.24.228-3.2.228-3.26 0-.014-.088-.032-.287-.06a5.336 5.336 0 01-.163-.025.217.217 0 01-.01-.035l-.008-.033h.661c.546 0 .66.003.655.017a.116.116 0 00-.007.034c0 .01-.062.029-.16.048a1.48 1.48 0 00-.175.042c-.013.007 0 .06.047.201.192.572 1.074 2.45 1.102 2.477.005.005.011.006.014.003.022-.023 1.288-2.646 1.288-2.677 0-.008-.104-.032-.233-.053-.132-.022-.154-.032-.154-.072 0-.018.077-.02.614-.02.506 0 .613.003.607.017a.116.116 0 00-.006.035c0 .012-.05.025-.15.04a3.335 3.335 0 00-.205.036l-.055.014.02.102c.078.429.067 2.933.13 3.17.014.057.029.063.252.097.134.021.173.039.173.079 0 .01-.221.014-.718.014h-.718l.005-.035c.005-.034.01-.036.11-.044.156-.014.438-.055.449-.065.011-.012.002-.253-.016-.937-.014-.544.01-1.99-.01-2.056l-.011-.04-.037.08c-.062.137-.417.729-.838 1.633-.422.905-.587 1.321-.619 1.383l-.02.04-.017-.033c-.021-.04-.46-1.194-.92-2.305a6.236 6.236 0 00-.438-.857c-.012-.014.013-.003.023.693.01.723-.04 1.157-.043 1.673-.002.309-.035.711-.02.726.005.005.13.025.279.043.264.034.268.035.277.068l.01.034h-.666c-.549 0-.665-.004-.66-.019zm63.063.444c.049-.335.073-.673.083-1.15l.01-.429.047.017.048.016.008.172c.014.295.021.34.076.432.064.108.228.261.344.322.154.081.27.11.438.11a.822.822 0 00.417-.095c.296-.149.436-.48.349-.823-.062-.24-.189-.375-.633-.672-.394-.264-.542-.378-.672-.516-.273-.292-.336-.644-.175-.97a.853.853 0 01.407-.407c.18-.089.285-.11.54-.11a1.488 1.488 0 01.68.133c.018.005.029-.03.065-.214l.044-.22.046-.01c.025-.004.047-.006.05-.003.003.003-.007.092-.02.198-.045.328-.08.703-.089.93-.007.202-.01.216-.032.21-.081-.023-.075-.006-.08-.218-.008-.25-.03-.305-.182-.455a.75.75 0 00-.363-.208 1.192 1.192 0 00-.454.012c-.284.091-.44.302-.42.572.017.252.138.377.74.767.32.207.454.31.58.443.161.17.25.331.288.528.024.123.01.385-.027.503-.127.403-.46.67-.933.747a2.226 2.226 0 01-.87-.07.624.624 0 00-.108-.029 6.277 6.277 0 00-.053.244c-.063.302-.057.282-.091.291-.061.017-.067.012-.058-.048zm-25.09-.37c-.489-.06-.848-.226-1.154-.535a1.636 1.636 0 01-.484-.898 2.455 2.455 0 01.008-.74c.084-.395.25-.7.538-.989.48-.482 1.09-.683 1.872-.616.309.027.563.095.8.213.503.252.823.659.937 1.19.028.131.031.446.007.618-.137.968-.865 1.651-1.876 1.762-.17.02-.468.017-.648-.005zm.888-.205c.64-.103 1.089-.542 1.23-1.203.04-.186.043-.53.007-.702a1.879 1.879 0 00-1.447-1.46 2.3 2.3 0 00-.746.007c-.782.174-1.235.733-1.235 1.526 0 .664.422 1.332 1.045 1.655a1.76 1.76 0 001.146.177zm51.499.149a.21.21 0 01.012-.038c.011-.03.021-.033.129-.041.173-.014.382-.048.401-.067.053-.051.058-3.245.005-3.298a3.269 3.269 0 00-.441-.07c-.086-.01-.106-.021-.106-.06 0-.018.139-.02 1.18-.02 1.23 0 1.238.001 1.598.061.442.074.741.21.999.458.134.128.211.233.28.381.104.221.137.452.108.737-.075.729-.495 1.31-1.185 1.641-.374.18-.757.273-1.262.307-.193.014-1.718.02-1.718.009zm1.982-.182c.515-.054 1.004-.272 1.325-.591a1.59 1.59 0 00.415-.708c.032-.12.035-.15.035-.396 0-.247-.003-.277-.036-.4a1.592 1.592 0 00-.233-.486c-.352-.465-.968-.68-1.958-.683a5.092 5.092 0 00-.415.01l-.101.01-.008.05a27.83 27.83 0 00-.023.833c-.012.602-.012.95 0 1.49.008.389.019.728.023.754.009.056.026.064.231.099.235.04.478.046.745.018zm-72.088.054a.17.17 0 01.01-.034l.31-.033c.17-.018.313-.037.318-.043.005-.005.013-.165.018-.355.01-.44.01-2.366 0-2.63l-.009-.201-.297.001c-.41.002-.707.032-.938.096-.122.034-.168.059-.182.096-.007.017-.024.1-.039.184-.053.298-.05.286-.094.302a.132.132 0 01-.043.01 5.16 5.16 0 01.02-.262c.03-.333.052-.67.052-.825v-.123l.042.008.042.009.008.12c.005.067.013.14.017.163l.008.043.113.008c.668.048 2.625.046 3.123-.003l.084-.008.029-.117c.015-.064.029-.132.03-.15 0-.024.009-.037.03-.042.053-.015.076-.01.069.014-.013.042-.06.395-.106.799a9.3 9.3 0 01-.05.406c-.004.003-.023.001-.044-.003l-.038-.009.001-.28.002-.282-.084-.028c-.184-.06-.644-.117-1.07-.13l-.26-.007-.011.218a83.043 83.043 0 000 2.572l.01.41.035.006c.018.004.162.02.319.036l.286.03c.002 0 .006.016.01.034l.009.032H47.61l.008-.032zm62.07.04c-.511-.078-.875-.379-1.035-.855-.084-.25-.083-.242-.094-1.382a36.282 36.282 0 00-.02-1.08c-.01-.046-.013-.047-.255-.088-.125-.022-.146-.032-.146-.07 0-.017.083-.019.676-.019.592 0 .676.003.676.02a.07.07 0 01-.01.032 1.546 1.546 0 01-.263.047 3.14 3.14 0 00-.259.04c-.015.015-.031.917-.025 1.411.006.567.016.683.08.93.137.528.467.832.944.867.266.02.51-.02.705-.115.224-.108.394-.344.465-.642.038-.157.047-.26.054-.625a45.322 45.322 0 00-.023-1.825 5.46 5.46 0 00-.438-.064c-.082-.008-.091-.012-.103-.042l-.013-.034h1.268l-.012.033c-.011.032-.023.036-.179.067a.744.744 0 00-.176.048c-.017.028-.028.667-.022 1.21.008.582-.001.782-.042 1-.123.655-.553 1.063-1.205 1.143a2.479 2.479 0 01-.548-.006zm-71.988.027c.009-.032.021-.036.202-.064.288-.045.257-.025.336-.211.107-.25.276-.677.507-1.282.25-.654.736-1.955.743-1.985.003-.016-.037-.027-.203-.054a11.87 11.87 0 01-.21-.034.28.28 0 01-.01-.036l-.007-.035h1.424l-.004.035c-.004.033-.011.036-.197.067a1.538 1.538 0 00-.203.041 3.15 3.15 0 00.105.362c.334 1.037.83 2.353 1.11 2.95l.063.133.077.016c.042.009.145.026.229.039.142.021.152.025.161.057l.01.035h-.78c-.429 0-.78-.005-.78-.011 0-.046.03-.062.135-.07.144-.014.383-.05.404-.064.013-.008-.015-.105-.104-.368a39.42 39.42 0 00-.393-1.125l-.045-.116-.32.01c-.32.008-.689.027-.876.044l-.1.009-.069.216c-.206.65-.371 1.298-.339 1.328.015.014.292.07.345.07.025 0 .04.01.049.036l.013.038c0 .002-.288.003-.64.003h-.642l.01-.034zm2.532-1.844c0-.025-.358-1.06-.485-1.399l-.086-.233-.024.047c-.036.07-.165.4-.331.849-.205.55-.255.697-.243.709.005.005.207.013.447.018l.58.01c.078.002.142.001.142-.001zm15.97 1.89l.013-.036c.011-.028.022-.034.063-.035.075-.001.466-.059.478-.07.037-.038.04-3.258.003-3.295-.007-.007-.103-.021-.463-.07-.062-.009-.073-.015-.08-.043l-.01-.034h.775c.768 0 .775 0 .767.027a.117.117 0 01-.017.035 2.611 2.611 0 01-.27.045l-.261.037-.01.074c-.015.098-.014 2.992 0 3.125.013.122-.019.107.308.148.24.03.25.034.257.088a63.715 63.715 0 01-1.553.004zm43.414-.113a.17.17 0 01.01-.034l.31-.033c.17-.018.313-.037.318-.043.005-.005.013-.165.018-.355.01-.44.01-2.366-.001-2.63l-.008-.201-.297.001c-.41.002-.707.032-.938.096-.122.034-.168.059-.182.096-.007.017-.024.1-.039.184-.053.298-.05.286-.094.302a.132.132 0 01-.043.01c-.002-.001.007-.12.02-.262.03-.333.052-.67.052-.825v-.123l.042.008.042.009.009.12c.004.067.012.14.016.163l.008.043.113.008c.668.048 2.625.046 3.123-.003l.084-.008.029-.117c.015-.064.029-.132.029-.15.001-.024.01-.037.03-.042.054-.015.077-.01.07.014-.013.042-.06.395-.106.799a8.86 8.86 0 01-.051.406c-.002.003-.022.001-.043-.003l-.038-.009.001-.28.002-.282-.084-.028c-.184-.06-.644-.117-1.07-.13l-.261-.007-.01.218a84.32 84.32 0 000 2.572l.01.41.035.006c.018.004.162.02.319.036l.286.03c.002 0 .006.016.011.034l.008.032h-1.738l.008-.032zm37.273.184c-.489-.06-.848-.226-1.154-.535a1.643 1.643 0 01-.484-.898 2.48 2.48 0 01.007-.74c.085-.395.251-.7.538-.989.482-.482 1.092-.683 1.873-.616.309.027.563.095.8.213.503.252.823.659.937 1.19.027.131.031.446.007.618-.137.968-.865 1.651-1.876 1.762a3.453 3.453 0 01-.648-.005zm.888-.205c.64-.103 1.088-.542 1.23-1.203.04-.186.043-.53.007-.702a1.88 1.88 0 00-1.447-1.46 2.3 2.3 0 00-.746.007c-.783.174-1.235.733-1.235 1.526 0 .664.422 1.332 1.045 1.655a1.76 1.76 0 001.146.177zm-10.023.134l.013-.036c.011-.028.022-.034.063-.035.075-.001.466-.059.478-.07.037-.038.04-3.258.003-3.295-.007-.007-.103-.021-.463-.07-.062-.009-.073-.015-.081-.043l-.009-.034h.775c.768 0 .775 0 .767.027a.12.12 0 01-.017.035 2.56 2.56 0 01-.27.045l-.261.037-.011.074c-.014.098-.013 2.992.001 3.125.013.122-.019.107.308.148.239.03.249.034.257.088a63.79 63.79 0 01-1.553.004zm17.577.441c.049-.335.073-.673.083-1.15l.009-.429.048.017.048.016.008.172c.014.295.022.34.076.432.064.108.228.261.344.322.155.081.27.11.438.11a.826.826 0 00.418-.095c.295-.149.436-.48.348-.823-.062-.24-.189-.375-.633-.672-.394-.264-.542-.378-.672-.516-.273-.292-.336-.644-.175-.97a.858.858 0 01.407-.407c.179-.089.285-.11.54-.11a1.485 1.485 0 01.68.133c.018.005.029-.03.066-.214l.043-.22.046-.01c.025-.004.047-.006.05-.003.003.003-.007.092-.021.198-.043.328-.079.703-.088.93-.007.202-.009.216-.032.21-.081-.023-.074-.006-.081-.218-.007-.25-.029-.305-.181-.455a.744.744 0 00-.363-.208 1.195 1.195 0 00-.454.012c-.284.091-.439.302-.421.572.018.252.139.377.741.767.32.207.454.31.581.443.16.17.249.331.287.528.024.123.01.385-.027.503-.127.403-.459.67-.933.747a2.226 2.226 0 01-.87-.07.61.61 0 00-.108-.029 5.69 5.69 0 00-.053.244c-.063.302-.056.282-.091.291-.061.017-.067.012-.058-.048z" fill="#00175C"/></svg>