<svg width="113" height="24" fill="none" xmlns="http://www.w3.org/2000/svg"><g clip-path="url(#clip0_413_573)" fill="#00175C"><path d="M46.962 4.801v14.4h-2.5v-11.3h-.033l-4.467 11.3h-1.666l-4.567-11.3h-.033v11.3h-2.3v-14.4h3.6l4.133 10.667h.067L43.562 4.8h3.4zm2.067 1.1c0-.4.133-.733.433-1s.633-.4 1.033-.4c.434 0 .8.133 1.067.4.267.267.433.6.433 1s-.133.733-.433 1-.633.4-1.067.4c-.433 0-.766-.133-1.033-.4-.267-.3-.433-.633-.433-1zm2.7 2.967V19.2h-2.434V8.868h2.433zm7.366 8.566c.367 0 .767-.066 1.2-.266.433-.167.833-.4 1.2-.667v2.267c-.4.233-.834.4-1.333.5-.5.1-1.034.166-1.634.166-1.533 0-2.766-.466-3.7-1.433-.966-.967-1.433-2.2-1.433-3.667 0-1.666.5-3.033 1.467-4.1.966-1.066 2.333-1.6 4.133-1.6.467 0 .933.067 1.367.167.466.1.833.267 1.1.4v2.333c-.367-.266-.767-.5-1.134-.633-.4-.133-.8-.233-1.2-.233-.966 0-1.733.3-2.333.933-.6.633-.867 1.467-.867 2.533 0 1.034.3 1.867.867 2.434.567.566 1.333.866 2.3.866zm9.3-8.733c.2 0 .366 0 .533.033.166.034.3.067.4.1v2.467c-.133-.1-.3-.2-.567-.267a3.418 3.418 0 00-.9-.133c-.6 0-1.1.267-1.5.767-.4.5-.633 1.266-.633 2.333v5.2h-2.433V8.868h2.433V10.5h.033c.234-.567.567-1 1-1.333.467-.3 1-.467 1.634-.467zm1.066 5.5c0-1.7.5-3.067 1.433-4.067.967-1 2.3-1.5 4-1.5 1.6 0 2.867.467 3.767 1.434.9.966 1.367 2.266 1.367 3.9 0 1.666-.5 3-1.434 4-.966 1-2.266 1.5-3.933 1.5-1.6 0-2.867-.467-3.8-1.4-.933-.967-1.4-2.267-1.4-3.867zm2.533-.1c0 1.067.234 1.9.734 2.467.5.566 1.2.866 2.1.866.866 0 1.566-.266 2.033-.866.467-.567.7-1.4.7-2.534 0-1.1-.233-1.933-.7-2.533-.467-.567-1.167-.867-2-.867-.9 0-1.567.3-2.067.9-.566.634-.8 1.467-.8 2.567zm11.667-2.5c0 .333.1.633.333.833.233.2.7.434 1.467.734.966.4 1.666.833 2.033 1.3.4.5.6 1.066.6 1.766 0 .967-.367 1.734-1.133 2.334-.734.6-1.767.866-3.034.866-.433 0-.9-.066-1.433-.166a5.767 5.767 0 01-1.333-.4v-2.4c.433.3.933.566 1.433.733.5.167.967.267 1.4.267.533 0 .967-.067 1.2-.234.267-.166.4-.4.4-.766 0-.334-.133-.6-.4-.867-.267-.233-.8-.5-1.533-.8-.9-.367-1.534-.8-1.9-1.267-.367-.466-.567-1.066-.567-1.8 0-.933.367-1.7 1.1-2.3.733-.6 1.7-.9 2.867-.9.366 0 .766.034 1.2.134.433.1.833.2 1.133.3v2.366c-.334-.2-.7-.4-1.133-.566a3.526 3.526 0 00-1.267-.234c-.467 0-.833.1-1.067.267-.233.233-.366.467-.366.8zm5.466 2.6c0-1.7.5-3.067 1.433-4.067.967-1 2.3-1.5 4-1.5 1.6 0 2.867.467 3.767 1.434.9.966 1.366 2.266 1.366 3.9 0 1.666-.5 3-1.433 4-.967 1-2.267 1.5-3.933 1.5-1.6 0-2.867-.467-3.8-1.4-.9-.967-1.4-2.267-1.4-3.867zm2.533-.1c0 1.067.234 1.9.734 2.467.5.566 1.2.866 2.1.866.866 0 1.566-.266 2.033-.866.466-.567.7-1.4.7-2.534 0-1.1-.234-1.933-.7-2.533-.467-.567-1.167-.867-2-.867-.9 0-1.567.3-2.067.9-.533.634-.8 1.467-.8 2.567zm16.133-3.233h-3.633V19.2h-2.467v-8.333H99.96v-2h1.733V7.434c0-1.066.367-1.966 1.067-2.666s1.6-1.034 2.7-1.034c.3 0 .566.034.8.034.233 0 .433.066.6.133v2.1a4.143 4.143 0 00-.434-.167c-.2-.066-.433-.1-.7-.1-.5 0-.9.167-1.166.467-.267.3-.4.8-.4 1.4v1.233h3.633V6.501l2.433-.733v3.066h2.467v2h-2.467v4.834c0 .633.134 1.066.334 1.333.233.267.6.4 1.1.4.133 0 .3-.033.5-.1s.366-.133.5-.233v2c-.167.1-.4.166-.767.233s-.7.1-1.067.1c-1.033 0-1.8-.267-2.3-.8-.5-.533-.766-1.367-.766-2.467l.033-5.266zM11.563 0H.163v11.4h11.4V0zm12.601 0h-11.4v11.4h11.4V0zM11.563 12.602H.163v11.4h11.4v-11.4zm12.601 0h-11.4v11.4h11.4v-11.4z"/></g><defs><clipPath id="clip0_413_573"><path fill="#fff" transform="translate(.163)" d="M0 0h112.529v24H0z"/></clipPath></defs></svg>