<svg width="66" height="25" fill="none" xmlns="http://www.w3.org/2000/svg"><g clip-path="url(#clip0_608_709)" fill="#000"><path d="M1.946 21.029h.504v1.512h1.932V21.03h.488v3.53h-.488v-1.614H2.45v1.613h-.504v-3.53zM12.69 23.28c0 .892-.538 1.362-1.463 1.362-.94 0-1.512-.42-1.512-1.361v-2.252h.504v2.252c0 .622.37.975 1.008.975.622 0 .975-.353.975-.975v-2.252h.488v2.252zm6.095 1.377c-1.11.067-1.782-.874-1.782-1.798 0-1.025.589-1.916 1.765-1.916.807 0 1.445.336 1.58 1.176h-.488c-.1-.538-.554-.79-1.092-.79-.908 0-1.277.757-1.277 1.513 0 .74.47 1.445 1.361 1.429.454-.017.824-.101 1.008-.404.135-.185.101-.52.085-.773h-1.177v-.403h1.613v1.328c-.42.52-.924.605-1.596.638zm7.631-.403c.891 0 1.278-.757 1.278-1.462 0-.706-.387-1.463-1.278-1.463-.907 0-1.277.757-1.277 1.463 0 .705.37 1.462 1.277 1.462zm0-3.311c1.177 0 1.765.89 1.765 1.849 0 .958-.588 1.848-1.765 1.848-1.176 0-1.764-.89-1.764-1.848 0-.958.588-1.85 1.764-1.85zm11.664 1.598h.975c.554 0 .79-.184.79-.554 0-.488-.353-.572-.79-.572h-.975v1.126zm0 1.63h1.227c.42 0 .689-.252.689-.638 0-.454-.387-.588-.807-.588h-1.11v1.227zm-.487-3.142h1.327c.336 0 .756 0 .975.117.252.152.437.404.437.74a.826.826 0 01-.538.807c.454.084.706.42.706.857 0 .52-.403 1.008-1.126 1.008h-1.782v-3.53zm9.073 3.225c.907 0 1.277-.757 1.277-1.462 0-.706-.37-1.463-1.277-1.463-.891 0-1.278.757-1.278 1.463 0 .705.387 1.462 1.278 1.462zm0-3.311c1.176 0 1.781.89 1.781 1.849 0 .958-.605 1.848-1.782 1.848-1.176 0-1.764-.89-1.764-1.848 0-.958.588-1.85 1.764-1.85zm8.555 1.126c-.05-.521-.403-.74-.907-.74-.42 0-.824.152-.824.605 0 .437.588.505 1.176.64.589.117 1.177.318 1.177 1.024 0 .74-.773 1.042-1.445 1.042-.824 0-1.513-.386-1.513-1.243h.454c0 .588.52.857 1.075.857.454 0 .942-.135.942-.656 0-.487-.589-.554-1.177-.689-.588-.117-1.193-.285-1.193-.94 0-.707.672-1.026 1.344-1.026.757 0 1.328.336 1.362 1.126h-.47zm7.969 0c-.067-.521-.42-.74-.924-.74-.403 0-.823.152-.823.605 0 .437.588.505 1.193.64.588.117 1.176.318 1.176 1.024 0 .74-.773 1.042-1.445 1.042-.823 0-1.53-.386-1.53-1.243h.471c0 .588.521.857 1.076.857.437 0 .941-.135.941-.656 0-.487-.605-.554-1.193-.689-.588-.117-1.177-.285-1.177-.94 0-.707.656-1.026 1.345-1.026.74 0 1.328.336 1.344 1.126h-.453zM6.284 2.37v6.353h2.302s.202-.017.32-.05c1.344-.118 2.201-1.732 2.285-2.908.135-1.26-.638-3.345-2.571-3.395-.572-.017-2.336 0-2.336 0zm0 7.092v7.614h2.084s1.176.084 2.235-.774c1.042-.84 1.58-2.084 1.462-3.512-.084-1.277-1.059-3.092-3.243-3.328H6.284zM11.19 1.63c1.731.101 2.857 1.026 2.958 1.143.89.824 1.16 2.067.941 3.26-.285 2-2.773 2.841-2.773 2.841 2.084.252 3.647 1.815 3.883 3.496.201 1.647-.404 3.109-1.765 4.134-1.378 1.025-3.395 1.361-4.487 1.361H1.04v-.705c1.143.016 1.277.016 1.277-.437-.016-1.715 0-13.68 0-14 0-.37-.185-.387-1.277-.387-.017-.285.017-.706.017-.706H11.19zm13.749.876c-1.11.739-1.882 2.436-2.252 3.848-.588 2.135-.47 4.656.117 7.244.606 2.588 2.27 3.496 3.261 3.714 1.849.42 3.059-.655 3.714-1.647 1.277-1.933 1.597-5.916 1.194-8.202-.37-2.117-.942-3.596-2.05-4.588-1.245-1.092-3.026-1.008-3.984-.37zm9.966 10.05c-.773 2.302-2.32 3.748-4.1 4.689-2.337 1.26-5.681 1.462-8.017.067-1.446-.857-5.126-3.143-4.639-8.538.101-1.16.69-4.067 3.933-6.252 2.218-1.445 5.412-1.865 8.386-.487 4.639 2.118 5.614 7.344 4.437 10.52zm13.626-10.17c.017 1.21 0 3.715 0 3.715l-.588.016c-.353-1.563-1.11-2.907-2.403-3.529-1.244-.605-3.126-.907-4.353.168-.723.639-.824 1.294-.572 2.034.438 1.092 1.648 1.428 2.589 1.848.773.303 2.42.84 2.42.84 1.832.64 3.865 1.883 4.42 3.95.252.891.252 1.9.05 2.807-.453 2.017-1.748 2.504-2.487 3.008-.37.253-3.832 1.58-8 .219-.857-.286-1.849-.622-1.849-.622v-4.52s.454.016.639.016c.286.723.538 1.596 1.143 2.47 1.412 2.05 3.412 2.673 5.613 2.202.874-.202 1.832-.807 2.084-1.714.32-1.025.219-2.723-2.874-3.866-2.235-1.025-5.042-1.445-6.37-3.932-.52-1.395-.369-3.815 1.345-4.992 1.731-1.176 3.412-1.445 5.445-1.176 2.017.285 2.555.554 3.748 1.058zm14.726 0c.017 1.21 0 3.715 0 3.715l-.588.016c-.353-1.563-1.11-2.907-2.404-3.529-1.243-.605-3.126-.907-4.353.168-.722.639-.823 1.294-.571 2.034.437 1.092 1.647 1.428 2.588 1.848.773.303 2.42.84 2.42.84 1.832.64 3.866 1.883 4.42 3.95.253.891.253 1.9.05 2.807-.453 2.017-1.747 2.504-2.486 3.008-.37.253-3.832 1.58-8 .219a447.82 447.82 0 01-1.85-.622v-4.52s.455.016.64.016c.285.723.537 1.596 1.142 2.47 1.412 2.05 3.412 2.673 5.614 2.202.874-.202 1.832-.807 2.084-1.714.32-1.025.218-2.723-2.874-3.866-2.235-1.025-5.042-1.445-6.37-3.932-.52-1.395-.37-3.815 1.361-4.992 1.715-1.176 3.395-1.445 5.412-1.176 2.034.285 2.572.554 3.765 1.058z"/></g><defs><clipPath id="clip0_608_709"><path fill="#fff" transform="translate(.77 .927)" d="M0 0h64.46v24H0z"/></clipPath></defs></svg>