<svg width="80" height="25" fill="none" xmlns="http://www.w3.org/2000/svg"><g clip-path="url(#clip0_608_724)" fill="#000"><path d="M49.314 19.523c-4.615 3.401-11.304 5.216-17.063 5.216-8.076 0-15.346-2.986-20.846-7.954-.433-.391-.045-.924.473-.62 5.936 3.454 13.275 5.532 20.856 5.532 5.113 0 10.738-1.058 15.91-3.253.781-.332 1.434.512.67 1.079z"/><path d="M51.237 17.33c-.588-.754-3.9-.357-5.387-.18-.452.055-.522-.34-.114-.623 2.638-1.856 6.967-1.32 7.471-.698.505.626-.131 4.964-2.61 7.035-.38.318-.743.149-.574-.273.557-1.39 1.805-4.505 1.214-5.262zM45.954 3.419V1.614c0-.273.208-.456.456-.456h8.08a.45.45 0 01.467.456V3.16c-.004.26-.222.599-.609 1.134l-4.186 5.978c1.555-.038 3.197.193 4.608.989.318.18.404.442.429.701v1.926c0 .263-.29.57-.595.411-2.486-1.303-5.787-1.445-8.536.014-.28.152-.574-.152-.574-.415v-1.829c0-.293.004-.795.298-1.24l4.85-6.956h-4.221c-.26 0-.467-.184-.467-.453zM16.483 14.68h-2.459a.464.464 0 01-.439-.418V1.646c0-.252.211-.453.474-.453h2.292c.239.01.429.194.446.422v1.65h.045C17.44 1.67 18.564.926 20.078.926c1.538 0 2.5.744 3.191 2.337.595-1.593 1.946-2.337 3.395-2.337 1.03 0 2.157.425 2.845 1.38.778 1.061.619 2.603.619 3.955l-.003 7.962a.464.464 0 01-.474.456h-2.455a.467.467 0 01-.442-.457V7.537c0-.532.048-1.86-.07-2.364-.183-.847-.732-1.086-1.444-1.086-.595 0-1.217.398-1.47 1.034-.252.636-.228 1.7-.228 2.416v6.686c0 .253-.21.457-.474.457h-2.454a.465.465 0 01-.443-.457l-.003-6.686c0-1.407.232-3.478-1.514-3.478-1.767 0-1.698 2.02-1.698 3.478v6.686c0 .253-.21.457-.473.457zM61.912.927c3.647 0 5.621 3.132 5.621 7.115 0 3.848-2.181 6.9-5.62 6.9-3.582 0-5.532-3.132-5.532-7.035 0-3.927 1.974-6.98 5.531-6.98zm.02 2.576c-1.81 0-1.925 2.468-1.925 4.007 0 1.542-.024 4.833 1.905 4.833 1.905 0 1.995-2.655 1.995-4.273 0-1.065-.045-2.337-.367-3.347-.276-.878-.826-1.22-1.607-1.22zm10.33 11.177h-2.448a.467.467 0 01-.442-.457l-.004-12.618a.465.465 0 01.474-.412h2.278a.47.47 0 01.44.353v1.93h.044c.688-1.726 1.653-2.549 3.35-2.549 1.103 0 2.178.398 2.87 1.487.643 1.01.643 2.707.643 3.927v7.941a.472.472 0 01-.474.398h-2.465a.466.466 0 01-.435-.398V7.43c0-1.38.159-3.398-1.539-3.398-.598 0-1.148.4-1.42 1.01-.347.77-.391 1.538-.391 2.388v6.793a.473.473 0 01-.48.457zM7.29 8.654v-.532c-1.778 0-3.655.38-3.655 2.475 0 1.061.55 1.78 1.494 1.78.691 0 1.31-.425 1.7-1.116.485-.85.46-1.65.46-2.607zm2.478 5.991a.513.513 0 01-.58.059c-.817-.678-.962-.992-1.411-1.639-1.348 1.376-2.303 1.788-4.052 1.788-2.067 0-3.678-1.276-3.678-3.83 0-1.996 1.082-3.354 2.62-4.018 1.335-.588 3.198-.692 4.622-.854v-.318c0-.584.045-1.276-.297-1.78-.3-.453-.875-.64-1.38-.64-.936 0-1.773.48-1.977 1.476-.041.221-.204.44-.425.45L.824 5.082c-.2-.045-.421-.208-.366-.515.55-2.89 3.16-3.762 5.497-3.762 1.196 0 2.759.318 3.703 1.224 1.196 1.117 1.082 2.607 1.082 4.228v3.83c0 1.152.477 1.657.926 2.279.16.221.194.487-.007.653a104.52 104.52 0 00-1.884 1.632l-.007-.007m29.388-5.99v-.532c-1.777 0-3.655.38-3.655 2.475 0 1.061.55 1.78 1.494 1.78.691 0 1.31-.425 1.7-1.116.485-.85.46-1.65.46-2.607zm2.478 5.991a.513.513 0 01-.58.059c-.816-.678-.962-.992-1.41-1.639-1.35 1.376-2.303 1.788-4.053 1.788-2.067 0-3.678-1.276-3.678-3.83 0-1.996 1.082-3.354 2.62-4.018 1.335-.588 3.198-.692 4.623-.854v-.318c0-.584.044-1.276-.298-1.78-.3-.453-.874-.64-1.38-.64-.936 0-1.773.48-1.977 1.476-.041.221-.204.44-.425.45l-2.385-.256c-.2-.045-.422-.208-.367-.515.55-2.89 3.16-3.762 5.497-3.762 1.196 0 2.759.318 3.703 1.224 1.196 1.117 1.082 2.607 1.082 4.228v3.83c0 1.152.477 1.657.926 2.279.16.221.194.487-.006.653-.502.419-1.394 1.197-1.885 1.632l-.007-.007"/></g><defs><clipPath id="clip0_608_724"><path fill="#fff" transform="translate(0 .775)" d="M0 0h79.513v24H0z"/></clipPath></defs></svg>