<svg width="111" height="24" fill="none" xmlns="http://www.w3.org/2000/svg"><path d="M87.377 4.265c0-.78.582-1.362 1.335-1.362.737 0 1.32.581 1.32 1.362 0 .78-.582 1.363-1.32 1.363-.753 0-1.335-.582-1.335-1.363zm1.335 1.632c.894 0 1.646-.695 1.646-1.632 0-.937-.752-1.632-1.647-1.632-.894 0-1.66.695-1.66 1.632 0 .937.766 1.632 1.66 1.632zm-.341-1.504h.326l.497.809h.312l-.525-.823c.27-.029.483-.185.483-.511 0-.384-.227-.54-.667-.54h-.724v1.874h.298v-.81zm0-.241V3.57h.383c.199 0 .412.042.412.27 0 .297-.213.312-.454.312h-.341zM16.54 6.621H6.816c-1.093 0-2.1.44-2.867 1.207a3.892 3.892 0 00-1.122 2.797c-.014 1.089.384 2.117 1.136 2.872a3.802 3.802 0 002.74 1.11h6.017c1.292.01 2.257.925 2.271 2.177-.014 1.208-1.05 2.24-2.285 2.255h-9.95v2.085h9.964c2.357-.03 4.315-1.978 4.358-4.34-.043-2.429-1.916-4.243-4.358-4.262H6.69a1.724 1.724 0 01-1.25-.497c-.354-.355-.538-.852-.538-1.4 0-.515.184-.98.539-1.335a1.942 1.942 0 011.39-.582h9.71V6.62zm17.77-.071v9.843c0 .752-.299 1.455-.824 1.977a2.7 2.7 0 01-1.944.793c-1.505.012-2.74-1.24-2.782-2.793V6.55h-2.073v9.866a2.646 2.646 0 01-.766 1.934 2.756 2.756 0 01-2.002.813 2.555 2.555 0 01-1.859-.77 2.71 2.71 0 01-.795-1.985V6.551H19.18v9.842a4.858 4.858 0 001.39 3.469c.91.904 2.087 1.395 3.35 1.385a4.786 4.786 0 003.478-1.433 5.17 5.17 0 00.369-.414c.894 1.136 2.257 1.86 3.776 1.847a4.791 4.791 0 003.42-1.398 4.769 4.769 0 001.42-3.456V6.55H34.31zm16.166-.057H45.92c-4.102-.057-7.494 3.22-7.55 7.301.056 4.209 3.448 7.594 7.55 7.575a6.698 6.698 0 002.47-.425v-2.15h-.241l-.199.093a4.57 4.57 0 01-2.001.399c-3.01.013-5.465-2.45-5.508-5.49.043-2.954 2.442-5.26 5.465-5.217h3.52v12.487h2.087V6.493h-1.037zm8.599 12.67a2.613 2.613 0 01-1.845-.792 2.368 2.368 0 01-.681-1.708V8.58h4.982V6.493h-4.982V2.746h-2.072v13.892c-.043 1.168.411 2.306 1.263 3.18a4.638 4.638 0 003.335 1.428h2.953v-2.083h-2.953z" fill="#00175C"/><path d="M74.236 16.088a5.374 5.374 0 01-4.94 3.196 5.432 5.432 0 01-3.902-1.598 5.342 5.342 0 01-1.576-3.87c-.028-2.986 2.442-5.437 5.479-5.48 1.76.043 3.335.866 4.3 2.255l1.718-1.19c-1.348-1.945-3.534-3.094-6.004-3.151-4.23.057-7.608 3.455-7.58 7.565a7.415 7.415 0 002.186 5.343 7.494 7.494 0 005.38 2.21 7.459 7.459 0 006.841-4.43l-1.902-.85zm9.663-9.836a6.133 6.133 0 00-4.23 1.604v-5.11h-2.087v18.32h2.087v-8.5a4.167 4.167 0 011.235-3.021c.809-.795 1.874-1.235 2.995-1.207 2.399-.042 4.343 1.87 4.386 4.26v8.468h2.086V12.58c-.057-3.56-2.966-6.385-6.472-6.328z" fill="#00175C"/><path fill-rule="evenodd" clip-rule="evenodd" d="M107.531 6.918H93.394v14.147h14.137V6.918zm-5.294 5.29h4.315v3.567h-4.315v4.427h-3.563v-4.427h-4.428v-3.567h4.428V7.91h3.563v4.298z" fill="#00175C"/><path d="M93.394 6.918V6.75h-.168v.168h.168zm14.137 0h.168V6.75h-.168v.168zM93.394 21.065h-.168v.168h.168v-.168zm14.137 0v.168h.168v-.168h-.168zm-.979-8.857h.168v-.168h-.168v.168zm-4.315 0h-.168v.168h.168v-.168zm4.315 3.567v.168h.168v-.168h-.168zm-4.315 0v-.168h-.168v.168h.168zm0 4.427v.168h.168v-.168h-.168zm-3.563 0h-.168v.168h.168v-.168zm0-4.427h.168v-.168h-.168v.168zm-4.428 0h-.168v.168h.168v-.168zm0-3.567v-.168h-.168v.168h.168zm4.428 0v.168h.168v-.168h-.168zm0-4.298v-.168h-.168v.168h.168zm3.563 0h.168v-.168h-.168v.168zm-8.843-.824h14.137V6.75H93.394v.336zm.168 13.979V6.918h-.336v14.147h.336zm13.969-.168H93.394v.336h14.137v-.336zm-.168-13.979v14.147h.336V6.918h-.336zm-.811 5.122h-4.315v.336h4.315v-.336zm.168 3.735v-3.567h-.336v3.567h.336zm-4.483.168h4.315v-.336h-4.315v.336zm.168 4.259v-4.427h-.336v4.427h.336zm-3.73.168h3.562v-.336h-3.563v.336zm-.169-4.595v4.427h.336v-4.427h-.336zm-4.26.168h4.428v-.336h-4.428v.336zm-.168-3.735v3.567h.336v-3.567h-.336zm4.596-.168h-4.428v.336h4.428v-.336zm-.168-4.13v4.298h.336V7.91h-.336zm3.731-.168h-3.563v.336h3.563v-.336zm.168 4.466V7.91h-.336v4.298h.336z" fill="#00175C"/></svg>