<svg width="123" height="27" fill="none" xmlns="http://www.w3.org/2000/svg"><path d="M97.512 4.798c0-.878.65-1.533 1.492-1.533.825 0 1.475.655 1.475 1.533 0 .878-.65 1.533-1.475 1.533-.841 0-1.492-.655-1.492-1.533zm1.492 1.837c.999 0 1.84-.783 1.84-1.837a1.824 1.824 0 00-1.84-1.836c-1 0-1.857.782-1.857 1.836s.857 1.837 1.856 1.837zm-.381-1.693h.365l.555.91h.349l-.587-.926c.301-.032.54-.208.54-.575 0-.431-.254-.607-.746-.607h-.81v2.108h.334v-.91zm0-.272v-.654h.428c.222 0 .46.048.46.303 0 .336-.238.351-.507.351h-.381zM18.331 7.449H7.463c-1.222 0-2.348.495-3.205 1.357a4.393 4.393 0 00-1.253 3.147c-.016 1.225.428 2.381 1.27 3.23a4.235 4.235 0 003.061 1.25h6.727c1.444.01 2.523 1.04 2.539 2.449-.016 1.359-1.174 2.52-2.555 2.537H2.926v2.346h11.137c2.634-.035 4.823-2.226 4.87-4.883-.047-2.732-2.141-4.773-4.87-4.795H7.32a1.92 1.92 0 01-1.396-.56c-.397-.398-.603-.957-.603-1.574 0-.58.206-1.103.603-1.502a2.164 2.164 0 011.555-.655h10.852V7.449zm19.863-.079v11.072a3.13 3.13 0 01-.92 2.224 3.015 3.015 0 01-2.174.893c-1.682.013-3.062-1.396-3.11-3.143V7.37h-2.316v11.097a2.988 2.988 0 01-.857 2.177 3.07 3.07 0 01-2.237.915 2.846 2.846 0 01-2.078-.867 3.06 3.06 0 01-.889-2.233V7.37h-2.332v11.073a5.484 5.484 0 001.555 3.902c1.015 1.018 2.332 1.57 3.744 1.559a5.332 5.332 0 003.887-1.613c.143-.147.286-.303.413-.464 1 1.277 2.522 2.091 4.22 2.077a5.338 5.338 0 003.824-1.573 5.383 5.383 0 001.586-3.888V7.37h-2.316zm18.071-.065h-5.093c-4.585-.064-8.377 3.621-8.44 8.213.063 4.735 3.855 8.543 8.44 8.523a7.447 7.447 0 002.76-.48v-2.419h-.269l-.222.106a5.079 5.079 0 01-2.237.448c-3.364.015-6.108-2.756-6.156-6.176.048-3.323 2.729-5.916 6.108-5.868h3.935v14.047h2.332V7.305h-1.158zm9.612 14.253a2.912 2.912 0 01-2.063-.891 2.674 2.674 0 01-.761-1.921V9.652h5.569V7.305h-5.57V3.089h-2.316v15.628c-.047 1.314.46 2.595 1.413 3.579a5.169 5.169 0 003.728 1.606h3.3v-2.344h-3.3z" fill="#000"/><path d="M82.823 18.099a6.005 6.005 0 01-5.52 3.596 6.052 6.052 0 01-4.364-1.798 6.03 6.03 0 01-1.76-4.355c-.033-3.358 2.728-6.116 6.123-6.163 1.968.047 3.729.974 4.807 2.535l1.92-1.338c-1.507-2.187-3.95-3.48-6.71-3.545-4.729.064-8.505 3.887-8.473 8.511a8.37 8.37 0 002.443 6.01 8.35 8.35 0 006.013 2.487c3.284.02 6.299-1.936 7.647-4.984l-2.126-.956zM93.624 7.033c-1.73-.031-3.411.607-4.728 1.805V3.089h-2.332V23.7h2.332v-9.563a4.704 4.704 0 011.38-3.398c.905-.894 2.095-1.39 3.348-1.357 2.681-.048 4.855 2.103 4.902 4.792V23.7h2.333v-9.547c-.064-4.005-3.316-7.182-7.235-7.119z" fill="#000"/><path fill-rule="evenodd" clip-rule="evenodd" d="M120.04 7.783h-15.802v15.915h15.802V7.783zm-5.918 5.951h4.823v4.013h-4.823v4.98h-3.982v-4.98h-4.95v-4.013h4.95V8.9h3.982v4.835z" fill="#000"/><path d="M104.238 7.783v-.168h-.168v.168h.168zm15.802 0h.168v-.168h-.168v.168zm-15.802 15.915h-.168v.168h.168v-.168zm15.802 0v.168h.168v-.168h-.168zm-1.095-9.964h.168v-.168h-.168v.168zm-4.823 0h-.168v.168h.168v-.168zm4.823 4.013v.168h.168v-.168h-.168zm-4.823 0v-.168h-.168v.168h.168zm0 4.98v.168h.168v-.168h-.168zm-3.982 0h-.168v.168h.168v-.168zm0-4.98h.168v-.168h-.168v.168zm-4.95 0h-.168v.168h.168v-.168zm0-4.013v-.168h-.168v.168h.168zm4.95 0v.168h.168v-.168h-.168zm0-4.835V8.73h-.168v.168h.168zm3.982 0h.168V8.73h-.168v.168zm-9.884-.948h15.802v-.336h-15.802v.336zm.168 15.747V7.783h-.336v15.915h.336zm15.634-.168h-15.802v.336h15.802v-.336zm-.168-15.747v15.915h.336V7.783h-.336zm-.927 5.783h-4.823v.336h4.823v-.336zm.168 4.18v-4.012h-.336v4.013h.336zm-4.991.169h4.823v-.336h-4.823v.336zm.168 4.812v-4.98h-.336v4.98h.336zm-4.15.168h3.982v-.336h-3.982v.336zm-.168-5.148v4.98h.336v-4.98h-.336zm-4.782.168h4.95v-.336h-4.95v.336zm-.168-4.18v4.012h.336v-4.013h-.336zm5.118-.169h-4.95v.336h4.95v-.336zm-.168-4.667v4.835h.336V8.9h-.336zm4.15-.168h-3.982v.336h3.982V8.73zm.168 5.003V8.9h-.336v4.835h.336z" fill="#000"/></svg>