<svg width="114" height="25" fill="none" xmlns="http://www.w3.org/2000/svg"><g clip-path="url(#clip0_608_702)" fill="#000"><path d="M47.535 5.728v14.4h-2.5v-11.3h-.033l-4.467 11.3H38.87l-4.567-11.3h-.033v11.3h-2.3v-14.4h3.6l4.133 10.667h.066l4.367-10.667h3.4zm2.066 1.1c0-.4.134-.733.434-1 .3-.266.633-.4 1.033-.4.433 0 .8.134 1.067.4.266.267.433.6.433 1s-.133.734-.433 1c-.3.267-.634.4-1.067.4-.433 0-.767-.133-1.033-.4-.267-.3-.434-.633-.434-1zm2.7 2.967v10.333h-2.433V9.795h2.433zm7.367 8.567c.366 0 .766-.067 1.2-.267.433-.167.833-.4 1.2-.667v2.267c-.4.233-.834.4-1.334.5-.5.1-1.033.167-1.633.167-1.533 0-2.767-.467-3.7-1.434-.966-.966-1.433-2.2-1.433-3.666 0-1.667.5-3.034 1.466-4.1.967-1.067 2.334-1.6 4.134-1.6.466 0 .933.066 1.366.166.467.1.834.267 1.1.4v2.334c-.366-.267-.766-.5-1.133-.634-.4-.133-.8-.233-1.2-.233-.967 0-1.733.3-2.333.933-.6.634-.867 1.467-.867 2.534 0 1.033.3 1.866.867 2.433.566.567 1.333.867 2.3.867zm9.3-8.734a2.64 2.64 0 01.933.134v2.466c-.134-.1-.3-.2-.567-.266-.267-.067-.533-.134-.9-.134-.6 0-1.1.267-1.5.767-.4.5-.633 1.267-.633 2.333v5.2h-2.434V9.795h2.434v1.633h.033c.233-.566.567-1 1-1.333.467-.3 1-.467 1.633-.467zm1.066 5.5c0-1.7.5-3.066 1.433-4.066.967-1 2.3-1.5 4-1.5 1.6 0 2.867.466 3.767 1.433.9.967 1.366 2.267 1.366 3.9 0 1.667-.5 3-1.433 4-.967 1-2.267 1.5-3.933 1.5-1.6 0-2.867-.467-3.8-1.4-.933-.967-1.4-2.267-1.4-3.867zm2.533-.1c0 1.067.234 1.9.734 2.467.5.567 1.2.867 2.1.867.866 0 1.566-.267 2.033-.867.466-.567.7-1.4.7-2.533 0-1.1-.234-1.934-.7-2.534-.467-.566-1.167-.866-2-.866-.9 0-1.567.3-2.067.9-.567.633-.8 1.466-.8 2.566zm11.666-2.5c0 .334.1.634.334.834.233.2.7.433 1.466.733.967.4 1.667.833 2.034 1.3.4.5.6 1.067.6 1.767 0 .966-.367 1.733-1.134 2.333-.733.6-1.766.867-3.033.867-.433 0-.9-.067-1.433-.167a5.772 5.772 0 01-1.333-.4v-2.4c.433.3.933.567 1.433.733.5.167.966.267 1.4.267.533 0 .966-.067 1.2-.233.266-.167.4-.4.4-.767 0-.333-.134-.6-.4-.867-.267-.233-.8-.5-1.534-.8-.9-.366-1.533-.8-1.9-1.266-.366-.467-.566-1.067-.566-1.8 0-.934.367-1.7 1.1-2.3.733-.6 1.7-.9 2.866-.9.367 0 .767.033 1.2.133.434.1.834.2 1.134.3v2.367c-.334-.2-.7-.4-1.134-.567a3.527 3.527 0 00-1.266-.233c-.467 0-.834.1-1.067.266-.233.234-.367.467-.367.8zm5.467 2.6c0-1.7.5-3.066 1.433-4.066.967-1 2.3-1.5 4-1.5 1.6 0 2.867.466 3.767 1.433.9.967 1.366 2.267 1.366 3.9 0 1.667-.5 3-1.433 4-.967 1-2.267 1.5-3.933 1.5-1.6 0-2.867-.467-3.8-1.4-.9-.967-1.4-2.267-1.4-3.867zm2.533-.1c0 1.067.233 1.9.733 2.467.5.567 1.2.867 2.1.867.867 0 1.567-.267 2.034-.867.466-.567.7-1.4.7-2.533 0-1.1-.234-1.934-.7-2.534-.467-.566-1.167-.866-2-.866-.9 0-1.567.3-2.067.9-.533.633-.8 1.466-.8 2.566zm16.133-3.233h-3.633v8.333h-2.467v-8.333h-1.733v-2h1.733V8.362c0-1.067.367-1.967 1.067-2.667.7-.7 1.6-1.033 2.7-1.033.3 0 .566.033.8.033.233 0 .433.067.6.133v2.1a4.143 4.143 0 00-.434-.166c-.2-.067-.433-.1-.7-.1-.5 0-.9.166-1.166.466-.267.3-.4.8-.4 1.4v1.234h3.633V7.428l2.433-.733v3.067h2.467v2h-2.467v4.833c0 .633.133 1.067.333 1.333.234.267.6.4 1.1.4.134 0 .3-.033.5-.1.2-.066.367-.133.5-.233v2c-.166.1-.4.167-.766.233-.367.067-.7.1-1.067.1-1.033 0-1.8-.266-2.3-.8-.5-.533-.767-1.366-.767-2.466l.034-5.267zM12.136.927H.736v11.4h11.4V.927zm12.601 0h-11.4v11.4h11.4V.927zM12.136 13.529H.736v11.4h11.4v-11.4zm12.601 0h-11.4v11.4h11.4v-11.4z"/></g><defs><clipPath id="clip0_608_702"><path fill="#fff" transform="translate(.736 .927)" d="M0 0h112.529v24H0z"/></clipPath></defs></svg>