<svg width="154" height="25" fill="none" xmlns="http://www.w3.org/2000/svg"><path d="M23.976 14.315c.016-.318.053-.333 1.14-.465l1.037-.125.045-.251c.053-.296.05-6.112-.004-9.592l-.039-2.443-.284-.084c-.157-.045-.623-.107-1.037-.136-.765-.055-.859-.09-.861-.334-.001-.103.179-.11 2.901-.11 4.328 0 5.571.136 6.75.741.867.445 1.46 1.224 1.533 2.012.065.72-.252 1.777-.749 2.492-.714 1.028-2.222 1.981-3.76 2.374-.9.23-1.043.246-1.043.113.003-.315.07-.376.667-.61.746-.293 1.24-.608 1.633-1.041.642-.708.891-1.48.852-2.633-.023-.653-.045-.763-.227-1.149-.497-1.052-1.554-1.61-3.242-1.712l-.682-.04-.054.275c-.062.311-.052 9.988.011 11.26.039.774.05.827.178.862.075.02.62.082 1.212.135.591.054 1.111.11 1.155.124.043.014.079.097.079.184v.159h-2.838c-1.561 0-3.184.018-3.608.04-.639.035-.768.027-.765-.046zm23.49-.075c0-.078.022-.171.047-.207.026-.036.377-.101.78-.144.404-.043.871-.111 1.038-.152.304-.075.304-.075.345-.386.09-.67.022-11.657-.073-11.809-.023-.038-.493-.125-1.043-.195-.55-.07-1.005-.131-1.011-.137a1.335 1.335 0 01-.054-.182l-.043-.17h2.921c1.607 0 3.143-.02 3.412-.042l.49-.041-.044.181c-.025.1-.065.2-.089.224-.023.023-.488.095-1.033.16-.545.066-1.012.14-1.038.166-.064.064-.09 8.678-.031 10.599l.047 1.557.314.077a9.35 9.35 0 001.03.138c.395.034.725.07.735.08.01.01.036.087.057.173l.04.155-3.258.014c-1.791.008-3.32.03-3.398.048-.116.028-.142.008-.14-.107zm31.569.292c-1.085-.876-3.017-2.933-5.491-5.844-.27-.317-.516-.577-.547-.577-.212 0-2.752 3.842-3.454 5.223l-.195.385.612.102c.337.056.702.116.812.132.185.028.274.124.273.297 0 .054-.652.075-2.553.08l-2.553.007.04-.132c.065-.217.161-.268.652-.345.651-.101.823-.2 1.368-.778.65-.692 3.794-4.612 4.46-5.562.043-.061-.063-.228-.383-.605-.243-.287-1.109-1.406-1.924-2.487-.815-1.082-1.679-2.192-1.919-2.466-.415-.475-.457-.505-.844-.605a3.612 3.612 0 00-.644-.11c-.209-.003-.236-.022-.236-.16a.67.67 0 00-.016-.18c-.008-.013 1.367-.04 3.056-.06 2.87-.033 3.072-.029 3.07.071-.001.205-.097.249-.756.351-.365.057-.741.123-.837.149l-.173.046.43.654c.856 1.303 2.58 3.677 2.674 3.68.133.007 2.366-3.121 2.886-4.043.19-.335.176-.346-.641-.488-.57-.099-.611-.116-.64-.267a.694.694 0 01-.022-.171c.006-.006 1.053-.02 2.327-.032l2.317-.022-.04.187a1.732 1.732 0 01-.05.2c-.005.005-.29.067-.633.137-.606.122-.635.136-.967.457-.392.379-2.064 2.252-3.27 3.664l-.82.961.491.626c.489.621.704.917 2.987 4.1.972 1.357 2.414 3.32 2.693 3.668.05.062-.067.078-.54.078h-.603l-.397-.32zm50.706-.136c-1.057-.778-3.308-2.999-5.551-5.479l-.899-.993-.909.038c-.5.02-.932.058-.96.082-.06.055.02 5.37.083 5.471.06.098.405.165 1.296.252.733.072.765.08.802.229.022.085.031.162.021.171-.011.01-1.522.028-3.359.04l-3.339.023c-.009-.123.003-.226.078-.325.043-.032.515-.107 1.049-.166.542-.06.99-.138 1.014-.178.025-.039.065-.31.09-.602.05-.593-.022-11.104-.078-11.383-.045-.222-.262-.292-1.056-.339-1.06-.062-1.097-.072-1.097-.28V.776l2.273.002c6.324.007 7.736.218 8.728 1.306.618.677.682 1.57.184 2.577-.371.75-1.349 1.764-2.135 2.211l-.326.185.227.386c.324.552 2.12 3.213 2.861 4.239.747 1.034 1.14 1.535 1.838 2.34l.52.6-.396.068a8.813 8.813 0 01-.431.068c-.02 0-.258-.163-.528-.361zm-6.643-7.166c.873-.173 1.456-.467 2.017-1.017.515-.504.738-.911.881-1.607.296-1.438-.653-2.629-2.46-3.087-.69-.175-1.948-.293-2.05-.192-.057.057-.081.823-.097 3.094l-.021 3.019.554-.044c.305-.023.834-.098 1.176-.166zm-33.054 6.91c.032-.22-.026-.2 1.022-.362l.725-.112.234-.438c.449-.836 1.39-3.13 3.308-8.054.78-2.007 1.414-3.727 1.383-3.758-.015-.015-.307-.07-.649-.122-.951-.145-.905-.129-.904-.32V.802l3.001-.02c2.767-.018 2.998-.012 2.962.083a.616.616 0 00-.04.18c0 .05-.254.117-.726.19-.4.062-.74.136-.757.164-.018.027.307 1 .721 2.162 1.509 4.231 2.787 7.48 3.658 9.298l.364.758.307.072c.294.068 1.139.188 1.357.192.064.001.113.069.129.182l.027.18-3.312.028a596.86 596.86 0 01-3.32.022 1.153 1.153 0 01.021-.197l.03-.194.861-.105c1.088-.133 1.164-.152 1.106-.281-.071-.161-.619-1.695-1.006-2.817a70.61 70.61 0 00-.671-1.858l-.317-.827h-.354c-.982 0-4.2.199-4.266.264-.137.135-1.02 3.291-1.254 4.481-.088.447-.16.823-.16.836 0 .048.302.113 1.008.216.712.104.725.11.745.276l.02.17-2.32.001c-1.276 0-2.465.018-2.641.04l-.321.037.029-.195zm9.277-6.844a3.992 3.992 0 00-.156-.34c-.09-.174-.895-2.484-1.523-4.37a16.28 16.28 0 00-.3-.862c-.075-.074-2.117 5.338-2.117 5.611 0 .03.716.061 1.592.071.875.01 1.81.024 2.077.032l.487.015-.06-.157zM.868 24.216c.009-.033.021-.037.21-.066.299-.047.266-.026.349-.218.11-.257.286-.696.526-1.319.26-.673.766-2.013.772-2.043.004-.018-.038-.029-.21-.056a15.212 15.212 0 01-.218-.036l-.01-.037-.009-.035h1.48l-.004.035c-.004.035-.012.037-.205.07-.11.017-.206.037-.21.042-.006.005.043.173.108.372.348 1.068.862 2.423 1.154 3.037l.065.138.08.016c.044.01.151.027.238.04.148.022.159.026.168.059l.01.036h-.81c-.446 0-.81-.005-.81-.012 0-.047.03-.063.14-.073a3.02 3.02 0 00.42-.064c.012-.008-.016-.108-.109-.38a42.28 42.28 0 00-.408-1.158l-.047-.12-.332.01c-.333.01-.716.03-.911.046l-.104.01-.071.222c-.215.67-.386 1.336-.352 1.368.015.014.303.072.358.072.026 0 .04.01.05.037a.51.51 0 01.015.039c0 .001-.3.003-.666.003H.859l.009-.035zm2.63-1.899c0-.025-.372-1.09-.503-1.44l-.09-.24-.025.048a16.48 16.48 0 00-.344.874c-.212.566-.265.718-.253.73.006.006.216.014.466.019l.602.01c.081.002.147.001.147 0zm10.3 1.266c-.8-.99-2.115-2.594-2.178-2.656l-.034-.034.009.728c.018 1.534.047 2.443.078 2.462.018.011.186.032.43.055l.181.017c.002 0 .006.017.011.035l.009.034h-.735c-.607 0-.734-.003-.728-.018a.116.116 0 00.007-.034c0-.012.06-.025.183-.04.222-.03.28-.044.289-.075.028-.093.07-1.184.105-2.714.01-.467.01-.627-.002-.634-.018-.011-.093-.02-.367-.047a2.868 2.868 0 01-.2-.023.227.227 0 01-.013-.04l-.008-.035.312-.009c.171-.005.41-.012.531-.017l.22-.008.103.14c.262.36.89 1.158 1.73 2.196.313.388.597.741.63.784l.062.079.004-.31c.01-.683-.031-2.496-.06-2.67-.008-.05-.01-.05-.093-.065a7.677 7.677 0 00-.29-.037 10.178 10.178 0 01-.209-.024.21.21 0 01-.01-.036l-.01-.034h.708c.7 0 .707 0 .699.027a.118.118 0 01-.017.037 1.765 1.765 0 01-.214.045 3.87 3.87 0 00-.212.041c-.01.01-.04.337-.056.598a68.3 68.3 0 00-.055 2.21c-.008.52-.017.968-.018.996-.003.05-.024.026-.792-.924zm66.266-.003a202.933 202.933 0 00-2.211-2.695l-.035-.035.009.739c.018 1.557.048 2.48.08 2.499.018.011.188.033.436.056l.184.017a.21.21 0 01.01.036l.01.035H77.8c-.616 0-.745-.003-.74-.019a.119.119 0 00.008-.035c0-.012.06-.025.186-.04.225-.03.284-.045.293-.076.028-.095.071-1.202.106-2.755.011-.474.01-.636-.001-.644-.019-.01-.095-.02-.373-.047a2.84 2.84 0 01-.204-.024.237.237 0 01-.012-.04l-.009-.036.317-.009.54-.017.222-.008.105.143c.266.364.904 1.174 1.756 2.228.318.394.606.752.64.796l.062.08.005-.315c.01-.693-.032-2.534-.061-2.71-.008-.05-.01-.052-.095-.066a7.616 7.616 0 00-.294-.038 10.79 10.79 0 01-.212-.024.2.2 0 01-.01-.036l-.01-.035h.718c.712 0 .718 0 .71.028a.122.122 0 01-.017.037 1.757 1.757 0 01-.218.046 2.84 2.84 0 00-.215.042c-.01.01-.04.342-.056.606-.02.311-.037 1.01-.057 2.243-.008.528-.016.983-.018 1.012-.002.05-.024.026-.803-.939zm-58.786.684a.48.48 0 01.013-.038c.011-.029.023-.035.066-.036.077-.001.484-.06.496-.072.038-.039.041-3.354.002-3.392-.007-.007-.106-.022-.48-.073-.064-.008-.076-.015-.084-.044l-.01-.034h.806c.798 0 .805 0 .796.027a.12.12 0 01-.017.037 2.759 2.759 0 01-.28.046l-.272.037-.011.077c-.015.1-.014 3.08 0 3.218.014.125-.019.11.32.152.25.03.26.034.268.09a64.936 64.936 0 01-1.613.004zm7.833-.005a.12.12 0 00.007-.036c0-.012.05-.025.156-.041.244-.037.257-.041.273-.101.066-.248.236-3.295.236-3.358 0-.014-.09-.032-.298-.062a5.838 5.838 0 01-.169-.025.221.221 0 01-.01-.036l-.01-.034h.688c.567 0 .686.003.68.018a.117.117 0 00-.007.035c0 .01-.064.03-.166.05a1.534 1.534 0 00-.182.042c-.013.008 0 .061.05.208.198.588 1.115 2.521 1.145 2.55.004.005.01.006.014.003.022-.024 1.338-2.724 1.338-2.757 0-.008-.108-.032-.242-.054-.137-.023-.16-.033-.16-.075 0-.017.08-.02.638-.02.526 0 .637.003.63.018a.12.12 0 00-.006.036c0 .012-.051.025-.156.041-.086.013-.182.03-.213.037l-.056.014.02.106c.08.44.07 3.02.134 3.263.016.06.031.065.263.1.14.022.18.04.18.081 0 .01-.23.015-.746.015h-.746l.005-.036c.005-.035.01-.037.113-.046.164-.014.456-.056.467-.067.012-.012.003-.26-.016-.964-.015-.56.01-2.05-.01-2.117l-.012-.041-.038.082c-.065.142-.434.75-.871 1.682-.439.932-.61 1.36-.643 1.424l-.021.04-.018-.034c-.022-.041-.478-1.228-.955-2.372a6.422 6.422 0 00-.456-.883c-.012-.014.014-.003.024.713.012.745-.04 1.192-.044 1.723-.003.318-.036.732-.021.747.005.006.136.026.29.045.274.035.279.036.288.07l.01.035h-.692c-.57-.001-.69-.004-.685-.02zm65.526.458a9.22 9.22 0 00.086-1.185l.01-.44.05.016.05.017.008.177c.014.304.022.35.079.445.066.111.236.27.357.332a.88.88 0 00.455.112.86.86 0 00.434-.098c.307-.152.453-.493.362-.846-.064-.248-.196-.387-.658-.693-.409-.27-.563-.388-.698-.531-.284-.3-.35-.663-.182-.998a.882.882 0 01.424-.42c.185-.09.295-.113.56-.113.253 0 .445.03.602.096l.105.041c.019.006.03-.03.068-.22l.045-.227.047-.009a.161.161 0 01.053-.004c.002.003-.007.095-.022.204-.045.338-.082.724-.091.957-.008.208-.01.223-.034.216-.084-.023-.077-.005-.084-.223-.007-.259-.03-.315-.188-.469a.78.78 0 00-.377-.215 1.25 1.25 0 00-.472.013c-.295.094-.456.311-.437.59.018.258.144.387.77.788.332.214.472.32.603.457.167.174.258.34.298.543.025.127.01.397-.028.518-.132.415-.477.689-.969.77-.243.04-.646.007-.904-.073a.647.647 0 00-.112-.03 6.582 6.582 0 00-.055.252c-.066.31-.06.29-.095.3-.064.016-.07.012-.06-.05zm-26.07-.382c-.508-.061-.88-.232-1.199-.55a1.679 1.679 0 01-.502-.925 2.505 2.505 0 01.007-.762c.088-.407.26-.721.559-1.018.5-.497 1.134-.703 1.945-.634.321.028.586.097.832.22.523.259.855.677.973 1.225.029.134.033.458.007.635-.142.997-.898 1.7-1.949 1.815-.177.02-.486.017-.673-.006zm.923-.21c.664-.107 1.13-.559 1.278-1.24a2.22 2.22 0 00.007-.722 1.943 1.943 0 00-1.504-1.503 2.414 2.414 0 00-.775.007c-.813.179-1.282.755-1.282 1.572 0 .683.438 1.37 1.085 1.704.376.193.753.25 1.19.181zm53.509.153c0-.004.006-.021.013-.04.012-.03.022-.033.135-.042.179-.013.396-.05.416-.069.055-.052.06-3.34.005-3.395a3.418 3.418 0 00-.458-.072c-.089-.01-.11-.022-.111-.062 0-.018.146-.02 1.227-.02 1.278 0 1.286 0 1.66.063.459.075.77.217 1.038.47.139.133.219.24.291.394.108.227.143.465.112.758-.077.75-.514 1.35-1.231 1.69-.388.184-.787.28-1.311.316-.2.014-1.786.021-1.786.009zm2.06-.187c.535-.056 1.043-.28 1.377-.609a1.62 1.62 0 00.431-.729c.034-.124.036-.155.036-.408s-.002-.284-.036-.41a1.657 1.657 0 00-.243-.502c-.365-.478-1.006-.7-2.035-.703a6.09 6.09 0 00-.43.01l-.106.011-.008.05c-.004.028-.015.415-.024.86-.013.619-.013.977 0 1.534.009.399.019.748.024.775.009.058.027.066.24.102a2.8 2.8 0 00.774.019zm-74.902.055a.165.165 0 01.01-.034l.322-.035a3.24 3.24 0 00.33-.044 3.65 3.65 0 00.018-.365c.011-.454.011-2.436 0-2.709l-.008-.206-.31.001c-.425.002-.733.033-.974.1-.127.034-.174.06-.19.098a2.04 2.04 0 00-.04.19c-.054.306-.05.294-.097.31a.14.14 0 01-.045.01 5.236 5.236 0 01.021-.27c.032-.342.054-.69.054-.85v-.126l.044.01.043.008.01.124c.004.068.012.144.016.168l.009.044.117.008c.694.05 2.727.048 3.245-.003l.087-.009.03-.12a1.16 1.16 0 00.03-.155c.001-.024.01-.037.032-.043.056-.015.08-.01.072.015-.013.043-.062.406-.11.822-.026.227-.05.415-.052.418-.003.003-.024.002-.046-.003l-.04-.009.002-.289.002-.29-.087-.028c-.191-.063-.67-.12-1.112-.134l-.271-.008-.01.226a84.504 84.504 0 000 2.647l.01.422.036.007c.02.003.169.02.331.036l.298.031c.002.001.006.017.011.035l.008.033h-1.805l.008-.033zm64.493.042c-.531-.08-.909-.39-1.075-.881-.088-.258-.087-.248-.099-1.423a31.566 31.566 0 00-.02-1.112c-.01-.047-.013-.048-.264-.09-.131-.022-.152-.033-.153-.072 0-.017.087-.02.703-.02.615 0 .702.003.702.02a.08.08 0 01-.01.034c-.005.008-.128.03-.273.048a3.41 3.41 0 00-.27.041c-.015.015-.032.944-.026 1.453.007.584.017.704.083.957.143.544.486.857.981.893.277.02.53-.02.733-.118.232-.111.41-.354.483-.662.039-.161.048-.267.057-.643.007-.344-.012-1.867-.024-1.879a5.767 5.767 0 00-.456-.066c-.085-.008-.095-.011-.107-.043l-.013-.035h1.317l-.012.035c-.011.032-.024.036-.186.069a.797.797 0 00-.184.05c-.017.027-.029.686-.022 1.245.008.598-.001.805-.043 1.028-.129.676-.576 1.096-1.252 1.177a2.61 2.61 0 01-.57-.006zm-74.799.028c.009-.033.022-.037.21-.066.299-.047.266-.026.349-.218.111-.257.286-.696.526-1.319.26-.673.766-2.013.772-2.043.004-.018-.038-.029-.21-.056a15.449 15.449 0 01-.218-.036l-.01-.037-.009-.035h1.48l-.004.035c-.004.035-.012.037-.205.07a1.62 1.62 0 00-.21.042 3.38 3.38 0 00.109.372c.347 1.068.862 2.423 1.153 3.037l.066.138.08.016c.043.01.15.027.237.04.148.022.159.026.168.059l.01.036h-.81c-.446 0-.81-.005-.81-.012 0-.047.03-.063.14-.073.149-.013.398-.051.42-.064.012-.008-.016-.108-.108-.38-.15-.442-.345-.992-.41-1.158l-.046-.12-.332.01c-.333.01-.716.03-.91.046l-.105.01-.071.222c-.215.67-.386 1.336-.352 1.368.016.014.303.072.358.072.026 0 .04.01.05.037a.51.51 0 01.015.039c0 .001-.3.003-.666.003h-.666l.01-.035zm2.63-1.899c0-.025-.372-1.09-.503-1.44l-.09-.24-.025.048c-.037.073-.17.412-.344.874-.212.566-.265.718-.253.73.006.006.216.014.466.019l.602.01c.081.002.148.001.148 0zm16.595 1.947a.48.48 0 01.013-.038c.011-.029.023-.035.066-.036.077-.001.484-.06.496-.072.038-.039.041-3.354.003-3.392-.008-.007-.107-.022-.48-.073-.065-.008-.077-.015-.085-.044l-.01-.034h.806c.798 0 .805 0 .796.027a.119.119 0 01-.017.037 2.759 2.759 0 01-.28.046l-.272.037-.011.077c-.015.1-.014 3.08 0 3.218.014.125-.019.11.32.152.25.03.26.034.268.09a64.936 64.936 0 01-1.613.004zm45.109-.118c.005-.018.009-.034.011-.034l.322-.035c.176-.019.324-.038.329-.044.006-.005.014-.17.019-.365.011-.454.011-2.436 0-2.709l-.009-.206-.309.001c-.426.002-.734.033-.974.1-.127.034-.175.06-.19.098a2.517 2.517 0 00-.04.19c-.055.306-.051.294-.097.31a.142.142 0 01-.046.01 6.419 6.419 0 01.022-.27c.031-.342.053-.69.053-.85v-.126l.044.01.044.008.009.124c.005.068.012.144.017.168l.008.044.117.008c.694.05 2.728.048 3.245-.003l.088-.009.03-.12a1.16 1.16 0 00.03-.155c.001-.024.01-.037.031-.043.057-.015.08-.01.072.015-.013.043-.061.406-.109.822-.026.227-.05.415-.053.418-.003.003-.023.002-.045-.003l-.04-.009.002-.289.002-.29-.088-.028c-.191-.063-.669-.12-1.111-.134l-.271-.008-.011.226a82.996 82.996 0 000 2.647l.011.422.035.007c.02.003.169.02.332.036l.298.031a.25.25 0 01.011.035l.008.033h-1.805l.008-.033zm38.728.189c-.507-.061-.88-.232-1.198-.55a1.674 1.674 0 01-.503-.925 2.496 2.496 0 01.007-.762 1.94 1.94 0 01.559-1.018c.5-.497 1.134-.703 1.945-.634.322.028.586.097.832.22.523.259.856.677.973 1.225.029.134.033.458.008.635-.143.997-.899 1.7-1.949 1.815-.178.02-.487.017-.674-.006zm.923-.21c.665-.107 1.131-.559 1.278-1.24.041-.19.045-.545.007-.722a1.943 1.943 0 00-1.503-1.503 2.413 2.413 0 00-.775.007c-.813.179-1.283.755-1.283 1.572 0 .683.438 1.37 1.085 1.704.376.193.754.25 1.191.181zm-10.414.139l.014-.038c.011-.029.022-.035.065-.036.077-.001.484-.06.496-.072.039-.039.042-3.354.003-3.392-.007-.007-.107-.022-.48-.073-.065-.008-.077-.015-.084-.044l-.01-.034h.805c.799 0 .805 0 .797.027a.126.126 0 01-.017.037 2.755 2.755 0 01-.281.046l-.272.037-.011.077c-.014.1-.014 3.08.001 3.218.013.125-.019.11.32.152.249.03.259.034.267.09a64.9 64.9 0 01-1.613.004zm18.263.453a9.07 9.07 0 00.086-1.185l.01-.44.05.016.049.017.009.177c.014.304.022.35.079.445a1.1 1.1 0 00.357.332c.161.083.28.113.455.112a.861.861 0 00.434-.098c.307-.152.453-.493.362-.846-.064-.248-.196-.387-.658-.693-.409-.27-.563-.388-.698-.531-.284-.3-.349-.663-.181-.998a.877.877 0 01.423-.42c.186-.09.295-.113.56-.113.253 0 .445.03.602.096l.105.041c.019.006.03-.03.068-.22l.045-.227.047-.009a.141.141 0 01.053-.004 1.82 1.82 0 01-.022.204 11.78 11.78 0 00-.091.957c-.008.208-.01.223-.034.216-.084-.023-.077-.005-.083-.223-.008-.259-.031-.315-.189-.469a.779.779 0 00-.377-.215 1.254 1.254 0 00-.472.013c-.295.094-.456.311-.437.59.018.258.144.387.77.788.333.214.472.32.603.457.167.174.258.34.298.543.025.127.011.397-.028.518-.132.415-.477.689-.969.77-.243.04-.646.007-.904-.073a.657.657 0 00-.112-.03 5.973 5.973 0 00-.055.252c-.065.31-.059.29-.095.3-.063.016-.069.012-.06-.05z" fill="#000"/></svg>