<svg width="80" height="24" fill="none" xmlns="http://www.w3.org/2000/svg"><g clip-path="url(#clip0_413_596)" fill="#00175C"><path d="M49.494 18.748c-4.615 3.402-11.304 5.217-17.064 5.217-8.075 0-15.346-2.987-20.846-7.955-.432-.391-.045-.923.474-.62 5.936 3.454 13.275 5.532 20.856 5.532 5.113 0 10.738-1.058 15.91-3.253.78-.332 1.434.512.67 1.079z"/><path d="M51.416 16.554c-.587-.753-3.9-.356-5.386-.18-.453.056-.522-.338-.114-.622 2.638-1.856 6.966-1.32 7.471-.698.505.626-.131 4.964-2.61 7.035-.38.318-.743.149-.574-.273.557-1.39 1.805-4.504 1.213-5.262zm-5.282-13.91V.839c0-.273.207-.456.456-.456h8.08a.45.45 0 01.466.456v1.546c-.003.259-.22.598-.608 1.133L50.34 9.496c1.556-.038 3.198.194 4.609.989.318.18.404.442.428.702v1.925c0 .263-.29.57-.594.412-2.486-1.304-5.788-1.446-8.536.013-.28.152-.574-.152-.574-.415v-1.828c0-.294.004-.796.297-1.242l4.85-6.955H46.6c-.26 0-.467-.184-.467-.453zM16.662 13.905h-2.458a.464.464 0 01-.439-.418V.87c0-.252.211-.452.474-.452h2.292c.238.01.429.193.446.421v1.65h.045C17.62.895 18.744.151 20.258.151c1.538 0 2.5.744 3.19 2.337C24.044.896 25.396.152 26.845.152c1.03 0 2.157.426 2.845 1.38.778 1.061.619 2.603.619 3.955l-.004 7.962c0 .252-.21.456-.473.456h-2.455a.467.467 0 01-.443-.456V6.762c0-.532.049-1.86-.069-2.364-.183-.847-.733-1.086-1.445-1.086-.594 0-1.217.398-1.47 1.034-.251.636-.227 1.7-.227 2.416v6.687a.464.464 0 01-.474.456h-2.454a.465.465 0 01-.443-.456l-.003-6.687c0-1.407.231-3.477-1.515-3.477-1.766 0-1.697 2.019-1.697 3.477v6.687a.464.464 0 01-.474.456zM62.092.152c3.647 0 5.621 3.133 5.621 7.115 0 3.848-2.181 6.9-5.621 6.9-3.582 0-5.532-3.131-5.532-7.035 0-3.927 1.974-6.98 5.532-6.98zm.02 2.576c-1.811 0-1.925 2.468-1.925 4.007 0 1.542-.024 4.833 1.905 4.833 1.905 0 1.995-2.655 1.995-4.273 0-1.065-.045-2.337-.367-3.347-.276-.878-.826-1.22-1.608-1.22zm10.33 11.177h-2.448a.467.467 0 01-.442-.456L69.547.829a.465.465 0 01.474-.41H72.3a.47.47 0 01.44.352v1.93h.044c.688-1.727 1.652-2.55 3.35-2.55 1.103 0 2.178.398 2.87 1.487.642 1.01.642 2.707.642 3.927v7.941a.472.472 0 01-.473.398h-2.465a.466.466 0 01-.436-.398V6.655c0-1.38.16-3.398-1.538-3.398-.598 0-1.148.4-1.421 1.01-.346.77-.39 1.538-.39 2.388v6.794a.473.473 0 01-.481.456zM7.47 7.879v-.532c-1.778 0-3.655.38-3.655 2.475 0 1.061.55 1.78 1.494 1.78.691 0 1.31-.425 1.7-1.116.485-.85.46-1.65.46-2.607zm2.478 5.991a.513.513 0 01-.58.06c-.817-.678-.962-.993-1.411-1.64-1.349 1.376-2.303 1.788-4.052 1.788-2.067 0-3.678-1.276-3.678-3.83 0-1.996 1.082-3.354 2.62-4.018 1.335-.588 3.198-.691 4.622-.854v-.318c0-.584.045-1.276-.297-1.78-.3-.453-.875-.64-1.38-.64-.936 0-1.773.48-1.977 1.476-.041.221-.204.44-.425.45l-2.386-.256c-.2-.045-.421-.208-.366-.515C1.188.903 3.798.03 6.135.03c1.196 0 2.759.318 3.702 1.224 1.197 1.117 1.083 2.607 1.083 4.228v3.83c0 1.152.477 1.657.926 2.279.16.221.194.487-.007.653a111.1 111.1 0 00-1.884 1.632l-.007-.007m29.387-5.99v-.532c-1.777 0-3.654.38-3.654 2.475 0 1.061.55 1.78 1.494 1.78.691 0 1.31-.425 1.7-1.116.484-.85.46-1.65.46-2.607zm2.48 5.991a.513.513 0 01-.582.06c-.816-.678-.96-.993-1.41-1.64-1.349 1.376-2.303 1.788-4.052 1.788-2.067 0-3.678-1.276-3.678-3.83 0-1.996 1.082-3.354 2.62-4.018 1.334-.588 3.198-.691 4.622-.854v-.318c0-.584.045-1.276-.297-1.78-.3-.453-.875-.64-1.38-.64-.936 0-1.773.48-1.977 1.476-.041.221-.204.44-.425.45l-2.386-.256c-.2-.045-.421-.208-.366-.515C33.054.903 35.664.03 38 .03c1.196 0 2.759.318 3.703 1.224 1.196 1.117 1.081 2.607 1.081 4.228v3.83c0 1.152.478 1.657.927 2.279.16.221.194.487-.007.653a111.1 111.1 0 00-1.884 1.632l-.007-.007"/></g><defs><clipPath id="clip0_413_596"><path fill="#fff" transform="translate(.18)" d="M0 0h79.513v24H0z"/></clipPath></defs></svg>