<svg width="88" height="9" viewBox="0 0 88 9" fill="none" xmlns="http://www.w3.org/2000/svg">
<path d="M8.01087 5.0312H10.5217V5.75847C10.5217 6.37385 10.4022 6.82141 10.2228 7.15707C9.9837 7.54868 9.625 7.77245 8.96739 7.94029C8.36957 8.05217 7.29348 8.16406 5.79891 8.16406C4.24457 8.16406 3.1087 8.10812 2.45109 8.05217C1.79348 7.99623 1.25543 7.88434 0.956522 7.71651C0.657609 7.54868 0.418478 7.38085 0.298913 7.10113C0.179348 6.87735 0.0597826 6.48574 0 6.09413V4.19203C0 3.29693 0 2.68155 0.0597826 2.23399C0.119565 1.84238 0.179348 1.56266 0.23913 1.33889C0.478261 0.835391 0.956522 0.555671 1.61413 0.387839C2.33152 0.220007 3.7663 0.164062 5.91848 0.164062C6.99457 0.164062 7.77174 0.164062 8.25 0.220007C8.72826 0.275951 9.14674 0.331895 9.38587 0.499727C9.74457 0.667559 10.0435 0.891335 10.163 1.227C10.3424 1.56266 10.4022 2.01022 10.4022 2.68154V3.07315H7.8913C7.8913 2.79343 7.89131 2.6256 7.83152 2.56966C7.83152 2.45777 7.77174 2.40182 7.71196 2.34588C7.59239 2.28994 7.35326 2.23399 6.99457 2.17805C6.57609 2.1221 6.03804 2.1221 5.20109 2.1221C4.42391 2.1221 3.88587 2.1221 3.58696 2.17805C3.28804 2.17805 3.04891 2.23399 2.92935 2.34588C2.80978 2.45777 2.69022 2.6256 2.63043 2.90532C2.57065 3.18504 2.51087 3.57665 2.51087 4.19203C2.51087 4.75147 2.51087 5.19903 2.57065 5.4228C2.63044 5.64658 2.75 5.81441 2.86957 5.9263C2.98913 6.03819 3.22826 6.09413 3.52717 6.15008C3.82609 6.20602 4.36413 6.20602 5.1413 6.20602C6.09783 6.20602 6.75544 6.20602 7.05435 6.15008C7.35326 6.09413 7.59239 6.03819 7.71196 5.9263C7.95109 5.81441 8.01087 5.47875 8.01087 5.0312V5.0312ZM16.4402 3.63259H22.1793V3.85637C22.1793 4.97525 22.1196 5.75847 22.0598 6.31791C21.9402 7.21301 21.4022 7.77245 20.4457 7.94029C20.0272 7.99623 19.5489 8.05217 19.0109 8.10812C18.4728 8.10812 17.6359 8.16406 16.5 8.16406C15.0652 8.16406 14.1087 8.10812 13.5109 8.05217C12.913 7.99623 12.4348 7.8284 12.1359 7.60462C11.8967 7.43679 11.7174 7.26896 11.5978 7.04518C11.4783 6.82141 11.3587 6.48574 11.3587 6.15008C11.2989 5.81441 11.2989 5.08714 11.2989 4.08015C11.2989 3.35287 11.2989 2.84938 11.3587 2.45777C11.4185 2.1221 11.4783 1.78644 11.5978 1.50672C11.837 0.891335 12.3152 0.555671 13.0924 0.443783C13.9293 0.331895 15.2446 0.220007 16.9783 0.220007C17.9946 0.220007 18.8315 0.220007 19.4293 0.275951C20.0272 0.331895 20.5054 0.387839 20.9239 0.499727C21.5815 0.667559 21.9402 1.11511 22.0598 1.7305C22.1196 2.01022 22.1793 2.45777 22.1793 3.01721H19.6685C19.6685 2.79343 19.6685 2.6256 19.6087 2.56966C19.6087 2.51371 19.5489 2.40182 19.4293 2.34588C19.3098 2.23399 19.0109 2.17805 18.5326 2.17805C18.1141 2.17805 17.5163 2.1221 16.6793 2.1221C15.8424 2.1221 15.1848 2.1221 14.8261 2.17805C14.4674 2.23399 14.2283 2.28994 14.0489 2.40182C13.9293 2.51371 13.8098 2.68155 13.75 2.90532C13.8098 3.1291 13.75 3.52071 13.75 4.08015C13.75 4.75148 13.75 5.19903 13.8098 5.4228C13.8696 5.70252 13.9293 5.87036 14.1087 5.98224C14.2283 6.09413 14.4076 6.15008 14.6467 6.15008C14.8859 6.15008 15.5435 6.20602 16.7391 6.20602C17.875 6.20602 18.5924 6.20602 18.8315 6.15008C19.0707 6.15008 19.25 6.09413 19.4293 6.03819C19.5489 5.98224 19.6087 5.9263 19.6685 5.81441C19.7283 5.70252 19.7283 5.53469 19.7283 5.31092V5.08714H16.4402V3.63259V3.63259ZM22.9565 5.59064H24.0326V5.75847C24.0326 6.20602 24.0924 6.48574 24.1522 6.65357C24.212 6.82141 24.3315 6.93329 24.5109 6.98924C24.8098 7.10113 25.8261 7.15707 27.5 7.15707C28.7554 7.15707 29.5924 7.10113 30.1304 6.98924C30.6685 6.87735 30.9076 6.48574 30.9076 5.81441C30.9076 5.47875 30.8478 5.25497 30.788 5.08714C30.7283 4.91931 30.5489 4.80742 30.3696 4.75147C30.1902 4.69553 29.8913 4.63959 29.5326 4.63959H25.9457C25.288 4.63959 24.6902 4.58364 24.2717 4.47175C23.8533 4.35987 23.5543 4.13609 23.3152 3.91231C23.0761 3.57665 22.8967 3.1291 22.8967 2.51371C22.8967 1.84238 23.0761 1.33889 23.4946 1.00322C23.6739 0.835391 23.913 0.723503 24.1522 0.667559C24.3913 0.611615 24.75 0.499727 25.1685 0.499727C25.8859 0.443783 26.7826 0.387839 27.7391 0.387839C28.6957 0.387839 29.413 0.443783 29.8913 0.499727C30.3696 0.611615 30.788 0.723503 31.087 0.947279C31.3261 1.11511 31.5054 1.33889 31.5652 1.56266C31.625 1.78644 31.6848 2.17805 31.6848 2.68154H30.6087V2.56966C30.6087 2.17805 30.5489 1.95427 30.4891 1.78644C30.4891 1.50672 30.1902 1.33889 29.7717 1.227C29.3533 1.11511 28.6957 1.11511 27.8587 1.11511C26.7826 1.11511 26.0054 1.17106 25.4674 1.227C24.9293 1.28294 24.5707 1.45078 24.3913 1.61861C24.212 1.78644 24.1522 2.06616 24.1522 2.45777C24.1522 2.79343 24.212 3.07315 24.2717 3.18504C24.3315 3.35287 24.5109 3.46476 24.8098 3.52071C25.1087 3.63259 25.8261 3.68854 26.9022 3.68854H29.5924C30.1902 3.68854 30.6685 3.74448 30.9674 3.85637C31.2663 3.96826 31.5652 4.13609 31.7446 4.35987C31.9837 4.69553 32.1033 5.14308 32.1033 5.70252C32.1033 6.26196 31.9837 6.70952 31.8044 7.04518C31.5652 7.43679 31.087 7.66057 30.4294 7.8284C29.7717 7.94029 28.5761 7.99623 26.8424 7.99623C25.9457 7.99623 25.2283 7.99623 24.8098 7.94029C24.3913 7.88434 24.0326 7.77245 23.7935 7.66057C23.4946 7.49273 23.2554 7.26896 23.1359 7.04518C23.0163 6.82141 22.9565 6.4298 22.9565 5.9263V5.59064V5.59064ZM38.3207 0.275951C39.7554 0.275951 40.712 0.331895 41.3098 0.387839C41.9076 0.499727 42.3261 0.611615 42.5652 0.891335C42.7446 1.05917 42.8641 1.227 42.9239 1.45078C42.9837 1.67455 43.1033 1.95427 43.1033 2.34588C43.163 2.84938 43.2228 3.46476 43.2228 4.19203C43.2228 5.14308 43.163 5.87036 43.1033 6.31791C42.9837 6.82141 42.8641 7.15707 42.625 7.38085C42.3859 7.60462 41.9674 7.77245 41.4294 7.88434C40.8913 7.99623 39.9946 7.99623 38.6793 7.99623C38.0815 7.99623 37.3641 7.99623 36.587 7.94029C35.8098 7.94029 35.3315 7.88434 35.0924 7.88434C34.6739 7.8284 34.375 7.77245 34.1359 7.71651C33.8967 7.60462 33.6576 7.49273 33.4783 7.3249C33.2391 7.10113 33.0598 6.76546 33 6.31791C32.9402 5.87036 32.8804 5.14308 32.8804 4.08015C32.8804 2.84938 33 1.95427 33.1793 1.45078C33.4185 0.835391 33.8967 0.499727 34.6739 0.387839C35.3913 0.331895 36.587 0.275951 38.3207 0.275951V0.275951ZM37.663 1.17106C36.5272 1.17106 35.6902 1.227 35.0924 1.28294C34.7935 1.33889 34.5543 1.39483 34.4348 1.50672C34.3152 1.61861 34.1957 1.84238 34.1359 2.06616C34.0163 2.51371 34.0163 3.1291 34.0163 3.96826C34.0163 4.80742 34.0163 5.4228 34.0761 5.81441C34.1359 6.20602 34.1957 6.48574 34.375 6.59763C34.4946 6.70952 34.6141 6.76546 34.8533 6.8214C35.0326 6.87735 35.3913 6.93329 35.8098 6.93329C36.5272 6.98924 37.3641 6.98924 38.2609 6.98924C39.5761 6.98924 40.5326 6.93329 41.1902 6.8214C41.6685 6.76546 41.9674 6.48574 42.0272 6.03819C42.1467 5.53469 42.1467 4.91931 42.1467 4.08015C42.1467 3.07315 42.087 2.34588 42.0272 1.95427C41.9674 1.50672 41.6087 1.28294 41.0707 1.227C40.7717 1.17106 40.413 1.17106 39.9946 1.11511C39.5761 1.17106 38.8587 1.17106 37.663 1.17106V1.17106ZM52.7283 5.36686H53.8044C53.8044 6.03819 53.7446 6.54168 53.6848 6.8214C53.5652 7.38085 53.1467 7.71651 52.4293 7.88434C51.8913 7.99623 50.875 8.05217 49.4402 8.05217C47.587 8.05217 46.3315 7.99623 45.6739 7.88434C45.0761 7.77245 44.6576 7.49273 44.4185 6.98924C44.1794 6.48574 44.1196 5.59064 44.1196 4.30392C44.1196 3.07315 44.1793 2.17805 44.3587 1.61861C44.538 0.947279 45.0761 0.555671 45.8533 0.443783C46.6304 0.331895 47.7663 0.275951 49.2609 0.275951C50.6957 0.275951 51.712 0.331895 52.3098 0.499727C52.6087 0.555671 52.9076 0.667559 53.087 0.891335C53.3261 1.05917 53.4457 1.28294 53.5054 1.56266C53.5652 1.78644 53.625 2.23399 53.625 2.90532H52.6087V2.6256C52.6087 2.23399 52.5489 2.01022 52.4891 1.84238C52.4294 1.67455 52.25 1.56266 52.0707 1.50672C51.6522 1.33889 50.6957 1.28294 49.2011 1.28294C48.125 1.28294 47.288 1.28294 46.75 1.33889C46.212 1.39483 45.8533 1.50672 45.6739 1.61861C45.5544 1.67455 45.4348 1.89833 45.375 2.28994C45.3152 2.68154 45.2554 3.18504 45.2554 3.85637C45.2554 4.19203 45.2554 4.58364 45.3152 5.08714C45.3152 5.59064 45.375 5.9263 45.375 6.09413C45.4348 6.37385 45.4946 6.59763 45.6739 6.76546C45.8533 6.87735 46.0924 6.98924 46.4511 6.98924C47.0489 7.04518 47.9457 7.10113 49.1413 7.10113C49.5 7.10113 49.9783 7.10113 50.5163 7.04518C51.1141 7.04518 51.4728 6.98924 51.5924 6.98924C51.8913 6.93329 52.1304 6.87735 52.25 6.8214C52.4294 6.76546 52.4891 6.65357 52.5489 6.48574C52.6685 6.37385 52.6685 5.98224 52.7283 5.36686V5.36686ZM55.0598 0.275951H56.1359V7.99623H55.0598V0.275951ZM57.4511 7.99623V0.275951H65.5217V1.227H58.5272V3.57665H65.2228V4.5277H58.5272V7.15707H65.5217V8.10812H57.4511V7.99623ZM66.7174 0.275951H76.1033V1.227H71.9783V7.99623H70.9022V1.227H66.7772V0.275951H66.7174ZM77.1196 0.275951H78.6141L82.6196 3.96826L86.4457 0.275951H88L83.1576 4.86336V7.99623H82.0815V4.86336L77.1196 0.275951Z" fill="#00175C"/>
</svg>
