<svg width="60" height="14" viewBox="0 0 60 14" fill="none" xmlns="http://www.w3.org/2000/svg">
<path d="M5.73206 7.12437C5.45212 6.83145 5.21218 6.63617 4.87892 6.48273C4.59898 6.3293 4.26572 6.23166 3.83915 6.23166C3.4659 6.23166 3.07932 6.3293 2.79938 6.48273C2.51944 6.63617 2.27949 6.83145 2.09287 7.12437C1.90624 7.37544 1.75961 7.66836 1.6663 8.01707C1.57298 8.36578 1.51966 8.71449 1.51966 9.04926C1.51966 9.38402 1.57298 9.74668 1.70629 10.0814C1.7996 10.4302 1.98623 10.6673 2.17285 10.9184C2.35948 11.1694 2.63941 11.3647 2.93268 11.5042C3.21262 11.6576 3.54588 11.6995 3.91913 11.6995C4.3457 11.6995 4.67896 11.6018 4.9589 11.4484C5.23884 11.295 5.51877 11.0997 5.75872 10.8068L6.74517 11.8947C6.37192 12.3411 5.94535 12.634 5.46545 12.8293C4.99889 13.0246 4.47901 13.1222 3.9058 13.1222C3.34592 13.1222 2.77272 13.0246 2.30615 12.8293C1.83959 12.634 1.41302 12.3411 1.07976 11.9924C0.746502 11.6437 0.466564 11.1973 0.279939 10.7091C0.0933134 10.2209 0 9.62114 0 9.03531C0 8.44947 0.0933134 7.84968 0.279939 7.36149C0.466564 6.87329 0.746502 6.42694 1.07976 6.02243C1.41302 5.67372 1.83959 5.3808 2.30615 5.18552C2.77272 4.99024 3.34592 4.89261 3.9058 4.89261C4.46567 4.89261 4.98556 4.99024 5.46545 5.18552C5.98534 5.3808 6.41191 5.72951 6.78516 6.12007L5.73206 7.12437ZM8.93135 8.95161C8.93135 9.34217 8.98467 9.74668 9.11798 10.0396C9.21129 10.3883 9.39791 10.6812 9.58454 10.9323C9.77116 11.1834 10.0511 11.3787 10.3444 11.4763C10.6243 11.6297 11.0109 11.6716 11.3841 11.6716C11.7574 11.6716 12.0906 11.6158 12.4239 11.4763C12.7038 11.3229 12.9838 11.1276 13.1837 10.9323C13.3704 10.6812 13.557 10.3883 13.6503 10.0396C13.7436 9.69089 13.8369 9.34217 13.8369 8.95161C13.8369 8.56106 13.7836 8.15655 13.6503 7.86363C13.557 7.51492 13.3704 7.222 13.1837 6.97093C12.9971 6.71986 12.7172 6.52458 12.4239 6.42694C12.144 6.27351 11.7574 6.23166 11.3841 6.23166C11.0109 6.23166 10.6776 6.28746 10.3444 6.42694C10.0644 6.58037 9.78449 6.77565 9.58454 6.97093C9.39791 7.222 9.21129 7.51492 9.11798 7.86363C9.02466 8.21235 8.93135 8.56106 8.93135 8.95161ZM7.42502 8.95161C7.42502 8.36578 7.51833 7.82179 7.70496 7.31964C7.89158 6.83145 8.17152 6.38509 8.5581 5.98059C8.93135 5.59003 9.31793 5.28316 9.83781 5.08788C10.3044 4.89261 10.8243 4.73917 11.3975 4.73917C11.9707 4.73917 12.4772 4.83681 12.9571 5.08788C13.4237 5.28316 13.8503 5.57608 14.2368 5.98059C14.6101 6.37114 14.85 6.8175 15.09 7.31964C15.2766 7.80784 15.3699 8.35183 15.3699 8.95161C15.3699 9.53745 15.2766 10.0814 15.09 10.5836C14.9034 11.0718 14.6234 11.5181 14.2368 11.9226C13.8636 12.3132 13.477 12.5643 12.9571 12.8153C12.4906 13.0106 11.9707 13.1641 11.3975 13.1641C10.8376 13.1641 10.3177 13.0664 9.83781 12.8153C9.37125 12.6201 8.94468 12.3272 8.5581 11.9226C8.18485 11.5321 7.9449 11.1276 7.70496 10.5836C7.57165 10.0814 7.42502 9.53745 7.42502 8.95161ZM16.8229 12.9548H18.2359V5.05999H16.8229V12.9548ZM16.4897 2.18659C16.4897 1.89368 16.583 1.64261 16.7696 1.39153C16.9562 1.19625 17.1962 1.04282 17.4761 1.04282C17.7561 1.04282 17.996 1.14046 18.1826 1.39153C18.3693 1.58681 18.4626 1.87973 18.4626 2.18659C18.4626 2.49346 18.3693 2.73059 18.1826 2.98166C17.996 3.17694 17.7561 3.33037 17.4761 3.33037C17.1962 3.33037 16.9562 3.23273 16.7696 2.98166C16.583 2.77243 16.4897 2.47951 16.4897 2.18659ZM20.2088 5.04604H21.6352V6.27351H21.6885C21.8751 5.82715 22.1551 5.47844 22.635 5.24132C23.0615 4.99025 23.5814 4.85076 24.1946 4.85076C24.5679 4.85076 24.9011 4.90655 25.2344 5.04604C25.5677 5.14368 25.8476 5.33896 26.0875 5.59003C26.3275 5.8411 26.5141 6.13402 26.7007 6.52458C26.8474 6.91514 26.9407 7.36149 26.9407 7.90548V12.9967H25.501V8.30999C25.501 7.96128 25.4477 7.61256 25.3544 7.37544C25.2611 7.12436 25.1144 6.88724 24.9811 6.7338C24.8345 6.58037 24.6479 6.44089 24.4212 6.38509C24.2346 6.3293 23.9947 6.28746 23.7547 6.28746C23.4748 6.28746 23.1948 6.34325 22.9549 6.44089C22.715 6.53853 22.4883 6.69196 22.2884 6.92908C22.1018 7.12436 21.9551 7.41728 21.8618 7.76599C21.7685 8.11471 21.7152 8.50526 21.7152 8.95161V13.0525H20.3022V5.05999M32.1529 11.7134C32.5261 11.7134 32.8594 11.6576 33.1926 11.5181C33.5259 11.3647 33.7525 11.1694 33.9925 10.9323C34.1791 10.6812 34.3657 10.3883 34.459 10.0396C34.5523 9.69089 34.6456 9.34217 34.6456 8.90977C34.6456 8.51921 34.5923 8.11471 34.459 7.77994C34.3657 7.43123 34.1791 7.13831 33.9925 6.88724C33.7525 6.63617 33.5259 6.44089 33.1926 6.3014C32.8594 6.14797 32.5261 6.10612 32.1529 6.10612C31.7796 6.10612 31.4463 6.16192 31.1131 6.3014C30.7798 6.45483 30.5532 6.65011 30.3133 6.88724C30.1266 7.13831 29.94 7.43123 29.8467 7.77994C29.7534 8.12865 29.6601 8.47737 29.6601 8.90977C29.6601 9.30033 29.7134 9.70484 29.8467 10.0396C29.94 10.3883 30.1266 10.6812 30.3133 10.9323C30.4999 11.1834 30.7798 11.3787 31.1131 11.5181C31.393 11.6158 31.7796 11.7134 32.1529 11.7134ZM36.072 12.899H34.659V11.7692H34.6056C34.3257 12.2156 33.9391 12.5085 33.4726 12.7596C33.006 13.0106 32.4861 13.1083 31.9662 13.1083C31.4064 13.1083 30.8332 13.0106 30.3666 12.8153C29.9 12.6201 29.4734 12.3272 29.1402 11.9226C28.8069 11.5321 28.527 11.0857 28.3804 10.5836C28.1937 10.0954 28.1004 9.5514 28.1004 8.95161C28.1004 8.35183 28.1937 7.82179 28.3804 7.2778C28.567 6.7896 28.8069 6.34325 29.1402 5.93874C29.4734 5.54819 29.9 5.24131 30.3666 5.04604C30.8332 4.85076 31.353 4.75312 31.9662 4.75312C32.4861 4.75312 33.006 4.85076 33.4726 5.10183C33.9391 5.35291 34.3257 5.68767 34.5523 6.09217H34.6056V0.164062H36.0187V12.899H36.072ZM43.2837 8.30999C43.2837 7.96128 43.2304 7.66835 43.1371 7.37544C43.0438 7.08252 42.8971 6.83145 42.7105 6.63617C42.5239 6.44089 42.2839 6.28746 42.044 6.14797C41.7641 6.05033 41.4841 5.95269 41.0975 5.95269C40.7643 5.95269 40.431 6.00849 40.1511 6.14797C39.8711 6.3014 39.6312 6.44089 39.3912 6.69196C39.2046 6.88724 39.018 7.13831 38.9247 7.43123C38.8314 7.72415 38.7381 7.97522 38.7381 8.2263H43.2704L43.2837 8.30999ZM38.7647 9.53745C38.7647 9.88617 38.858 10.1791 39.0047 10.472C39.1513 10.7649 39.3379 11.016 39.5645 11.2113C39.8045 11.4066 40.0844 11.56 40.3644 11.6576C40.6976 11.7553 40.9776 11.8111 41.3108 11.8111C41.7374 11.8111 42.164 11.7134 42.4839 11.4623C42.8172 11.2671 43.0971 10.9741 43.377 10.6254L44.4568 11.5181C43.657 12.6061 42.5239 13.1501 41.1109 13.1501C40.4977 13.1501 39.9778 13.0525 39.5112 12.8572C39.0447 12.6619 38.6181 12.369 38.2848 11.9645C37.9516 11.5739 37.6716 11.1694 37.525 10.6254C37.3384 10.1372 37.2451 9.59325 37.2451 8.99346C37.2451 8.40763 37.3384 7.86363 37.525 7.36149C37.7116 6.87329 37.9916 6.42694 38.3248 6.02243C38.6581 5.63187 39.0847 5.3808 39.5512 5.12973C40.0178 4.93445 40.5377 4.83681 41.1109 4.83681C41.7774 4.83681 42.3373 4.93445 42.8038 5.18552C43.2704 5.43659 43.657 5.72951 43.9369 6.12007C44.2168 6.51063 44.4568 6.95698 44.6034 7.45913C44.7501 7.94733 44.7901 8.44947 44.7901 8.99346V9.53745H38.7647ZM50.3621 7.02672C50.1755 6.83145 49.9889 6.63617 49.7489 6.48273C49.509 6.3293 49.1891 6.23166 48.8558 6.23166C48.5226 6.23166 48.2426 6.3293 47.9627 6.48273C47.7227 6.63617 47.5894 6.83145 47.5894 7.12437C47.5894 7.37544 47.6827 7.57072 47.8294 7.66836C47.976 7.82179 48.1626 7.91943 48.3493 8.01707C48.5359 8.11471 48.7758 8.1705 48.9625 8.21235C49.2024 8.26814 49.389 8.30999 49.5223 8.30999C49.8023 8.40763 50.1355 8.46342 50.3755 8.6029C50.6554 8.70054 50.8954 8.85398 51.082 9.04926C51.2686 9.24453 51.4152 9.43981 51.5485 9.69089C51.6419 9.94196 51.7352 10.2349 51.7352 10.6254C51.7352 11.0718 51.6419 11.4623 51.4552 11.7553C51.2686 12.0482 51.0287 12.3411 50.7487 12.5503C50.4688 12.7596 50.1355 12.899 49.7623 12.9967C49.389 13.0943 49.0024 13.1501 48.6825 13.1501C48.0693 13.1501 47.5094 13.0525 47.0295 12.8572C46.563 12.6619 46.1364 12.3132 45.7498 11.7692L46.8296 10.8347C47.0695 11.0857 47.2962 11.281 47.5894 11.4763C47.8827 11.6716 48.2026 11.7692 48.6292 11.7692C48.8158 11.7692 49.0024 11.7692 49.1891 11.7134C49.3757 11.6576 49.5223 11.6158 49.6556 11.5181C49.8023 11.4205 49.8956 11.3229 49.9889 11.2252C50.0822 11.0718 50.1355 10.9323 50.1355 10.7789C50.1355 10.5836 50.0822 10.3883 49.9489 10.2349C49.8023 10.0814 49.669 9.9838 49.4823 9.88617C49.2957 9.78853 49.1091 9.73273 48.9225 9.69089L48.3626 9.53745C48.0826 9.43981 47.7494 9.38402 47.5094 9.28638C47.2295 9.18874 46.9896 9.03531 46.8029 8.89582C46.6163 8.74239 46.4297 8.50526 46.2831 8.25419C46.1364 8.00312 46.0964 7.66836 46.0964 7.31964C46.0964 6.92909 46.1897 6.52458 46.3364 6.23166C46.483 5.93874 46.7096 5.68767 47.0029 5.49239C47.2828 5.29711 47.5628 5.14368 47.896 5.04604C48.2293 4.9484 48.6025 4.89261 48.9358 4.89261C49.4557 4.89261 49.9222 4.99024 50.4021 5.18552C50.8687 5.3808 51.2553 5.72951 51.5352 6.17587L50.3621 7.02672ZM53.1082 0.359345H54.5212V8.35183L57.7338 4.99024H59.6667L56.2275 8.54711L60 12.7875H57.9738L54.5345 8.74239V12.7875H53.1215V0.359345" fill="#00175C"/>
</svg>
