<svg width="88" height="8" viewBox="0 0 88 8" fill="none" xmlns="http://www.w3.org/2000/svg">
<path d="M8.01087 4.86713H10.5217V5.59441C10.5217 6.20979 10.4022 6.65734 10.2228 6.99301C9.9837 7.38462 9.625 7.60839 8.96739 7.77622C8.36957 7.88811 7.29348 8 5.79891 8C4.24457 8 3.1087 7.94406 2.45109 7.88811C1.79348 7.83217 1.25543 7.72028 0.956522 7.55245C0.657609 7.38462 0.418478 7.21678 0.298913 6.93706C0.179348 6.71329 0.0597826 6.32168 0 5.93007V4.02797C0 3.13287 0 2.51748 0.0597826 2.06993C0.119565 1.67832 0.179348 1.3986 0.23913 1.17483C0.478261 0.671329 0.956522 0.391608 1.61413 0.223776C2.33152 0.0559441 3.7663 0 5.91848 0C6.99457 0 7.77174 0 8.25 0.0559441C8.72826 0.111888 9.14674 0.167832 9.38587 0.335664C9.74457 0.503497 10.0435 0.727273 10.163 1.06294C10.3424 1.3986 10.4022 1.84615 10.4022 2.51748V2.90909H7.8913C7.8913 2.62937 7.8913 2.46154 7.83152 2.40559C7.83152 2.29371 7.77174 2.23776 7.71196 2.18182C7.59239 2.12587 7.35326 2.06993 6.99457 2.01399C6.57609 1.95804 6.03804 1.95804 5.20109 1.95804C4.42391 1.95804 3.88587 1.95804 3.58696 2.01399C3.28804 2.01399 3.04891 2.06993 2.92935 2.18182C2.80978 2.29371 2.69022 2.46154 2.63043 2.74126C2.57065 3.02098 2.51087 3.41259 2.51087 4.02797C2.51087 4.58741 2.51087 5.03496 2.57065 5.25874C2.63043 5.48252 2.75 5.65035 2.86957 5.76224C2.98913 5.87413 3.22826 5.93007 3.52717 5.98601C3.82609 6.04196 4.36413 6.04196 5.1413 6.04196C6.09783 6.04196 6.75544 6.04196 7.05435 5.98601C7.35326 5.93007 7.59239 5.87413 7.71196 5.76224C7.95109 5.65035 8.01087 5.31469 8.01087 4.86713ZM16.4402 3.46853H22.1793V3.69231C22.1793 4.81119 22.1196 5.59441 22.0598 6.15385C21.9402 7.04895 21.4022 7.60839 20.4457 7.77622C20.0272 7.83217 19.5489 7.88811 19.0109 7.94406C18.4728 7.94406 17.6359 8 16.5 8C15.0652 8 14.1087 7.94406 13.5109 7.88811C12.913 7.83217 12.4348 7.66434 12.1359 7.44056C11.8967 7.27273 11.7174 7.1049 11.5978 6.88112C11.4783 6.65734 11.3587 6.32168 11.3587 5.98601C11.2989 5.65035 11.2989 4.92308 11.2989 3.91608C11.2989 3.18881 11.2989 2.68531 11.3587 2.29371C11.4185 1.95804 11.4783 1.62238 11.5978 1.34266C11.837 0.727273 12.3152 0.391608 13.0924 0.27972C13.9293 0.167832 15.2446 0.0559441 16.9783 0.0559441C17.9946 0.0559441 18.8315 0.0559441 19.4293 0.111888C20.0272 0.167832 20.5054 0.223776 20.9239 0.335664C21.5815 0.503497 21.9402 0.951049 22.0598 1.56643C22.1196 1.84615 22.1793 2.29371 22.1793 2.85315H19.6685C19.6685 2.62937 19.6685 2.46154 19.6087 2.40559C19.6087 2.34965 19.5489 2.23776 19.4293 2.18182C19.3098 2.06993 19.0109 2.01399 18.5326 2.01399C18.1141 2.01399 17.5163 1.95804 16.6793 1.95804C15.8424 1.95804 15.1848 1.95804 14.8261 2.01399C14.4674 2.06993 14.2283 2.12587 14.0489 2.23776C13.9293 2.34965 13.8098 2.51748 13.75 2.74126C13.8098 2.96503 13.75 3.35664 13.75 3.91608C13.75 4.58741 13.75 5.03496 13.8098 5.25874C13.8696 5.53846 13.9293 5.70629 14.1087 5.81818C14.2283 5.93007 14.4076 5.98601 14.6467 5.98601C14.8859 5.98601 15.5435 6.04196 16.7391 6.04196C17.875 6.04196 18.5924 6.04196 18.8315 5.98601C19.0707 5.98601 19.25 5.93007 19.4293 5.87413C19.5489 5.81818 19.6087 5.76224 19.6685 5.65035C19.7283 5.53846 19.7283 5.37063 19.7283 5.14685V4.92308H16.4402V3.46853ZM22.9565 5.42657H24.0326V5.59441C24.0326 6.04196 24.0924 6.32168 24.1522 6.48951C24.212 6.65734 24.3315 6.76923 24.5109 6.82517C24.8098 6.93706 25.8261 6.99301 27.5 6.99301C28.7554 6.99301 29.5924 6.93706 30.1304 6.82517C30.6685 6.71329 30.9076 6.32168 30.9076 5.65035C30.9076 5.31469 30.8478 5.09091 30.788 4.92308C30.7283 4.75524 30.5489 4.64336 30.3696 4.58741C30.1902 4.53147 29.8913 4.47552 29.5326 4.47552H25.9457C25.288 4.47552 24.6902 4.41958 24.2717 4.30769C23.8533 4.1958 23.5543 3.97203 23.3152 3.74825C23.0761 3.41259 22.8967 2.96503 22.8967 2.34965C22.8967 1.67832 23.0761 1.17483 23.4946 0.839161C23.6739 0.671329 23.913 0.559441 24.1522 0.503496C24.3913 0.447552 24.75 0.335664 25.1685 0.335664C25.8859 0.27972 26.7826 0.223776 27.7391 0.223776C28.6957 0.223776 29.413 0.27972 29.8913 0.335664C30.3696 0.447552 30.788 0.559441 31.087 0.783217C31.3261 0.951049 31.5054 1.17483 31.5652 1.3986C31.625 1.62238 31.6848 2.01399 31.6848 2.51748H30.6087V2.40559C30.6087 2.01399 30.5489 1.79021 30.4891 1.62238C30.4891 1.34266 30.1902 1.17483 29.7717 1.06294C29.3533 0.951049 28.6957 0.951049 27.8587 0.951049C26.7826 0.951049 26.0054 1.00699 25.4674 1.06294C24.9293 1.11888 24.5707 1.28671 24.3913 1.45455C24.212 1.62238 24.1522 1.9021 24.1522 2.29371C24.1522 2.62937 24.212 2.90909 24.2717 3.02098C24.3315 3.18881 24.5109 3.3007 24.8098 3.35664C25.1087 3.46853 25.8261 3.52448 26.9022 3.52448H29.5924C30.1902 3.52448 30.6685 3.58042 30.9674 3.69231C31.2663 3.8042 31.5652 3.97203 31.7446 4.1958C31.9837 4.53147 32.1033 4.97902 32.1033 5.53846C32.1033 6.0979 31.9837 6.54545 31.8043 6.88112C31.5652 7.27273 31.087 7.4965 30.4293 7.66434C29.7717 7.77622 28.5761 7.83217 26.8424 7.83217C25.9457 7.83217 25.2283 7.83217 24.8098 7.77622C24.3913 7.72028 24.0326 7.60839 23.7935 7.4965C23.4946 7.32867 23.2554 7.1049 23.1359 6.88112C23.0163 6.65734 22.9565 6.26573 22.9565 5.76224V5.42657ZM38.3207 0.111888C39.7554 0.111888 40.712 0.167832 41.3098 0.223776C41.9076 0.335664 42.3261 0.447552 42.5652 0.727273C42.7446 0.895105 42.8641 1.06294 42.9239 1.28671C42.9837 1.51049 43.1033 1.79021 43.1033 2.18182C43.163 2.68531 43.2228 3.3007 43.2228 4.02797C43.2228 4.97902 43.163 5.70629 43.1033 6.15385C42.9837 6.65734 42.8641 6.99301 42.625 7.21678C42.3859 7.44056 41.9674 7.60839 41.4294 7.72028C40.8913 7.83217 39.9946 7.83217 38.6793 7.83217C38.0815 7.83217 37.3641 7.83217 36.587 7.77622C35.8098 7.77622 35.3315 7.72028 35.0924 7.72028C34.6739 7.66434 34.375 7.60839 34.1359 7.55245C33.8967 7.44056 33.6576 7.32867 33.4783 7.16084C33.2391 6.93706 33.0598 6.6014 33 6.15385C32.9402 5.70629 32.8804 4.97902 32.8804 3.91608C32.8804 2.68531 33 1.79021 33.1793 1.28671C33.4185 0.671329 33.8967 0.335664 34.6739 0.223776C35.3913 0.167832 36.587 0.111888 38.3207 0.111888ZM37.663 1.00699C36.5272 1.00699 35.6902 1.06294 35.0924 1.11888C34.7935 1.17483 34.5543 1.23077 34.4348 1.34266C34.3152 1.45455 34.1957 1.67832 34.1359 1.9021C34.0163 2.34965 34.0163 2.96503 34.0163 3.8042C34.0163 4.64336 34.0163 5.25874 34.0761 5.65035C34.1359 6.04196 34.1957 6.32168 34.375 6.43357C34.4946 6.54545 34.6141 6.6014 34.8533 6.65734C35.0326 6.71329 35.3913 6.76923 35.8098 6.76923C36.5272 6.82517 37.3641 6.82517 38.2609 6.82517C39.5761 6.82517 40.5326 6.76923 41.1902 6.65734C41.6685 6.6014 41.9674 6.32168 42.0272 5.87413C42.1467 5.37063 42.1467 4.75524 42.1467 3.91608C42.1467 2.90909 42.087 2.18182 42.0272 1.79021C41.9674 1.34266 41.6087 1.11888 41.0707 1.06294C40.7717 1.00699 40.413 1.00699 39.9946 0.951049C39.5761 1.00699 38.8587 1.00699 37.663 1.00699ZM52.7283 5.2028H53.8044C53.8044 5.87413 53.7446 6.37762 53.6848 6.65734C53.5652 7.21678 53.1467 7.55245 52.4293 7.72028C51.8913 7.83217 50.875 7.88811 49.4402 7.88811C47.587 7.88811 46.3315 7.83217 45.6739 7.72028C45.0761 7.60839 44.6576 7.32867 44.4185 6.82517C44.1794 6.32168 44.1196 5.42657 44.1196 4.13986C44.1196 2.90909 44.1793 2.01399 44.3587 1.45455C44.538 0.783217 45.0761 0.391608 45.8533 0.27972C46.6304 0.167832 47.7663 0.111888 49.2609 0.111888C50.6957 0.111888 51.712 0.167832 52.3098 0.335664C52.6087 0.391608 52.9076 0.503496 53.087 0.727273C53.3261 0.895105 53.4457 1.11888 53.5054 1.3986C53.5652 1.62238 53.625 2.06993 53.625 2.74126H52.6087V2.46154C52.6087 2.06993 52.5489 1.84615 52.4891 1.67832C52.4294 1.51049 52.25 1.3986 52.0707 1.34266C51.6522 1.17483 50.6957 1.11888 49.2011 1.11888C48.125 1.11888 47.288 1.11888 46.75 1.17483C46.212 1.23077 45.8533 1.34266 45.6739 1.45455C45.5544 1.51049 45.4348 1.73427 45.375 2.12587C45.3152 2.51748 45.2554 3.02098 45.2554 3.69231C45.2554 4.02797 45.2554 4.41958 45.3152 4.92308C45.3152 5.42657 45.375 5.76224 45.375 5.93007C45.4348 6.20979 45.4946 6.43357 45.6739 6.6014C45.8533 6.71329 46.0924 6.82517 46.4511 6.82517C47.0489 6.88112 47.9457 6.93706 49.1413 6.93706C49.5 6.93706 49.9783 6.93706 50.5163 6.88112C51.1141 6.88112 51.4728 6.82517 51.5924 6.82517C51.8913 6.76923 52.1304 6.71329 52.25 6.65734C52.4294 6.6014 52.4891 6.48951 52.5489 6.32168C52.6685 6.20979 52.6685 5.81818 52.7283 5.2028ZM55.0598 0.111888H56.1359V7.83217H55.0598V0.111888ZM57.4511 7.83217V0.111888H65.5217V1.06294H58.5272V3.41259H65.2228V4.36364H58.5272V6.99301H65.5217V7.94406H57.4511V7.83217ZM66.7174 0.111888H76.1033V1.06294H71.9783V7.83217H70.9022V1.06294H66.7772V0.111888H66.7174ZM77.1196 0.111888H78.6141L82.6196 3.8042L86.4457 0.111888H88L83.1576 4.6993V7.83217H82.0815V4.6993L77.1196 0.111888Z" fill="#00175C"/>
</svg>
