<svg width="60" height="13" viewBox="0 0 60 13" fill="none" xmlns="http://www.w3.org/2000/svg">
<path d="M5.73206 6.9603C5.45212 6.66738 5.21218 6.4721 4.87892 6.31867C4.59898 6.16524 4.26572 6.0676 3.83915 6.0676C3.4659 6.0676 3.07932 6.16524 2.79938 6.31867C2.51944 6.4721 2.27949 6.66738 2.09287 6.9603C1.90624 7.21138 1.75961 7.50429 1.6663 7.85301C1.57298 8.20172 1.51966 8.55043 1.51966 8.88519C1.51966 9.21996 1.57298 9.58262 1.70629 9.91738C1.7996 10.2661 1.98623 10.5032 2.17285 10.7543C2.35948 11.0054 2.63941 11.2006 2.93268 11.3401C3.21262 11.4936 3.54588 11.5354 3.91913 11.5354C4.3457 11.5354 4.67896 11.4378 4.9589 11.2843C5.23884 11.1309 5.51877 10.9356 5.75872 10.6427L6.74517 11.7307C6.37192 12.177 5.94535 12.47 5.46545 12.6652C4.99889 12.8605 4.47901 12.9582 3.9058 12.9582C3.34592 12.9582 2.77272 12.8605 2.30615 12.6652C1.83959 12.47 1.41302 12.177 1.07976 11.8283C0.746502 11.4796 0.466564 11.0333 0.279939 10.5451C0.0933134 10.0569 0 9.45708 0 8.87124C0 8.28541 0.0933134 7.68562 0.279939 7.19742C0.466564 6.70923 0.746502 6.26287 1.07976 5.85837C1.41302 5.50966 1.83959 5.21674 2.30615 5.02146C2.77272 4.82618 3.34592 4.72854 3.9058 4.72854C4.46567 4.72854 4.98556 4.82618 5.46545 5.02146C5.98534 5.21674 6.41191 5.56545 6.78516 5.95601L5.73206 6.9603ZM8.93135 8.78755C8.93135 9.17811 8.98467 9.58262 9.11798 9.87554C9.21129 10.2242 9.39791 10.5172 9.58454 10.7682C9.77116 11.0193 10.0511 11.2146 10.3444 11.3122C10.6243 11.4657 11.0109 11.5075 11.3841 11.5075C11.7574 11.5075 12.0906 11.4517 12.4239 11.3122C12.7038 11.1588 12.9838 10.9635 13.1837 10.7682C13.3704 10.5172 13.557 10.2242 13.6503 9.87554C13.7436 9.52682 13.8369 9.17811 13.8369 8.78755C13.8369 8.39699 13.7836 7.99249 13.6503 7.69957C13.557 7.35086 13.3704 7.05794 13.1837 6.80687C12.9971 6.5558 12.7172 6.36052 12.4239 6.26288C12.144 6.10944 11.7574 6.0676 11.3841 6.0676C11.0109 6.0676 10.6776 6.12339 10.3444 6.26288C10.0644 6.41631 9.78449 6.61159 9.58454 6.80687C9.39791 7.05794 9.21129 7.35086 9.11798 7.69957C9.02466 8.04828 8.93135 8.39699 8.93135 8.78755ZM7.42502 8.78755C7.42502 8.20172 7.51833 7.65773 7.70496 7.15558C7.89158 6.66738 8.17152 6.22103 8.5581 5.81652C8.93135 5.42597 9.31793 5.1191 9.83781 4.92382C10.3044 4.72854 10.8243 4.57511 11.3975 4.57511C11.9707 4.57511 12.4772 4.67275 12.9571 4.92382C13.4237 5.1191 13.8503 5.41202 14.2368 5.81652C14.6101 6.20708 14.85 6.65344 15.09 7.15558C15.2766 7.64378 15.3699 8.18777 15.3699 8.78755C15.3699 9.37339 15.2766 9.91738 15.09 10.4195C14.9034 10.9077 14.6234 11.3541 14.2368 11.7586C13.8636 12.1491 13.477 12.4002 12.9571 12.6513C12.4906 12.8466 11.9707 13 11.3975 13C10.8376 13 10.3177 12.9024 9.83781 12.6513C9.37125 12.456 8.94468 12.1631 8.5581 11.7586C8.18485 11.368 7.9449 10.9635 7.70496 10.4195C7.57165 9.91738 7.42502 9.37339 7.42502 8.78755ZM16.8229 12.7908H18.2359V4.89592H16.8229V12.7908ZM16.4897 2.02253C16.4897 1.72961 16.583 1.47854 16.7696 1.22747C16.9562 1.03219 17.1962 0.878758 17.4761 0.878758C17.7561 0.878758 17.996 0.976397 18.1826 1.22747C18.3693 1.42275 18.4626 1.71566 18.4626 2.02253C18.4626 2.3294 18.3693 2.56652 18.1826 2.8176C17.996 3.01288 17.7561 3.16631 17.4761 3.16631C17.1962 3.16631 16.9562 3.06867 16.7696 2.8176C16.583 2.60837 16.4897 2.31545 16.4897 2.02253ZM20.2088 4.88197H21.6352V6.10944H21.6885C21.8751 5.66309 22.1551 5.31438 22.635 5.07726C23.0615 4.82618 23.5814 4.6867 24.1946 4.6867C24.5679 4.6867 24.9011 4.74249 25.2344 4.88197C25.5677 4.97961 25.8476 5.1749 26.0875 5.42597C26.3275 5.67704 26.5141 5.96996 26.7007 6.36052C26.8474 6.75107 26.9407 7.19742 26.9407 7.74142V12.8326H25.501V8.14592C25.501 7.79721 25.4477 7.4485 25.3544 7.21137C25.2611 6.9603 25.1144 6.72318 24.9811 6.56974C24.8345 6.41631 24.6479 6.27682 24.4212 6.22103C24.2346 6.16524 23.9947 6.12339 23.7547 6.12339C23.4748 6.12339 23.1948 6.17918 22.9549 6.27682C22.715 6.37446 22.4883 6.5279 22.2884 6.76502C22.1018 6.9603 21.9551 7.25322 21.8618 7.60193C21.7685 7.95064 21.7152 8.3412 21.7152 8.78755V12.8884H20.3022V4.89592M32.1529 11.5494C32.5261 11.5494 32.8594 11.4936 33.1926 11.3541C33.5259 11.2006 33.7525 11.0054 33.9925 10.7682C34.1791 10.5172 34.3657 10.2242 34.459 9.87554C34.5523 9.52682 34.6456 9.17811 34.6456 8.74571C34.6456 8.35515 34.5923 7.95064 34.459 7.61588C34.3657 7.26717 34.1791 6.97425 33.9925 6.72318C33.7525 6.4721 33.5259 6.27682 33.1926 6.13734C32.8594 5.9839 32.5261 5.94206 32.1529 5.94206C31.7796 5.94206 31.4463 5.99785 31.1131 6.13734C30.7798 6.29077 30.5532 6.48605 30.3133 6.72318C30.1266 6.97425 29.94 7.26717 29.8467 7.61588C29.7534 7.96459 29.6601 8.3133 29.6601 8.74571C29.6601 9.13627 29.7134 9.54077 29.8467 9.87554C29.94 10.2242 30.1266 10.5172 30.3133 10.7682C30.4999 11.0193 30.7798 11.2146 31.1131 11.3541C31.393 11.4517 31.7796 11.5494 32.1529 11.5494ZM36.072 12.735H34.659V11.6052H34.6056C34.3257 12.0515 33.9391 12.3444 33.4726 12.5955C33.006 12.8466 32.4861 12.9442 31.9662 12.9442C31.4064 12.9442 30.8332 12.8466 30.3666 12.6513C29.9 12.456 29.4734 12.1631 29.1402 11.7586C28.8069 11.368 28.527 10.9217 28.3804 10.4195C28.1937 9.93133 28.1004 9.38734 28.1004 8.78755C28.1004 8.18777 28.1937 7.65772 28.3804 7.11373C28.567 6.62554 28.8069 6.17919 29.1402 5.77468C29.4734 5.38412 29.9 5.07725 30.3666 4.88197C30.8332 4.68669 31.353 4.58906 31.9662 4.58906C32.4861 4.58906 33.006 4.6867 33.4726 4.93777C33.9391 5.18884 34.3257 5.5236 34.5523 5.92811H34.6056V0H36.0187V12.735H36.072ZM43.2837 8.14592C43.2837 7.79721 43.2304 7.50429 43.1371 7.21137C43.0438 6.91846 42.8971 6.66738 42.7105 6.47211C42.5239 6.27683 42.2839 6.12339 42.044 5.98391C41.7641 5.88627 41.4841 5.78863 41.0975 5.78863C40.7643 5.78863 40.431 5.84442 40.1511 5.98391C39.8711 6.13734 39.6312 6.27683 39.3912 6.5279C39.2046 6.72318 39.018 6.97425 38.9247 7.26717C38.8314 7.56009 38.7381 7.81116 38.7381 8.06223H43.2704L43.2837 8.14592ZM38.7647 9.37339C38.7647 9.7221 38.858 10.015 39.0047 10.3079C39.1513 10.6009 39.3379 10.8519 39.5645 11.0472C39.8045 11.2425 40.0844 11.3959 40.3644 11.4936C40.6976 11.5912 40.9776 11.647 41.3108 11.647C41.7374 11.647 42.164 11.5494 42.4839 11.2983C42.8172 11.103 43.0971 10.8101 43.377 10.4614L44.4568 11.3541C43.657 12.4421 42.5239 12.9861 41.1109 12.9861C40.4977 12.9861 39.9778 12.8884 39.5112 12.6931C39.0447 12.4979 38.6181 12.2049 38.2848 11.8004C37.9516 11.4099 37.6716 11.0054 37.525 10.4614C37.3384 9.97317 37.2451 9.42919 37.2451 8.8294C37.2451 8.24356 37.3384 7.69957 37.525 7.19742C37.7116 6.70923 37.9916 6.26287 38.3248 5.85837C38.6581 5.46781 39.0847 5.21674 39.5512 4.96567C40.0178 4.77039 40.5377 4.67275 41.1109 4.67275C41.7774 4.67275 42.3373 4.77039 42.8038 5.02146C43.2704 5.27253 43.657 5.56545 43.9369 5.95601C44.2168 6.34657 44.4568 6.79292 44.6034 7.29507C44.7501 7.78326 44.7901 8.28541 44.7901 8.8294V9.37339H38.7647ZM50.3621 6.86266C50.1755 6.66738 49.9889 6.4721 49.7489 6.31867C49.509 6.16524 49.1891 6.0676 48.8558 6.0676C48.5226 6.0676 48.2426 6.16524 47.9627 6.31867C47.7227 6.4721 47.5894 6.66738 47.5894 6.9603C47.5894 7.21138 47.6827 7.40665 47.8294 7.50429C47.976 7.65773 48.1626 7.75537 48.3493 7.85301C48.5359 7.95064 48.7758 8.00644 48.9625 8.04828C49.2024 8.10408 49.389 8.14592 49.5223 8.14592C49.8023 8.24356 50.1355 8.29935 50.3755 8.43884C50.6554 8.53648 50.8954 8.68991 51.082 8.88519C51.2686 9.08047 51.4152 9.27575 51.5485 9.52682C51.6419 9.7779 51.7352 10.0708 51.7352 10.4614C51.7352 10.9077 51.6419 11.2983 51.4552 11.5912C51.2686 11.8841 51.0287 12.177 50.7487 12.3863C50.4688 12.5955 50.1355 12.735 49.7623 12.8326C49.389 12.9303 49.0024 12.9861 48.6825 12.9861C48.0693 12.9861 47.5094 12.8884 47.0295 12.6931C46.563 12.4979 46.1364 12.1491 45.7498 11.6052L46.8296 10.6706C47.0695 10.9217 47.2962 11.117 47.5894 11.3122C47.8827 11.5075 48.2026 11.6052 48.6292 11.6052C48.8158 11.6052 49.0024 11.6052 49.1891 11.5494C49.3757 11.4936 49.5223 11.4517 49.6556 11.3541C49.8023 11.2564 49.8956 11.1588 49.9889 11.0612C50.0822 10.9077 50.1355 10.7682 50.1355 10.6148C50.1355 10.4195 50.0822 10.2242 49.9489 10.0708C49.8023 9.91738 49.669 9.81974 49.4823 9.7221C49.2957 9.62446 49.1091 9.56867 48.9225 9.52682L48.3626 9.37339C48.0826 9.27575 47.7494 9.21996 47.5094 9.12232C47.2295 9.02468 46.9896 8.87124 46.8029 8.73176C46.6163 8.57833 46.4297 8.3412 46.2831 8.09013C46.1364 7.83905 46.0964 7.50429 46.0964 7.15558C46.0964 6.76502 46.1897 6.36051 46.3364 6.0676C46.483 5.77468 46.7096 5.52361 47.0029 5.32833C47.2828 5.13305 47.5628 4.97961 47.896 4.88197C48.2293 4.78433 48.6025 4.72854 48.9358 4.72854C49.4557 4.72854 49.9222 4.82618 50.4021 5.02146C50.8687 5.21674 51.2553 5.56545 51.5352 6.0118L50.3621 6.86266ZM53.1082 0.195282H54.5212V8.18777L57.7338 4.82618H59.6667L56.2275 8.38305L60 12.6234H57.9738L54.5345 8.57833V12.6234H53.1215V0.195282" fill="#00175C"/>
</svg>
