<svg width="1440" height="3513" viewBox="0 0 1440 3513" fill="none" xmlns="http://www.w3.org/2000/svg">
<g filter="url(#filter0_bf_426_94)">
<path fill-rule="evenodd" clip-rule="evenodd" d="M1237.87 3748.87C1477.33 3769.05 1692.99 3546.32 1806.94 3100.69C1898.59 2742.32 1907.77 2305.08 1848.63 1881.62C1848.63 1881.62 1654.95 1421.75 914.079 3578.94C173.212 5736.13 961.153 301.787 961.153 301.787C715.415 270.276 2425 2096.68 2308.55 2552.07C2172.19 3085.32 286.172 2189.39 468.352 2766.66L853.11 3257.76L1237.87 3748.87Z" fill="url(#paint0_linear_426_94)"/>
<path fill-rule="evenodd" clip-rule="evenodd" d="M1237.87 3748.87C1477.33 3769.05 1692.99 3546.32 1806.94 3100.69C1898.59 2742.32 1907.77 2305.08 1848.63 1881.62C1848.63 1881.62 1654.95 1421.75 914.079 3578.94C173.212 5736.13 961.153 301.787 961.153 301.787C715.415 270.276 2425 2096.68 2308.55 2552.07C2172.19 3085.32 286.172 2189.39 468.352 2766.66L853.11 3257.76L1237.87 3748.87Z" fill="url(#paint1_radial_426_94)"/>
<path d="M1436.56 675.642C1641.56 984.078 1784.84 1424.83 1848.63 1881.62C1848.63 1881.62 1654.95 1421.75 914.079 3578.94C173.212 5736.13 961.153 301.787 961.153 301.787C1117.41 321.823 1283 444.61 1436.56 675.642Z" fill="url(#paint2_linear_426_94)"/>
<path d="M1436.56 675.642C1641.56 984.078 1784.84 1424.83 1848.63 1881.62C1848.63 1881.62 1654.95 1421.75 914.079 3578.94C173.212 5736.13 961.153 301.787 961.153 301.787C1117.41 321.823 1283 444.61 1436.56 675.642Z" fill="url(#paint3_radial_426_94)"/>
<path d="M1237.87 3748.87C1077.02 3735.3 905.435 3612.15 746.703 3373.34C634.435 3204.43 540.679 2995.83 468.352 2766.66L853.11 3257.76L1237.87 3748.87Z" fill="url(#paint4_linear_426_94)"/>
<path d="M1237.87 3748.87C1077.02 3735.3 905.435 3612.15 746.703 3373.34C634.435 3204.43 540.679 2995.83 468.352 2766.66L853.11 3257.76L1237.87 3748.87Z" fill="url(#paint5_radial_426_94)"/>
</g>
<g filter="url(#filter1_bf_426_94)">
<path d="M-173.092 1056.3C-280.927 724.8 -415.336 2007.69 -321.27 1435.72C-267.434 1108.38 247.954 477.682 463.027 -899.624C609.278 -1228.34 412.618 -444.77 516.796 -656.019C760.384 -1149.96 130.711 641.332 388.186 500.449C645.661 359.566 1458.48 -1271.92 1586.47 -981.296C1714.46 -690.672 1745.3 -215.537 1672.54 344.768C1599.79 905.072 1429.06 1507.16 1196.06 2025.16C963.067 2543.15 685.839 2936.94 422.343 3124.19C158.847 3311.44 -70.5161 3277.66 -217.791 3029.9C-217.791 3029.9 1483.78 2155.28 985.765 1322.12C870.252 1128.87 792.502 1074.74 662.251 981.101C337.124 747.372 -173.092 1056.3 -173.092 1056.3Z" fill="url(#paint6_radial_426_94)"/>
</g>
<g style="mix-blend-mode:screen" opacity="0.7" filter="url(#filter2_bf_426_94)">
<path d="M145.348 1735.94C283.716 -278.118 1859.63 3156.77 626.798 -347.401C492.721 -1268.07 121.631 -2024.47 -370.293 -1598.1C-862.217 -1171.74 -1152.31 -79.7545 -1018.23 840.917C-813.466 293.122 -346.576 2162.3 145.348 1735.94Z" fill="url(#paint7_linear_426_94)"/>
<path d="M145.348 1735.94C283.716 -278.118 1859.63 3156.77 626.798 -347.401C492.721 -1268.07 121.631 -2024.47 -370.293 -1598.1C-862.217 -1171.74 -1152.31 -79.7545 -1018.23 840.917C-813.466 293.122 -346.576 2162.3 145.348 1735.94Z" fill="url(#paint8_radial_426_94)" style="mix-blend-mode:soft-light"/>
</g>
<g style="mix-blend-mode:color-dodge" filter="url(#filter3_bf_426_94)">
<path d="M-20.51 1173.09C259.253 899.577 535.206 711.721 764.324 638.813C993.442 565.905 1162.85 612.041 1246.12 770.029C1329.4 928.017 1321.87 1188.98 1224.71 1512.22C1127.55 1835.46 946.214 2202.82 708.981 2557.02L34.9716 2240.54L-20.51 1173.09Z" fill="url(#paint9_linear_426_94)"/>
</g>
<defs>
<filter id="filter0_bf_426_94" x="265.969" y="111.384" width="2238.28" height="4163.85" filterUnits="userSpaceOnUse" color-interpolation-filters="sRGB">
<feFlood flood-opacity="0" result="BackgroundImageFix"/>
<feGaussianBlur in="BackgroundImage" stdDeviation="68.8657"/>
<feComposite in2="SourceAlpha" operator="in" result="effect1_backgroundBlur_426_94"/>
<feBlend mode="normal" in="SourceGraphic" in2="effect1_backgroundBlur_426_94" result="shape"/>
<feGaussianBlur stdDeviation="95" result="effect2_foregroundBlur_426_94"/>
</filter>
<filter id="filter1_bf_426_94" x="-490.778" y="-1153.63" width="2339.66" height="4535.07" filterUnits="userSpaceOnUse" color-interpolation-filters="sRGB">
<feFlood flood-opacity="0" result="BackgroundImageFix"/>
<feGaussianBlur in="BackgroundImage" stdDeviation="68.8658"/>
<feComposite in2="SourceAlpha" operator="in" result="effect1_backgroundBlur_426_94"/>
<feBlend mode="normal" in="SourceGraphic" in2="effect1_backgroundBlur_426_94" result="shape"/>
<feGaussianBlur stdDeviation="68.8658" result="effect2_foregroundBlur_426_94"/>
</filter>
<filter id="filter2_bf_426_94" x="-1290.95" y="-1960.17" width="2625.95" height="3999.95" filterUnits="userSpaceOnUse" color-interpolation-filters="sRGB">
<feFlood flood-opacity="0" result="BackgroundImageFix"/>
<feGaussianBlur in="BackgroundImage" stdDeviation="68.8657"/>
<feComposite in2="SourceAlpha" operator="in" result="effect1_backgroundBlur_426_94"/>
<feBlend mode="normal" in="SourceGraphic" in2="effect1_backgroundBlur_426_94" result="shape"/>
<feGaussianBlur stdDeviation="120" result="effect2_foregroundBlur_426_94"/>
</filter>
<filter id="filter3_bf_426_94" x="-270.51" y="355.114" width="1824.03" height="2451.9" filterUnits="userSpaceOnUse" color-interpolation-filters="sRGB">
<feFlood flood-opacity="0" result="BackgroundImageFix"/>
<feGaussianBlur in="BackgroundImage" stdDeviation="68.8657"/>
<feComposite in2="SourceAlpha" operator="in" result="effect1_backgroundBlur_426_94"/>
<feBlend mode="normal" in="SourceGraphic" in2="effect1_backgroundBlur_426_94" result="shape"/>
<feGaussianBlur stdDeviation="125" result="effect2_foregroundBlur_426_94"/>
</filter>
<linearGradient id="paint0_linear_426_94" x1="376.315" y1="948.288" x2="2235.76" y2="1423.79" gradientUnits="userSpaceOnUse">
<stop stop-color="white"/>
<stop offset="1" stop-color="white" stop-opacity="0"/>
</linearGradient>
<radialGradient id="paint1_radial_426_94" cx="0" cy="0" r="1" gradientUnits="userSpaceOnUse" gradientTransform="translate(1091.63 2024.49) rotate(56.3894) scale(1394.86 1116.01)">
<stop offset="0.0619708" stop-color="#E9E9E9"/>
<stop offset="1" stop-color="#29E5FF"/>
</radialGradient>
<linearGradient id="paint2_linear_426_94" x1="376.315" y1="948.288" x2="2235.76" y2="1423.79" gradientUnits="userSpaceOnUse">
<stop stop-color="white"/>
<stop offset="1" stop-color="white" stop-opacity="0"/>
</linearGradient>
<radialGradient id="paint3_radial_426_94" cx="0" cy="0" r="1" gradientUnits="userSpaceOnUse" gradientTransform="translate(1091.63 2024.49) rotate(56.3894) scale(1394.86 1116.01)">
<stop offset="0.0619708" stop-color="#E9E9E9"/>
<stop offset="1" stop-color="#29E5FF"/>
</radialGradient>
<linearGradient id="paint4_linear_426_94" x1="376.315" y1="948.288" x2="2235.76" y2="1423.79" gradientUnits="userSpaceOnUse">
<stop stop-color="white"/>
<stop offset="1" stop-color="white" stop-opacity="0"/>
</linearGradient>
<radialGradient id="paint5_radial_426_94" cx="0" cy="0" r="1" gradientUnits="userSpaceOnUse" gradientTransform="translate(1091.63 2024.49) rotate(56.3894) scale(1394.86 1116.01)">
<stop offset="0.0619708" stop-color="#E9E9E9"/>
<stop offset="1" stop-color="#29E5FF"/>
</radialGradient>
<radialGradient id="paint6_radial_426_94" cx="0" cy="0" r="1" gradientUnits="userSpaceOnUse" gradientTransform="translate(1124.79 1336.42) rotate(71.9807) scale(1350.88 1466.87)">
<stop offset="0.1875" stop-color="#3723B5"/>
<stop offset="0.942708" stop-color="white"/>
</radialGradient>
<linearGradient id="paint7_linear_426_94" x1="-1018.23" y1="840.917" x2="946.367" y2="554.813" gradientUnits="userSpaceOnUse">
<stop offset="0.0001" stop-color="#9B2121"/>
<stop offset="0.385417" stop-color="#FF7E7E"/>
<stop offset="1" stop-color="#FFE8AC" stop-opacity="0"/>
</linearGradient>
<radialGradient id="paint8_radial_426_94" cx="0" cy="0" r="1" gradientUnits="userSpaceOnUse" gradientTransform="translate(-127.525 68.9191) rotate(-40.9163) scale(1272.3 1531.38)">
<stop offset="0.192708" stop-color="#3E56D3" stop-opacity="0.813008"/>
<stop offset="0.53125" stop-color="#515B6A"/>
<stop offset="1" stop-color="#2366B5"/>
</radialGradient>
<linearGradient id="paint9_linear_426_94" x1="-20.51" y1="1173.09" x2="1100.9" y2="2320.13" gradientUnits="userSpaceOnUse">
<stop stop-color="#FFA89F"/>
<stop offset="1" stop-color="#2366B5"/>
</linearGradient>
</defs>
</svg>
