<svg width="123" height="27" viewBox="0 0 123 27" fill="none" xmlns="http://www.w3.org/2000/svg">
<path d="M97.5121 4.79824C97.5121 3.92 98.1626 3.26531 99.0035 3.26531C99.8285 3.26531 100.479 3.92 100.479 4.79824C100.479 5.67647 99.8285 6.33117 99.0035 6.33117C98.1626 6.33117 97.5121 5.67647 97.5121 4.79824ZM99.0035 6.63456C100.003 6.63456 100.844 5.85213 100.844 4.79824C100.844 3.74434 100.003 2.96191 99.0035 2.96191C98.004 2.96191 97.1472 3.74434 97.1472 4.79824C97.1472 5.85213 98.004 6.63456 99.0035 6.63456ZM98.6227 4.94195H98.9876L99.5429 5.85213H99.892L99.3049 4.92598C99.6064 4.89404 99.8444 4.7184 99.8444 4.35113C99.8444 3.92 99.5905 3.74435 99.0987 3.74435H98.2895V5.85213H98.6227V4.94195ZM98.6227 4.67049V4.0158H99.0511C99.2732 4.0158 99.5112 4.06371 99.5112 4.31919C99.5112 4.65452 99.2732 4.67049 99.0035 4.67049H98.6227Z" fill="black"/>
<path d="M18.331 7.44873H7.46308C6.24144 7.44873 5.11498 7.94374 4.25824 8.80601C3.43323 9.65232 2.989 10.7701 3.00485 11.9533C2.989 13.178 3.43323 14.3341 4.27411 15.1836C5.08325 15.9996 6.17797 16.4419 7.33617 16.4323C7.32029 16.4323 14.0632 16.4323 14.0632 16.4323C15.5069 16.4435 16.5858 17.4735 16.6017 18.8818C16.5858 20.2407 15.4276 21.4016 14.0473 21.4192C14.0632 21.4192 2.92554 21.4192 2.92554 21.4192V23.7649H14.0632C16.6968 23.7297 18.8863 21.5389 18.9339 18.8818C18.8863 16.1497 16.792 14.109 14.0632 14.0866H7.32029C6.78086 14.0914 6.28903 13.8934 5.92412 13.5278C5.52749 13.1286 5.32123 12.5697 5.32123 11.9533C5.32123 11.3737 5.52749 10.8499 5.92412 10.4507C6.33663 10.0356 6.87606 9.79603 7.47895 9.79603C7.46308 9.79603 18.331 9.79603 18.331 9.79603V7.44873Z" fill="black"/>
<path d="M38.1938 7.36963V18.4419C38.1938 19.2882 37.8606 20.0786 37.2736 20.6662C36.6866 21.249 35.925 21.5652 35.1 21.5588C33.4183 21.5716 32.038 20.1632 31.9904 18.4163C31.9904 18.4419 31.9904 7.36963 31.9904 7.36963H29.674V18.4419C29.674 18.4514 29.674 18.4594 29.674 18.4674C29.6898 19.2914 29.3884 20.0642 28.8172 20.6439C28.2302 21.2411 27.4369 21.5652 26.5802 21.5588C25.7869 21.5652 25.0571 21.257 24.5018 20.6918C23.9148 20.1009 23.5975 19.3073 23.6133 18.4594C23.6133 18.4419 23.6133 7.36963 23.6133 7.36963H21.2811V18.4419C21.2652 19.9093 21.8205 21.3017 22.8359 22.3444C23.8513 23.3616 25.1682 23.9141 26.5802 23.9029C28.0557 23.9157 29.436 23.3424 30.4673 22.2902C30.6101 22.1433 30.7528 21.9868 30.8798 21.8255C31.8793 23.1029 33.4024 23.9173 35.1 23.9029C36.5279 23.9141 37.8923 23.3568 38.9236 22.3301C39.9549 21.2985 40.526 19.9173 40.5102 18.4419V7.36963H38.1938Z" fill="black"/>
<path d="M56.265 7.30453H51.1722C46.587 7.24065 42.7952 10.9261 42.7317 15.5185C42.7952 20.253 46.587 24.0614 51.1722 24.0406C52.14 24.0582 53.0602 23.8873 53.9328 23.5616V21.1424H53.6631L53.4409 21.2478C52.7429 21.564 52.0131 21.7109 51.2039 21.6965C47.8404 21.7109 45.0957 18.9404 45.0481 15.5201C45.0957 12.1971 47.7769 9.60392 51.1563 9.65183C51.1722 9.65183 53.5996 9.65183 55.091 9.65183V23.6989H57.4232V7.30453H56.265Z" fill="black"/>
<path d="M65.8769 21.558C65.0995 21.55 64.3697 21.2338 63.8144 20.667C63.3067 20.1384 63.037 19.4566 63.0528 18.746C63.0528 18.73 63.0528 13.9332 63.0528 9.65222H68.6217V7.30492H63.0528C63.0528 4.90971 63.0528 3.08936 63.0528 3.08936H60.7365V18.7173C60.6889 20.0314 61.1966 21.3121 62.1485 22.2957C63.1163 23.3176 64.449 23.8877 65.8769 23.9021H69.1769V21.558H65.8769Z" fill="black"/>
<path d="M82.8235 18.0987C81.8557 20.2975 79.6821 21.7091 77.3023 21.6947C75.6364 21.7011 74.0974 21.0624 72.9392 19.8967C71.781 18.7342 71.1623 17.1885 71.1781 15.5422C71.1464 12.1841 73.907 9.42646 77.3023 9.37855C79.2696 9.42646 81.0307 10.3526 82.1095 11.9143L84.0292 10.5761C82.522 8.38853 80.0787 7.09512 77.3181 7.03125C72.5902 7.09512 68.8142 10.9179 68.8459 15.5422C68.8301 17.8033 69.6868 19.943 71.2892 21.5526C72.8916 23.1653 75.0176 24.0484 77.3023 24.0388C80.5864 24.0596 83.6009 22.1035 84.9495 19.0552L82.8235 18.0987Z" fill="black"/>
<path d="M93.6239 7.03346C91.8946 7.00152 90.2128 7.64024 88.896 8.83784V3.08936H86.5637V23.6993H88.896V14.136C88.8801 12.8538 89.372 11.6482 90.2763 10.738C91.1806 9.84384 92.3706 9.34882 93.6239 9.38076C96.3052 9.33285 98.4788 11.4837 98.5264 14.1728C98.5264 14.152 98.5264 23.6993 98.5264 23.6993H100.859V14.152C100.795 10.1472 97.5427 6.96958 93.6239 7.03346Z" fill="black"/>
<path fill-rule="evenodd" clip-rule="evenodd" d="M120.04 7.78271H104.238V23.698H120.04V7.78271ZM114.122 13.7341H118.945V17.7468H114.122V22.7273H110.14V17.7468H105.19V13.7341H110.14V8.89893H114.122V13.7341Z" fill="black"/>
<path d="M104.238 7.78271V7.61476H104.07V7.78271H104.238ZM120.04 7.78271H120.208V7.61476H120.04V7.78271ZM104.238 23.698H104.07V23.866H104.238V23.698ZM120.04 23.698V23.866H120.208V23.698H120.04ZM118.945 13.7341H119.113V13.5661H118.945V13.7341ZM114.122 13.7341H113.954V13.902H114.122V13.7341ZM118.945 17.7468V17.9148H119.113V17.7468H118.945ZM114.122 17.7468V17.5789H113.954V17.7468H114.122ZM114.122 22.7273V22.8952H114.29V22.7273H114.122ZM110.14 22.7273H109.972V22.8952H110.14V22.7273ZM110.14 17.7468H110.308V17.5789H110.14V17.7468ZM105.19 17.7468H105.022V17.9148H105.19V17.7468ZM105.19 13.7341V13.5661H105.022V13.7341H105.19ZM110.14 13.7341V13.902H110.308V13.7341H110.14ZM110.14 8.89893V8.73097H109.972V8.89893H110.14ZM114.122 8.89893H114.29V8.73097H114.122V8.89893ZM104.238 7.95067H120.04V7.61476H104.238V7.95067ZM104.406 23.698V7.78271H104.07V23.698H104.406ZM120.04 23.5301H104.238V23.866H120.04V23.5301ZM119.872 7.78271V23.698H120.208V7.78271H119.872ZM118.945 13.5661H114.122V13.902H118.945V13.5661ZM119.113 17.7468V13.7341H118.777V17.7468H119.113ZM114.122 17.9148H118.945V17.5789H114.122V17.9148ZM114.29 22.7273V17.7468H113.954V22.7273H114.29ZM110.14 22.8952H114.122V22.5593H110.14V22.8952ZM109.972 17.7468V22.7273H110.308V17.7468H109.972ZM105.19 17.9148H110.14V17.5789H105.19V17.9148ZM105.022 13.7341V17.7468H105.358V13.7341H105.022ZM110.14 13.5661H105.19V13.902H110.14V13.5661ZM109.972 8.89893V13.7341H110.308V8.89893H109.972ZM114.122 8.73097H110.14V9.06688H114.122V8.73097ZM114.29 13.7341V8.89893H113.954V13.7341H114.29Z" fill="black"/>
</svg>
