<svg width="113" height="24" viewBox="0 0 113 24" fill="none" xmlns="http://www.w3.org/2000/svg">
<g clip-path="url(#clip0_413_573)">
<path d="M46.9621 4.80104V19.201H44.4622V7.90104H44.4288L39.9623 19.201H38.2957L33.7292 7.90104H33.6959V19.201H31.396V4.80104H34.9959L39.129 15.4677H39.1957L43.5622 4.80104H46.9621ZM49.0287 5.90104C49.0287 5.50104 49.162 5.16771 49.462 4.90104C49.762 4.63438 50.0953 4.50104 50.4953 4.50104C50.9286 4.50104 51.2952 4.63438 51.5619 4.90104C51.8285 5.16771 51.9952 5.50104 51.9952 5.90104C51.9952 6.30104 51.8619 6.63438 51.5619 6.90104C51.2619 7.16771 50.9286 7.30104 50.4953 7.30104C50.0619 7.30104 49.7286 7.16771 49.462 6.90104C49.1953 6.60104 49.0287 6.26771 49.0287 5.90104ZM51.7285 8.86771V19.201H49.2953V8.86771H51.7285ZM59.0949 17.4344C59.4616 17.4344 59.8616 17.3677 60.2949 17.1677C60.7282 17.001 61.1282 16.7677 61.4948 16.501V18.7677C61.0949 19.001 60.6615 19.1677 60.1616 19.2677C59.6616 19.3677 59.1283 19.4344 58.5283 19.4344C56.995 19.4344 55.7617 18.9677 54.8284 18.001C53.8618 17.0344 53.3951 15.801 53.3951 14.3344C53.3951 12.6677 53.8951 11.301 54.8618 10.2344C55.8284 9.16771 57.195 8.63438 58.9949 8.63438C59.4616 8.63438 59.9282 8.70104 60.3615 8.80104C60.8282 8.90104 61.1948 9.06771 61.4615 9.20104V11.5344C61.0948 11.2677 60.6949 11.0344 60.3282 10.901C59.9282 10.7677 59.5282 10.6677 59.1283 10.6677C58.1616 10.6677 57.395 10.9677 56.795 11.601C56.195 12.2344 55.9284 13.0677 55.9284 14.1344C55.9284 15.1677 56.2284 16.001 56.795 16.5677C57.3617 17.1344 58.1283 17.4344 59.0949 17.4344ZM68.3946 8.70104C68.5946 8.70104 68.7612 8.70104 68.9279 8.73438C69.0945 8.76771 69.2279 8.80104 69.3279 8.83438V11.301C69.1945 11.201 69.0279 11.101 68.7612 11.0344C68.4946 10.9677 68.2279 10.901 67.8613 10.901C67.2613 10.901 66.7613 11.1677 66.3613 11.6677C65.9613 12.1677 65.728 12.9344 65.728 14.001V19.201H63.2948V8.86771H65.728V10.501H65.7613C65.9947 9.93437 66.328 9.50104 66.7613 9.16771C67.2279 8.86771 67.7613 8.70104 68.3946 8.70104ZM69.4612 14.201C69.4612 12.501 69.9612 11.1344 70.8945 10.1344C71.8611 9.13438 73.1944 8.63438 74.8943 8.63438C76.4943 8.63438 77.7609 9.10104 78.6608 10.0677C79.5608 11.0344 80.0275 12.3344 80.0275 13.9677C80.0275 15.6344 79.5275 16.9677 78.5942 17.9677C77.6275 18.9677 76.3276 19.4677 74.661 19.4677C73.0611 19.4677 71.7944 19.001 70.8611 18.0677C69.9278 17.101 69.4612 15.801 69.4612 14.201ZM71.9944 14.101C71.9944 15.1677 72.2278 16.001 72.7277 16.5677C73.2277 17.1344 73.9277 17.4344 74.8277 17.4344C75.6943 17.4344 76.3943 17.1677 76.8609 16.5677C77.3276 16.001 77.5609 15.1677 77.5609 14.0344C77.5609 12.9344 77.3276 12.101 76.8609 11.501C76.3943 10.9344 75.6943 10.6344 74.861 10.6344C73.961 10.6344 73.2944 10.9344 72.7944 11.5344C72.2278 12.1677 71.9944 13.001 71.9944 14.101ZM83.6606 11.601C83.6606 11.9344 83.7606 12.2344 83.994 12.4344C84.2273 12.6344 84.6939 12.8677 85.4606 13.1677C86.4272 13.5677 87.1272 14.001 87.4938 14.4677C87.8938 14.9677 88.0938 15.5344 88.0938 16.2344C88.0938 17.201 87.7272 17.9677 86.9605 18.5677C86.2272 19.1677 85.1939 19.4344 83.9273 19.4344C83.494 19.4344 83.0273 19.3677 82.494 19.2677C81.9607 19.1677 81.5274 19.0344 81.1607 18.8677V16.4677C81.5941 16.7677 82.094 17.0344 82.594 17.201C83.094 17.3677 83.5606 17.4677 83.994 17.4677C84.5273 17.4677 84.9606 17.401 85.1939 17.2344C85.4606 17.0677 85.5939 16.8344 85.5939 16.4677C85.5939 16.1344 85.4606 15.8677 85.1939 15.601C84.9273 15.3677 84.394 15.101 83.6606 14.801C82.7607 14.4344 82.1274 14.001 81.7607 13.5344C81.3941 13.0677 81.1941 12.4677 81.1941 11.7344C81.1941 10.801 81.5607 10.0344 82.294 9.43437C83.0273 8.83437 83.994 8.53438 85.1606 8.53438C85.5272 8.53438 85.9272 8.56771 86.3605 8.66771C86.7939 8.76771 87.1938 8.86771 87.4938 8.96771V11.3344C87.1605 11.1344 86.7939 10.9344 86.3605 10.7677C85.9272 10.601 85.4939 10.5344 85.0939 10.5344C84.6273 10.5344 84.2606 10.6344 84.0273 10.801C83.794 11.0344 83.6606 11.2677 83.6606 11.601ZM89.1271 14.201C89.1271 12.501 89.6271 11.1344 90.5604 10.1344C91.527 9.13438 92.8603 8.63438 94.5602 8.63438C96.1602 8.63438 97.4268 9.10104 98.3267 10.0677C99.2267 11.0344 99.6934 12.3344 99.6934 13.9677C99.6934 15.6344 99.1934 16.9677 98.2601 17.9677C97.2934 18.9677 95.9935 19.4677 94.3269 19.4677C92.727 19.4677 91.4603 19.001 90.5271 18.0677C89.6271 17.101 89.1271 15.801 89.1271 14.201ZM91.6603 14.101C91.6603 15.1677 91.8937 16.001 92.3936 16.5677C92.8936 17.1344 93.5936 17.4344 94.4936 17.4344C95.3602 17.4344 96.0602 17.1677 96.5268 16.5677C96.9935 16.001 97.2268 15.1677 97.2268 14.0344C97.2268 12.9344 96.9935 12.101 96.5268 11.501C96.0602 10.9344 95.3602 10.6344 94.5269 10.6344C93.6269 10.6344 92.9603 10.9344 92.4603 11.5344C91.927 12.1677 91.6603 13.001 91.6603 14.101ZM107.793 10.8677H104.16V19.201H101.693V10.8677H99.96V8.86771H101.693V7.43437C101.693 6.36771 102.06 5.46771 102.76 4.76771C103.46 4.06771 104.36 3.73438 105.46 3.73438C105.76 3.73438 106.026 3.76771 106.26 3.76771C106.493 3.76771 106.693 3.83438 106.86 3.90104V6.00104C106.793 5.96771 106.626 5.90104 106.426 5.83438C106.226 5.76771 105.993 5.73438 105.726 5.73438C105.226 5.73438 104.826 5.90104 104.56 6.20104C104.293 6.50104 104.16 7.00104 104.16 7.60104V8.83438H107.793V6.50104L110.226 5.76771V8.83438H112.693V10.8344H110.226V15.6677C110.226 16.301 110.36 16.7344 110.56 17.001C110.793 17.2677 111.16 17.401 111.66 17.401C111.793 17.401 111.96 17.3677 112.16 17.301C112.36 17.2344 112.526 17.1677 112.66 17.0677V19.0677C112.493 19.1677 112.26 19.2344 111.893 19.301C111.526 19.3677 111.193 19.401 110.826 19.401C109.793 19.401 109.026 19.1344 108.526 18.601C108.026 18.0677 107.76 17.2344 107.76 16.1344L107.793 10.8677Z" fill="#00175C"/>
<path d="M11.5628 0H0.162842V11.4H11.5628V0Z" fill="#00175C"/>
<path d="M24.1639 0H12.7639V11.4H24.1639V0Z" fill="#00175C"/>
<path d="M11.5628 12.6016H0.162842V24.0016H11.5628V12.6016Z" fill="#00175C"/>
<path d="M24.1639 12.6016H12.7639V24.0016H24.1639V12.6016Z" fill="#00175C"/>
</g>
<defs>
<clipPath id="clip0_413_573">
<rect width="112.529" height="24" fill="white" transform="translate(0.162842)"/>
</clipPath>
</defs>
</svg>
