<svg width="66" height="25" viewBox="0 0 66 25" fill="none" xmlns="http://www.w3.org/2000/svg">
<g clip-path="url(#clip0_608_709)">
<path d="M1.94556 21.0288H2.44973V22.5414H4.38249V21.0288H4.86991V24.5582H4.38249V22.9448H2.44973V24.5582H1.94556V21.0288Z" fill="black"/>
<path d="M12.6896 23.2809C12.6896 24.1716 12.1518 24.6422 11.2274 24.6422C10.2863 24.6422 9.71484 24.222 9.71484 23.2809V21.0288H10.219V23.2809C10.219 23.9027 10.5888 24.2557 11.2274 24.2557C11.8493 24.2557 12.2022 23.9027 12.2022 23.2809V21.0288H12.6896V23.2809Z" fill="black"/>
<path d="M18.7849 24.6571C17.6757 24.7243 17.0034 23.7832 17.0034 22.8588C17.0034 21.8336 17.5916 20.9429 18.7681 20.9429C19.5748 20.9429 20.2134 21.279 20.3479 22.1193H19.8605C19.7597 21.5815 19.3059 21.3294 18.7681 21.3294C17.8605 21.3294 17.4908 22.0857 17.4908 22.842C17.4908 23.5815 17.9614 24.2874 18.8521 24.2706C19.3059 24.2538 19.6756 24.1697 19.8605 23.8672C19.995 23.6823 19.9613 23.3462 19.9445 23.0941H18.7681V22.6907H20.3815C20.3815 22.6907 20.3815 23.6151 20.3815 24.0185C19.9613 24.5395 19.4572 24.6235 18.7849 24.6571Z" fill="black"/>
<path d="M26.4163 24.2538C27.3071 24.2538 27.6936 23.4975 27.6936 22.7916C27.6936 22.0857 27.3071 21.3294 26.4163 21.3294C25.5088 21.3294 25.139 22.0857 25.139 22.7916C25.139 23.4975 25.5088 24.2538 26.4163 24.2538ZM26.4163 20.9429C27.5928 20.9429 28.181 21.8336 28.181 22.7916C28.181 23.7496 27.5928 24.6403 26.4163 24.6403C25.2398 24.6403 24.6516 23.7496 24.6516 22.7916C24.6516 21.8336 25.2398 20.9429 26.4163 20.9429Z" fill="black"/>
<path d="M38.0799 22.5414H39.0547C39.6093 22.5414 39.8446 22.3565 39.8446 21.9868C39.8446 21.4994 39.4917 21.4154 39.0547 21.4154H38.0799V22.5414ZM38.0799 24.1716H39.3068C39.7269 24.1716 39.9958 23.9195 39.9958 23.533C39.9958 23.0792 39.6093 22.9448 39.1892 22.9448H38.0799V24.1716ZM37.5925 21.0288H38.9203C39.2564 21.0288 39.6765 21.0288 39.895 21.1465C40.1471 21.2977 40.332 21.5498 40.332 21.8859C40.332 22.2725 40.1303 22.5582 39.7942 22.6927C40.2479 22.7767 40.5001 23.1128 40.5001 23.5498C40.5001 24.0708 40.0967 24.5582 39.374 24.5582H37.5925V21.0288Z" fill="black"/>
<path d="M46.6655 24.2538C47.5731 24.2538 47.9428 23.4975 47.9428 22.7916C47.9428 22.0857 47.5731 21.3294 46.6655 21.3294C45.7748 21.3294 45.3882 22.0857 45.3882 22.7916C45.3882 23.4975 45.7748 24.2538 46.6655 24.2538ZM46.6655 20.9429C47.842 20.9429 48.447 21.8336 48.447 22.7916C48.447 23.7496 47.842 24.6403 46.6655 24.6403C45.4891 24.6403 44.9009 23.7496 44.9009 22.7916C44.9009 21.8336 45.4891 20.9429 46.6655 20.9429Z" fill="black"/>
<path d="M55.2211 22.0689C55.1707 21.5479 54.8178 21.3294 54.3136 21.3294C53.8934 21.3294 53.49 21.4807 53.49 21.9345C53.49 22.3714 54.0783 22.4387 54.6665 22.5731C55.2548 22.6908 55.843 22.8924 55.843 23.5983C55.843 24.3378 55.0699 24.6403 54.3976 24.6403C53.5741 24.6403 52.885 24.2538 52.885 23.3966H53.3388C53.3388 23.9848 53.8598 24.2538 54.4144 24.2538C54.8682 24.2538 55.3556 24.1193 55.3556 23.5983C55.3556 23.1109 54.7673 23.0437 54.1791 22.9092C53.5909 22.7916 52.9859 22.6235 52.9859 21.9681C52.9859 21.2622 53.6581 20.9429 54.3303 20.9429C55.0867 20.9429 55.6581 21.279 55.6917 22.0689H55.2211Z" fill="black"/>
<path d="M63.1905 22.0689C63.1233 21.5479 62.7704 21.3294 62.2662 21.3294C61.8628 21.3294 61.4427 21.4807 61.4427 21.9345C61.4427 22.3714 62.0309 22.4387 62.6359 22.5731C63.2241 22.6908 63.8124 22.8924 63.8124 23.5983C63.8124 24.3378 63.0393 24.6403 62.367 24.6403C61.5435 24.6403 60.8376 24.2538 60.8376 23.3966H61.3082C61.3082 23.9848 61.8292 24.2538 62.3838 24.2538C62.8208 24.2538 63.325 24.1193 63.325 23.5983C63.325 23.1109 62.72 23.0437 62.1318 22.9092C61.5435 22.7916 60.9553 22.6235 60.9553 21.9681C60.9553 21.2622 61.6107 20.9429 62.2998 20.9429C63.0393 20.9429 63.6275 21.279 63.6443 22.0689H63.1905Z" fill="black"/>
<path d="M6.28372 2.36986V8.72272H8.58623C8.58623 8.72272 8.78789 8.70591 8.90556 8.6723C10.25 8.55465 11.1072 6.94123 11.1912 5.76477C11.3257 4.50429 10.5526 2.42028 8.61985 2.36986C8.04839 2.35305 6.28372 2.36986 6.28372 2.36986ZM6.28372 9.4622V17.0755H8.36771C8.36771 17.0755 9.54421 17.1596 10.603 16.3025C11.645 15.4621 12.1828 14.2184 12.0652 12.7899C11.9811 11.5126 11.0064 9.6975 8.82151 9.4622C7.66188 9.4622 6.28372 9.4622 6.28372 9.4622ZM11.1912 1.63037C12.9223 1.73121 14.0483 2.65557 14.1492 2.77321C15.0399 3.59673 15.3088 4.84042 15.0903 6.03368C14.8046 8.03365 12.3173 8.87397 12.3173 8.87397C14.4013 9.12607 15.9643 10.6891 16.1995 12.3697C16.4013 14.0168 15.7962 15.4789 14.4349 16.5041C13.0567 17.5293 11.04 17.8655 9.94752 17.8655C9.94752 17.8655 1.51066 17.8655 1.04011 17.8655C1.04011 17.5965 1.04011 17.3949 1.04011 17.1596C2.18293 17.1764 2.31741 17.1764 2.31741 16.7226C2.3006 15.0084 2.31741 3.04212 2.31741 2.7228C2.31741 2.35305 2.1325 2.33625 1.04011 2.33625C1.0233 2.05054 1.05692 1.63037 1.05692 1.63037H11.1912Z" fill="black"/>
<path d="M24.9389 2.50552C23.8297 3.24501 23.0566 4.94248 22.6869 6.35422C22.0986 8.48864 22.2163 11.0096 22.8045 13.5978C23.4095 16.186 25.0734 17.0936 26.065 17.3121C27.9137 17.7322 29.1237 16.6566 29.7792 15.665C31.0565 13.7323 31.3758 9.74913 30.9725 7.46345C30.6027 5.34583 30.0313 3.86685 28.9221 2.87527C27.6784 1.78285 25.8969 1.86688 24.9389 2.50552ZM34.9052 12.5558C34.1321 14.8583 32.5859 16.3037 30.8044 17.2448C28.4683 18.5053 25.1238 18.707 22.7877 17.3121C21.3423 16.4549 17.6617 14.1692 18.1491 8.77435C18.25 7.6147 18.8382 4.70718 22.0819 2.52234C24.3003 1.07697 27.4935 0.656813 30.4683 2.03495C35.1069 4.15256 36.0816 9.37939 34.9052 12.5558Z" fill="black"/>
<path d="M48.5314 2.38644C48.5482 3.59652 48.5314 6.10068 48.5314 6.10068L47.9432 6.11749C47.5902 4.55449 46.8339 3.20996 45.5398 2.58812C44.2962 1.98309 42.4138 1.68057 41.1869 2.75619C40.4643 3.39484 40.3634 4.05029 40.6155 4.78977C41.0525 5.8822 42.2626 6.21833 43.2037 6.63849C43.9768 6.94101 45.6238 7.47882 45.6238 7.47882C47.4557 8.11746 49.4894 9.36114 50.044 11.4283C50.296 12.3191 50.296 13.3275 50.0944 14.235C49.6406 16.2518 48.3465 16.7392 47.607 17.2434C47.2373 17.4955 43.7751 18.8232 39.6072 17.4619C38.75 17.1762 37.7584 16.84 37.7584 16.84V12.3191C37.7584 12.3191 38.2122 12.3359 38.397 12.3359C38.6827 13.0586 38.9349 13.9325 39.5399 14.8064C40.9516 16.8568 42.9516 17.4787 45.1533 17.0081C46.0272 16.8064 46.9852 16.2014 47.2373 15.2938C47.5566 14.2686 47.4557 12.5712 44.3634 11.4283C42.1281 10.4031 39.3214 9.98299 37.9937 7.49562C37.4727 6.10068 37.624 3.68054 39.3382 2.50409C41.0693 1.32763 42.7499 1.05873 44.7835 1.32763C46.8003 1.61334 47.3381 1.88225 48.5314 2.38644Z" fill="black"/>
<path d="M63.2569 2.38644C63.2737 3.59652 63.2569 6.10068 63.2569 6.10068L62.6687 6.11749C62.3157 4.55449 61.5594 3.20996 60.2654 2.58812C59.0216 1.98309 57.1394 1.68057 55.9124 2.75619C55.1898 3.39484 55.0889 4.05029 55.341 4.78977C55.778 5.8822 56.9881 6.21833 57.9292 6.63849C58.7024 6.94101 60.3494 7.47882 60.3494 7.47882C62.1813 8.11746 64.2149 9.36114 64.7695 11.4283C65.0216 12.3191 65.0216 13.3275 64.8199 14.235C64.3661 16.2518 63.0721 16.7392 62.3326 17.2434C61.9628 17.4955 58.5007 18.8232 54.3326 17.4619C53.4755 17.1762 52.4839 16.84 52.4839 16.84V12.3191C52.4839 12.3191 52.9377 12.3359 53.1226 12.3359C53.4083 13.0586 53.6604 13.9325 54.2654 14.8064C55.6772 16.8568 57.6772 17.4787 59.8788 17.0081C60.7527 16.8064 61.7107 16.2014 61.9628 15.2938C62.2821 14.2686 62.1813 12.5712 59.0889 11.4283C56.8536 10.4031 54.0469 9.98299 52.7192 7.49562C52.1982 6.10068 52.3495 3.68054 54.0805 2.50409C55.7948 1.32763 57.4754 1.05873 59.4923 1.32763C61.5258 1.61334 62.0637 1.88225 63.2569 2.38644Z" fill="black"/>
</g>
<defs>
<clipPath id="clip0_608_709">
<rect width="64.4604" height="24" fill="white" transform="translate(0.769775 0.927246)"/>
</clipPath>
</defs>
</svg>
