<svg width="80" height="25" viewBox="0 0 80 25" fill="none" xmlns="http://www.w3.org/2000/svg">
<g clip-path="url(#clip0_608_724)">
<path d="M49.3144 19.5227C44.6992 22.9245 38.0099 24.7395 32.2505 24.7395C24.1748 24.7395 16.9047 21.7525 11.4045 16.7846C10.9724 16.3939 11.3596 15.8615 11.8782 16.1657C17.8139 19.6195 25.1532 21.6972 32.7344 21.6972C37.8474 21.6972 43.472 20.6393 48.6437 18.444C49.425 18.1121 50.0784 18.9557 49.3144 19.5227Z" fill="black"/>
<path d="M51.2368 17.3293C50.6491 16.5757 47.3371 16.9733 45.8505 17.1496C45.3976 17.2049 45.3285 16.8108 45.7365 16.5273C48.3743 14.6708 52.7026 15.2066 53.2074 15.8289C53.7121 16.4547 53.076 20.7934 50.5972 22.8643C50.2169 23.1823 49.8539 23.0129 50.0233 22.5912C50.5799 21.2014 51.828 18.0865 51.2368 17.3293Z" fill="black"/>
<path d="M45.9542 3.4187V1.61406C45.9542 1.34094 46.1616 1.15771 46.4105 1.15771H54.4899C54.7492 1.15771 54.9567 1.3444 54.9567 1.61406V3.15941C54.9532 3.4187 54.7354 3.7575 54.3482 4.29336L50.1616 10.2708C51.7173 10.2328 53.3594 10.4644 54.77 11.2596C55.088 11.4393 55.1745 11.7021 55.1987 11.9614V13.887C55.1987 14.1497 54.9082 14.4574 54.604 14.2984C52.1183 12.995 48.8167 12.8533 46.0683 14.3122C45.7882 14.4643 45.4944 14.1601 45.4944 13.8974V12.0685C45.4944 11.7747 45.4978 11.2734 45.7917 10.8274L50.6421 3.87159H46.4209C46.1616 3.87159 45.9542 3.68836 45.9542 3.4187Z" fill="black"/>
<path d="M16.4826 14.6799H14.0245C13.7894 14.6626 13.6027 14.4863 13.5854 14.2615V1.64634C13.5854 1.39397 13.7963 1.19345 14.0591 1.19345H16.3512C16.5897 1.20381 16.7799 1.38705 16.7972 1.61522V3.26429H16.8421C17.4402 1.67054 18.5638 0.927246 20.078 0.927246C21.6164 0.927246 22.5775 1.67054 23.269 3.26429C23.8636 1.67054 25.2154 0.927246 26.6639 0.927246C27.6941 0.927246 28.8212 1.35248 29.5092 2.30666C30.287 3.36801 30.128 4.9099 30.128 6.26166L30.1245 14.2235C30.1245 14.4759 29.9136 14.6799 29.6509 14.6799H27.1963C26.9509 14.6626 26.7538 14.4655 26.7538 14.2235V7.53735C26.7538 7.00495 26.8022 5.67739 26.6847 5.17265C26.5014 4.32564 25.9517 4.0871 25.2396 4.0871C24.6449 4.0871 24.0226 4.48467 23.7703 5.12079C23.5179 5.75691 23.5421 6.82171 23.5421 7.53735V14.2235C23.5421 14.4759 23.3312 14.6799 23.0685 14.6799H20.6139C20.365 14.6626 20.1714 14.4655 20.1714 14.2235L20.1679 7.53735C20.1679 6.13028 20.3995 4.05944 18.6537 4.05944C16.887 4.05944 16.9562 6.07842 16.9562 7.53735V14.2235C16.9562 14.4759 16.7453 14.6799 16.4826 14.6799Z" fill="black"/>
<path d="M61.9121 0.927246C65.5594 0.927246 67.5334 4.05944 67.5334 8.0421C67.5334 11.8899 65.352 14.9426 61.9121 14.9426C58.3305 14.9426 56.3806 11.8104 56.3806 7.90727C56.3806 3.97992 58.3547 0.927246 61.9121 0.927246ZM61.9328 3.50284C60.1213 3.50284 60.0072 5.97125 60.0072 7.50969C60.0072 9.05159 59.983 12.3428 61.9121 12.3428C63.817 12.3428 63.9069 9.68771 63.9069 8.06975C63.9069 7.00495 63.8619 5.73271 63.5404 4.72321C63.2638 3.8451 62.7141 3.50284 61.9328 3.50284Z" fill="black"/>
<path d="M72.2621 14.6799H69.8144C69.5689 14.6626 69.3719 14.4655 69.3719 14.2235L69.3684 1.60485C69.3892 1.37322 69.5931 1.19345 69.842 1.19345H72.1203C72.3347 1.20381 72.511 1.34902 72.5594 1.54608V3.47518H72.6043C73.2923 1.75005 74.2568 0.927246 75.9543 0.927246C77.0571 0.927246 78.1323 1.32482 78.8238 2.41383C79.4668 3.42332 79.4668 5.12079 79.4668 6.34117V14.2823C79.4391 14.5035 79.2352 14.6799 78.9932 14.6799H76.5282C76.3035 14.6626 76.1168 14.4966 76.0926 14.2823V7.43018C76.0926 6.05077 76.2516 4.03178 74.5542 4.03178C73.9561 4.03178 73.4064 4.43281 73.1333 5.04127C72.7875 5.81222 72.7426 6.57971 72.7426 7.43018V14.2235C72.7391 14.4759 72.5248 14.6799 72.2621 14.6799Z" fill="black"/>
<path d="M7.28939 8.65392V8.12152C5.51241 8.12152 3.63517 8.5018 3.63517 10.5968C3.63517 11.6582 4.18486 12.3773 5.12866 12.3773C5.8201 12.3773 6.43893 11.9521 6.82959 11.2606C7.31359 10.4102 7.28939 9.61155 7.28939 8.65392ZM9.76818 14.6452C9.60569 14.7904 9.3706 14.8008 9.18738 14.704C8.37149 14.0264 8.22628 13.7118 7.77685 13.0653C6.42856 14.4412 5.47438 14.8526 3.72505 14.8526C1.65767 14.8526 0.0466309 13.5769 0.0466309 11.0221C0.0466309 9.02729 1.12872 7.66863 2.66716 7.00485C4.00163 6.41713 5.86504 6.31342 7.28939 6.15093V5.83287C7.28939 5.24861 7.33434 4.55718 6.99208 4.05243C6.6913 3.59954 6.11741 3.41286 5.61267 3.41286C4.67578 3.41286 3.83914 3.8934 3.63517 4.88906C3.59368 5.11033 3.43119 5.32813 3.20994 5.3385L0.824493 5.08267C0.623977 5.03772 0.402718 4.87524 0.458033 4.56755C1.00772 1.67736 3.61788 0.806152 5.95493 0.806152C7.1511 0.806152 8.71374 1.12421 9.65755 2.02999C10.8537 3.14665 10.7396 4.63669 10.7396 6.2581V10.0886C10.7396 11.2399 11.2167 11.7446 11.6662 12.3669C11.8252 12.5882 11.8598 12.8544 11.6592 13.0203C11.158 13.4386 10.266 14.2165 9.77509 14.6521L9.76818 14.6452" fill="black"/>
<path d="M39.1556 8.65392V8.12152C37.3786 8.12152 35.5014 8.5018 35.5014 10.5968C35.5014 11.6582 36.0511 12.3773 36.9949 12.3773C37.6863 12.3773 38.3051 11.9521 38.6958 11.2606C39.1798 10.4102 39.1556 9.61155 39.1556 8.65392ZM41.6344 14.6452C41.4719 14.7904 41.2368 14.8008 41.0536 14.704C40.2377 14.0264 40.0925 13.7118 39.6431 13.0653C38.2948 14.4412 37.3406 14.8526 35.5913 14.8526C33.5239 14.8526 31.9128 13.5769 31.9128 11.0221C31.9128 9.02729 32.9949 7.66863 34.5334 7.00485C35.8678 6.41713 37.7313 6.31342 39.1556 6.15093V5.83287C39.1556 5.24861 39.2005 4.55718 38.8583 4.05243C38.5575 3.59954 37.9836 3.41286 37.4789 3.41286C36.542 3.41286 35.7054 3.8934 35.5014 4.88906C35.4599 5.11033 35.2974 5.32813 35.0761 5.3385L32.6907 5.08267C32.4902 5.03772 32.2689 4.87524 32.3242 4.56755C32.8739 1.67736 35.4841 0.806152 37.8211 0.806152C39.0173 0.806152 40.58 1.12421 41.5238 2.02999C42.7199 3.14665 42.6059 4.63669 42.6059 6.2581V10.0886C42.6059 11.2399 43.0829 11.7446 43.5324 12.3669C43.6914 12.5882 43.726 12.8544 43.5255 13.0203C43.0242 13.4386 42.1322 14.2165 41.6413 14.6521L41.6344 14.6452" fill="black"/>
</g>
<defs>
<clipPath id="clip0_608_724">
<rect width="79.5134" height="24" fill="white" transform="translate(0 0.774902)"/>
</clipPath>
</defs>
</svg>
