<svg width="80" height="24" viewBox="0 0 80 24" fill="none" xmlns="http://www.w3.org/2000/svg">
<g clip-path="url(#clip0_413_596)">
<path d="M49.494 18.7477C44.8789 22.1496 38.1896 23.9646 32.4301 23.9646C24.3545 23.9646 17.0844 20.9776 11.5842 16.0097C11.1521 15.619 11.5393 15.0866 12.0578 15.3908C17.9936 18.8445 25.3329 20.9223 32.9141 20.9223C38.0271 20.9223 43.6517 19.8644 48.8234 17.6691C49.6047 17.3372 50.2581 18.1808 49.494 18.7477Z" fill="#00175C"/>
<path d="M51.4165 16.5544C50.8288 15.8008 47.5168 16.1984 46.0302 16.3747C45.5773 16.43 45.5082 16.0359 45.9161 15.7524C48.554 13.8959 52.8823 14.4317 53.3871 15.054C53.8918 15.6798 53.2557 20.0185 50.7769 22.0894C50.3966 22.4074 50.0336 22.238 50.203 21.8163C50.7596 20.4265 52.0077 17.3116 51.4165 16.5544Z" fill="#00175C"/>
<path d="M46.1339 2.6438V0.839158C46.1339 0.566042 46.3413 0.382812 46.5902 0.382812H54.6696C54.9289 0.382812 55.1363 0.5695 55.1363 0.839158V2.38451C55.1329 2.6438 54.9151 2.9826 54.5279 3.51846L50.3412 9.4959C51.897 9.45788 53.5391 9.6895 54.9497 10.4847C55.2677 10.6644 55.3541 10.9272 55.3783 11.1865V13.1121C55.3783 13.3748 55.0879 13.6825 54.7837 13.5235C52.298 12.2201 48.9964 12.0784 46.248 13.5373C45.9679 13.6894 45.6741 13.3852 45.6741 13.1225V11.2936C45.6741 10.9998 45.6775 10.4985 45.9714 10.0525L50.8218 3.09669H46.6006C46.3413 3.09669 46.1339 2.91346 46.1339 2.6438Z" fill="#00175C"/>
<path d="M16.6622 13.905H14.2042C13.9691 13.8877 13.7824 13.7114 13.7651 13.4866V0.871436C13.7651 0.619063 13.976 0.418546 14.2388 0.418546H16.5309C16.7694 0.428911 16.9596 0.612147 16.9768 0.84032V2.48939H17.0218C17.6199 0.895634 18.7435 0.152344 20.2577 0.152344C21.7961 0.152344 22.7572 0.895634 23.4487 2.48939C24.0433 0.895634 25.395 0.152344 26.8436 0.152344C27.8738 0.152344 29.0009 0.577575 29.6888 1.53175C30.4667 2.5931 30.3077 4.135 30.3077 5.48675L30.3042 13.4486C30.3042 13.701 30.0933 13.905 29.8306 13.905H27.376C27.1305 13.8877 26.9335 13.6906 26.9335 13.4486V6.76245C26.9335 6.23004 26.9819 4.90249 26.8643 4.39774C26.6811 3.55074 26.1314 3.31219 25.4192 3.31219C24.8246 3.31219 24.2023 3.70977 23.9499 4.34589C23.6976 4.98201 23.7218 6.04681 23.7218 6.76245V13.4486C23.7218 13.701 23.5109 13.905 23.2481 13.905H20.7936C20.5446 13.8877 20.351 13.6906 20.351 13.4486L20.3476 6.76245C20.3476 5.35538 20.5792 3.28454 18.8333 3.28454C17.0667 3.28454 17.1359 5.30352 17.1359 6.76245V13.4486C17.1359 13.701 16.925 13.905 16.6622 13.905Z" fill="#00175C"/>
<path d="M62.0918 0.152344C65.7391 0.152344 67.7131 3.28454 67.7131 7.26719C67.7131 11.115 65.5317 14.1677 62.0918 14.1677C58.5101 14.1677 56.5603 11.0355 56.5603 7.13236C56.5603 3.20502 58.5343 0.152344 62.0918 0.152344ZM62.1125 2.72793C60.301 2.72793 60.1869 5.19635 60.1869 6.73479C60.1869 8.27669 60.1627 11.5679 62.0918 11.5679C63.9967 11.5679 64.0866 8.91281 64.0866 7.29485C64.0866 6.23004 64.0416 4.95781 63.7201 3.94831C63.4435 3.07019 62.8938 2.72793 62.1125 2.72793Z" fill="#00175C"/>
<path d="M72.4417 13.905H69.9941C69.7486 13.8877 69.5515 13.6906 69.5515 13.4486L69.5481 0.829948C69.5688 0.598318 69.7728 0.418546 70.0217 0.418546H72.3C72.5143 0.428911 72.6907 0.574119 72.7391 0.771177V2.70028H72.784C73.472 0.97515 74.4365 0.152344 76.134 0.152344C77.2368 0.152344 78.312 0.549918 79.0034 1.63892C79.6465 2.64842 79.6465 4.34589 79.6465 5.56627V13.5074C79.6188 13.7286 79.4148 13.905 79.1728 13.905H76.7079C76.4832 13.8877 76.2965 13.7217 76.2723 13.5074V6.65527C76.2723 5.27587 76.4313 3.25688 74.7338 3.25688C74.1358 3.25688 73.5861 3.65791 73.3129 4.26637C72.9672 5.03732 72.9223 5.80481 72.9223 6.65527V13.4486C72.9188 13.701 72.7045 13.905 72.4417 13.905Z" fill="#00175C"/>
<path d="M7.46933 7.87902V7.34661C5.69234 7.34661 3.8151 7.7269 3.8151 9.82194C3.8151 10.8833 4.36479 11.6024 5.3086 11.6024C6.00003 11.6024 6.61886 11.1772 7.00952 10.4857C7.49352 9.63526 7.46933 8.83665 7.46933 7.87902ZM9.94811 13.8703C9.78563 14.0155 9.55054 14.0259 9.36731 13.9291C8.55142 13.2515 8.40622 12.9369 7.95678 12.2904C6.60849 13.6663 5.65431 14.0777 3.90499 14.0777C1.8376 14.0777 0.226562 12.802 0.226562 10.2472C0.226562 8.25239 1.30866 6.89372 2.84709 6.22995C4.18156 5.64223 6.04497 5.53852 7.46933 5.37603V5.05797C7.46933 4.47371 7.51427 3.78227 7.17201 3.27753C6.87123 2.82464 6.29735 2.63795 5.7926 2.63795C4.85571 2.63795 4.01907 3.1185 3.8151 4.11416C3.77361 4.33542 3.61113 4.55322 3.38987 4.5636L1.00442 4.30776C0.803909 4.26282 0.58265 4.10033 0.637965 3.79265C1.18765 0.902458 3.79781 0.03125 6.13486 0.03125C7.33104 0.03125 8.89368 0.349309 9.83748 1.25509C11.0337 2.37175 10.9196 3.86179 10.9196 5.4832V9.31374C10.9196 10.465 11.3967 10.9697 11.8461 11.592C12.0051 11.8133 12.0397 12.0795 11.8392 12.2454C11.3379 12.6637 10.4459 13.4416 9.95503 13.8772L9.94811 13.8703" fill="#00175C"/>
<path d="M39.3353 7.87902V7.34661C37.5583 7.34661 35.6811 7.7269 35.6811 9.82194C35.6811 10.8833 36.2308 11.6024 37.1746 11.6024C37.866 11.6024 38.4848 11.1772 38.8755 10.4857C39.3595 9.63526 39.3353 8.83665 39.3353 7.87902ZM41.8141 13.8703C41.6516 14.0155 41.4165 14.0259 41.2333 13.9291C40.4174 13.2515 40.2722 12.9369 39.8228 12.2904C38.4745 13.6663 37.5203 14.0777 35.771 14.0777C33.7036 14.0777 32.0925 12.802 32.0925 10.2472C32.0925 8.25239 33.1746 6.89372 34.7131 6.22995C36.0475 5.64223 37.9109 5.53852 39.3353 5.37603V5.05797C39.3353 4.47371 39.3802 3.78227 39.038 3.27753C38.7372 2.82464 38.1633 2.63795 37.6586 2.63795C36.7217 2.63795 35.885 3.1185 35.6811 4.11416C35.6396 4.33542 35.4771 4.55322 35.2558 4.5636L32.8704 4.30776C32.6699 4.26282 32.4486 4.10033 32.5039 3.79265C33.0536 0.902458 35.6638 0.03125 38.0008 0.03125C39.197 0.03125 40.7596 0.349309 41.7035 1.25509C42.8996 2.37175 42.7855 3.86179 42.7855 5.4832V9.31374C42.7855 10.465 43.2626 10.9697 43.7121 11.592C43.8711 11.8133 43.9057 12.0795 43.7052 12.2454C43.2039 12.6637 42.3119 13.4416 41.821 13.8772L41.8141 13.8703" fill="#00175C"/>
</g>
<defs>
<clipPath id="clip0_413_596">
<rect width="79.5134" height="24" fill="white" transform="translate(0.179688)"/>
</clipPath>
</defs>
</svg>
