<svg width="111" height="24" viewBox="0 0 111 24" fill="none" xmlns="http://www.w3.org/2000/svg">
<path d="M87.3772 4.2651C87.3772 3.48444 87.9592 2.9025 88.7115 2.9025C89.4495 2.9025 90.0315 3.48444 90.0315 4.2651C90.0315 5.04575 89.4495 5.62771 88.7115 5.62771C87.9592 5.62771 87.3772 5.04575 87.3772 4.2651ZM88.7115 5.89738C89.6057 5.89738 90.3579 5.20189 90.3579 4.2651C90.3579 3.3283 89.6057 2.63281 88.7115 2.63281C87.8173 2.63281 87.0508 3.3283 87.0508 4.2651C87.0508 5.20189 87.8173 5.89738 88.7115 5.89738ZM88.3708 4.39285H88.6973L89.1941 5.20189H89.5063L88.9811 4.37865C89.2508 4.35026 89.4637 4.19413 89.4637 3.86767C89.4637 3.48444 89.2366 3.32831 88.7966 3.32831H88.0727V5.20189H88.3708V4.39285ZM88.3708 4.15155V3.5696H88.754C88.9528 3.5696 89.1657 3.61218 89.1657 3.83928C89.1657 4.13735 88.9528 4.15155 88.7115 4.15155H88.3708Z" fill="#00175C"/>
<path d="M16.5395 6.62109H6.81675C5.72383 6.62109 4.71606 7.0611 3.9496 7.82757C3.21152 8.57984 2.8141 9.5734 2.82828 10.6252C2.8141 11.7138 3.21152 12.7415 3.9638 13.4966C4.68768 14.2219 5.66705 14.615 6.7032 14.6065C6.689 14.6065 12.7214 14.6065 12.7214 14.6065C14.013 14.6165 14.9782 15.532 14.9924 16.7839C14.9782 17.9918 13.9421 19.0236 12.7072 19.0392C12.7214 19.0392 2.75732 19.0392 2.75732 19.0392V21.1243H12.7214C15.0775 21.0931 17.0363 19.1457 17.0789 16.7839C17.0363 14.3553 15.1627 12.5413 12.7214 12.5215H6.689C6.20641 12.5257 5.7664 12.3497 5.43994 12.0247C5.08511 11.6698 4.90058 11.173 4.90058 10.6252C4.90058 10.1099 5.08511 9.64437 5.43994 9.28953C5.80898 8.92049 6.29158 8.70758 6.83094 8.70758C6.81674 8.70758 16.5395 8.70758 16.5395 8.70758V6.62109Z" fill="#00175C"/>
<path d="M34.3094 6.55078V16.3928C34.3094 17.145 34.0113 17.8476 33.4861 18.37C32.961 18.888 32.2797 19.1691 31.5416 19.1634C30.037 19.1748 28.8022 17.9229 28.7596 16.3701C28.7596 16.3928 28.7596 6.55078 28.7596 6.55078H26.6873V16.3928C26.6873 16.4013 26.6873 16.4084 26.6873 16.4155C26.7015 17.1479 26.4318 17.8349 25.9208 18.3501C25.3957 18.8809 24.686 19.1691 23.9195 19.1634C23.2098 19.1691 22.5569 18.8951 22.0601 18.3927C21.535 17.8675 21.2511 17.1621 21.2653 16.4084C21.2653 16.3928 21.2653 6.55078 21.2653 6.55078H19.1788V16.3928C19.1646 17.6972 19.6614 18.9349 20.5698 19.8617C21.4782 20.7659 22.6562 21.257 23.9195 21.247C25.2395 21.2584 26.4744 20.7488 27.397 19.8135C27.5247 19.6829 27.6525 19.5438 27.766 19.4004C28.6602 20.5359 30.0228 21.2598 31.5416 21.247C32.819 21.257 34.0397 20.7616 34.9623 19.849C35.8849 18.932 36.3959 17.7043 36.3817 16.3928V6.55078H34.3094Z" fill="#00175C"/>
<path d="M50.4764 6.49291H45.9202C41.8182 6.43613 38.4259 9.71207 38.3691 13.7942C38.4259 18.0027 41.8182 21.3879 45.9202 21.3694C46.7861 21.3851 47.6093 21.2332 48.39 20.9436V18.7933H48.1487L47.95 18.8869C47.3254 19.168 46.6725 19.2986 45.9486 19.2858C42.9396 19.2986 40.484 16.8359 40.4414 13.7956C40.484 10.8419 42.8828 8.53682 45.9061 8.5794C45.9202 8.5794 48.0919 8.5794 49.4261 8.5794V21.0657H51.5126V6.49291H50.4764Z" fill="#00175C"/>
<path d="M59.0754 19.1626C58.3799 19.1555 57.727 18.8745 57.2302 18.3706C56.776 17.9008 56.5347 17.2947 56.5489 16.6631C56.5489 16.6489 56.5489 12.3851 56.5489 8.57975H61.531V6.49326H56.5489C56.5489 4.36419 56.5489 2.74609 56.5489 2.74609H54.4766V16.6376C54.434 17.8057 54.8882 18.9441 55.7399 19.8184C56.6057 20.7268 57.798 21.2335 59.0754 21.2463H62.0277V19.1626H59.0754Z" fill="#00175C"/>
<path d="M74.2364 16.0877C73.3705 18.0422 71.426 19.2969 69.2969 19.2842C67.8066 19.2898 66.4298 18.7221 65.3936 17.6859C64.3575 16.6526 63.8039 15.2787 63.8181 13.8153C63.7897 10.8303 66.2595 8.37907 69.2969 8.33649C71.057 8.37907 72.6325 9.20231 73.5976 10.5905L75.3151 9.40102C73.9667 7.45647 71.7808 6.30677 69.3111 6.25C65.0814 6.30677 61.7033 9.70478 61.7316 13.8153C61.7174 15.8251 62.4839 17.7271 63.9175 19.1578C65.3511 20.5914 67.253 21.3763 69.2969 21.3678C72.235 21.3863 74.9319 19.6475 76.1383 16.9379L74.2364 16.0877Z" fill="#00175C"/>
<path d="M83.8988 6.25196C82.3517 6.22358 80.8471 6.79133 79.669 7.85586V2.74609H77.5825V21.066H79.669V12.5654C79.6548 11.4256 80.0948 10.354 80.9039 9.54492C81.7129 8.75008 82.7775 8.31006 83.8988 8.33845C86.2976 8.29587 88.2421 10.2078 88.2847 12.598C88.2847 12.5796 88.2847 21.066 88.2847 21.066H90.3712V12.5796C90.3144 9.01976 87.4047 6.19518 83.8988 6.25196Z" fill="#00175C"/>
<path fill-rule="evenodd" clip-rule="evenodd" d="M107.531 6.91797H93.3943V21.0649H107.531V6.91797ZM102.237 12.2081H106.552V15.7749H102.237V20.202H98.6743V15.7749H94.2458V12.2081H98.6743V7.91016H102.237V12.2081Z" fill="#00175C"/>
<path d="M93.3943 6.91797V6.75001H93.2263V6.91797H93.3943ZM107.531 6.91797H107.699V6.75001H107.531V6.91797ZM93.3943 21.0649H93.2263V21.2329H93.3943V21.0649ZM107.531 21.0649V21.2329H107.699V21.0649H107.531ZM106.552 12.2081H106.72V12.0401H106.552V12.2081ZM102.237 12.2081H102.069V12.376H102.237V12.2081ZM106.552 15.7749V15.9429H106.72V15.7749H106.552ZM102.237 15.7749V15.607H102.069V15.7749H102.237ZM102.237 20.202V20.37H102.405V20.202H102.237ZM98.6743 20.202H98.5063V20.37H98.6743V20.202ZM98.6743 15.7749H98.8422V15.607H98.6743V15.7749ZM94.2458 15.7749H94.0779V15.9429H94.2458V15.7749ZM94.2458 12.2081V12.0401H94.0779V12.2081H94.2458ZM98.6743 12.2081V12.376H98.8422V12.2081H98.6743ZM98.6743 7.91016V7.7422H98.5063V7.91016H98.6743ZM102.237 7.91016H102.405V7.7422H102.237V7.91016ZM93.3943 7.08593H107.531V6.75001H93.3943V7.08593ZM93.5622 21.0649V6.91797H93.2263V21.0649H93.5622ZM107.531 20.897H93.3943V21.2329H107.531V20.897ZM107.363 6.91797V21.0649H107.699V6.91797H107.363ZM106.552 12.0401H102.237V12.376H106.552V12.0401ZM106.72 15.7749V12.2081H106.384V15.7749H106.72ZM102.237 15.9429H106.552V15.607H102.237V15.9429ZM102.405 20.202V15.7749H102.069V20.202H102.405ZM98.6743 20.37H102.237V20.034H98.6743V20.37ZM98.5063 15.7749V20.202H98.8422V15.7749H98.5063ZM94.2458 15.9429H98.6743V15.607H94.2458V15.9429ZM94.0779 12.2081V15.7749H94.4138V12.2081H94.0779ZM98.6743 12.0401H94.2458V12.376H98.6743V12.0401ZM98.5063 7.91016V12.2081H98.8422V7.91016H98.5063ZM102.237 7.7422H98.6743V8.07811H102.237V7.7422ZM102.405 12.2081V7.91016H102.069V12.2081H102.405Z" fill="#00175C"/>
</svg>
