<svg width="94" height="25" viewBox="0 0 94 25" fill="none" xmlns="http://www.w3.org/2000/svg">
<path fill-rule="evenodd" clip-rule="evenodd" d="M17.6268 2.27261C21.4051 4.25974 23.9861 8.22151 23.9861 12.7882C23.9861 17.3549 21.4051 21.3291 17.6268 23.3041V21.9462C19.0717 21.0818 20.294 19.8723 21.1834 18.4407L17.6268 16.997V14.8L21.5288 17.8486C22.3438 16.3427 22.8007 14.627 22.8007 12.7879C22.8007 8.9123 20.7259 5.50611 17.6268 3.62984V2.27261ZM12.1319 0.927246C14.1077 0.927246 15.972 1.4088 17.6268 2.27261V3.63047C16.1079 2.71669 14.3297 2.17393 12.4529 2.11209L13.811 11.8257L17.6268 14.8003V16.9973L12.1069 14.7631L6.62418 17.0095V14.8247L10.4646 11.8254L11.8106 2.11178C9.90877 2.17361 8.14312 2.71669 6.62418 3.62984V2.27261C8.26679 1.4088 10.1436 0.927246 12.1319 0.927246ZM17.6268 23.3041C15.972 24.1679 14.1074 24.6613 12.1319 24.6613C10.1439 24.6613 8.2671 24.1679 6.62449 23.3163V21.9462C8.22994 22.9209 10.1189 23.4765 12.1319 23.4765C14.1324 23.4765 16.0095 22.9209 17.6268 21.9462V23.3041ZM6.62449 23.3163C2.83339 21.3291 0.252686 17.3549 0.252686 12.7882C0.252686 8.22151 2.83339 4.25974 6.62449 2.27261V3.63047C3.5126 5.50642 1.43811 8.90043 1.43811 12.7882C1.43811 14.627 1.90747 16.3677 2.72253 17.8733L6.62449 14.8247V17.0095L3.0804 18.4654C3.96947 19.8854 5.17956 21.0821 6.62449 21.9462V23.3163Z" fill="black"/>
<path d="M71.0383 13.2191H73.4236V13.771H71.0383V13.2191Z" fill="black"/>
<path d="M31.3717 9.87247L31.1582 15.4128V15.5088C31.1582 15.9785 31.297 16.0746 32.0442 16.128V16.3843C31.4998 16.3416 31.2863 16.3309 30.9874 16.3309C30.6885 16.3309 30.475 16.3416 29.9199 16.3843V16.128C30.6672 16.0746 30.7739 15.9892 30.7952 15.4128L31.0194 10.1714V10.1074C31.0194 9.61618 30.87 9.50951 30.1334 9.46681V9.19997C30.5497 9.23195 30.7098 9.24275 31.0087 9.24275C31.4038 9.24275 31.6173 9.23195 32.0228 9.18925L34.0085 14.5908L36.026 9.18925C36.5064 9.23195 36.7306 9.24275 37.0508 9.24275C37.3177 9.24275 37.4885 9.23195 37.894 9.19997V9.46681C37.1682 9.50951 37.008 9.61618 37.008 10.0966V10.1714L37.1255 15.4128C37.1362 15.9892 37.2323 16.0746 38.0009 16.128V16.3843C37.3284 16.3201 37.0722 16.2988 36.6665 16.2988C36.2608 16.2988 36.0046 16.3201 35.3321 16.3843V16.128C36.058 16.0853 36.2181 15.9679 36.2181 15.4662V15.4128L36.122 9.88319L34.3607 14.6442L34.2326 14.9965L34.0831 15.3914L33.9444 15.7971L33.8269 16.1494H33.6668L33.5495 15.8078L33.3999 15.3914L33.2505 14.9751L33.1224 14.6014L31.3717 9.87247Z" fill="black"/>
<path d="M39.3878 13.319C39.4946 12.0914 39.9002 11.4616 40.5835 11.4616C41.2773 11.4616 41.6296 12.0594 41.6937 13.319H39.3878ZM40.7756 16.1158C39.8042 16.1158 39.3772 15.3686 39.3665 13.7033H42.5477C42.5263 12.0594 41.8538 11.184 40.5941 11.184C39.3131 11.184 38.5125 12.2195 38.5125 13.8635C38.5125 15.5074 39.3131 16.4683 40.6902 16.4683C41.7363 16.4683 42.4196 15.8169 42.5584 14.7174H42.1314C42.0032 15.6248 41.5335 16.1158 40.7756 16.1158Z" fill="black"/>
<path d="M43.1845 11.5804V11.3883C43.7929 11.335 44.1559 11.2709 44.5936 11.1427C44.6469 11.5377 44.6683 11.7085 44.6896 12.0287V12.1462C44.9244 11.5377 45.3835 11.1854 45.9385 11.1854C46.4723 11.1854 46.8673 11.5377 46.8673 12.0501C46.8673 12.3597 46.6859 12.5626 46.419 12.5626C46.1734 12.5626 45.9814 12.413 45.9814 12.1996C45.9814 12.1783 45.992 12.1356 46.0027 12.0929L46.024 11.9861V11.89C46.024 11.7405 45.8958 11.6338 45.7037 11.6338C45.1486 11.6338 44.7963 12.3064 44.7963 13.3631V15.5942C44.7963 16.0532 44.9032 16.1386 45.5542 16.1706V16.3843C44.9672 16.3308 44.743 16.3201 44.3694 16.3201C43.9851 16.3201 43.7609 16.3308 43.1738 16.3843V16.1706C43.825 16.1386 43.9424 16.0532 43.9424 15.5942V12.2743V12.1035C43.9317 11.6445 43.8783 11.5911 43.3233 11.5804H43.1845Z" fill="black"/>
<path d="M50.9481 11.088V12.8494H50.7132C50.521 11.9206 50.1262 11.4722 49.4748 11.4722C48.6744 11.4722 48.2045 12.3369 48.2045 13.8635C48.2045 15.358 48.621 16.1158 49.4428 16.1158C50.1048 16.1158 50.4997 15.6461 50.6279 14.7068H51.0654C50.9267 15.849 50.3182 16.4683 49.3575 16.4683C48.1192 16.4683 47.2759 15.422 47.2759 13.8635C47.2759 12.2729 48.1298 11.184 49.3895 11.184C49.8485 11.184 50.1368 11.3014 50.4785 11.6323L50.7666 11.088H50.9481Z" fill="black"/>
<path d="M52.7024 13.319C52.8092 12.0914 53.2149 11.4616 53.8981 11.4616C54.5919 11.4616 54.9442 12.0594 55.0083 13.319H52.7024ZM54.0902 16.1158C53.1189 16.1158 52.6917 15.3686 52.6811 13.7033H55.8623C55.8408 12.0594 55.1684 11.184 53.9088 11.184C52.6277 11.184 51.8271 12.2195 51.8271 13.8635C51.8271 15.5074 52.6277 16.4683 54.0049 16.4683C55.051 16.4683 55.7342 15.8169 55.8729 14.7174H55.446C55.3179 15.6248 54.8482 16.1158 54.0902 16.1158Z" fill="black"/>
<path d="M58.8173 16.1808C58.0486 16.1808 57.6431 15.3803 57.6431 13.8538C57.6431 12.306 58.0166 11.548 58.7852 11.548C59.5751 11.548 59.9808 12.3592 59.9808 13.9286C59.9808 15.4123 59.5858 16.1808 58.8173 16.1808ZM60.8242 15.2735V9.11054C60.2904 9.2528 59.8099 9.3382 59.2122 9.40234V9.58378C59.8847 9.58378 59.9701 9.65855 59.9701 10.2136V12.0817C59.5751 11.4413 59.2656 11.2491 58.6892 11.2491C57.5469 11.2491 56.7463 12.3272 56.7463 13.8645C56.7463 15.4016 57.5576 16.48 58.7212 16.48C59.3296 16.48 59.746 16.2023 60.0448 15.6045C60.0876 16.0101 60.0876 16.0528 60.1944 16.4585C60.632 16.3196 60.8135 16.2769 61.4432 16.2023L61.6033 16.1809V15.9995C60.8881 15.978 60.8242 15.9247 60.8242 15.2735Z" fill="black"/>
<path d="M62.884 13.319C62.9907 12.0914 63.3963 11.4616 64.0795 11.4616C64.7734 11.4616 65.1256 12.0594 65.1897 13.319H62.884ZM64.2718 16.1158C63.3003 16.1158 62.8733 15.3686 62.8626 13.7033H66.0438C66.0224 12.0594 65.3498 11.184 64.0903 11.184C62.8092 11.184 62.0085 12.2195 62.0085 13.8635C62.0085 15.5074 62.8092 16.4683 64.1862 16.4683C65.2324 16.4683 65.9156 15.8169 66.0543 14.7174H65.6274C65.4993 15.6248 65.0296 16.1158 64.2718 16.1158Z" fill="black"/>
<path d="M66.9507 16.48V14.6971L67.1855 14.6864C67.3777 15.6579 67.826 16.1275 68.5733 16.1275C69.2031 16.1275 69.6729 15.7111 69.6729 15.1667C69.6729 14.8037 69.47 14.5582 68.9469 14.3234L68.541 14.1419L68.0501 13.9178C67.2709 13.5548 67.0253 13.2559 67.0253 12.6368C67.0253 11.7935 67.6872 11.2171 68.6266 11.2171C69.043 11.2171 69.3525 11.3132 69.7155 11.5587L69.8969 11.1209H70.0891V12.7755H69.8434C69.7473 11.9216 69.3951 11.516 68.7226 11.516C68.1569 11.516 67.7193 11.9003 67.7193 12.402C67.7193 12.829 67.8792 12.9677 68.8507 13.3947L69.299 13.5869C70.1103 13.9391 70.3986 14.2807 70.3986 14.9106C70.3986 15.8073 69.6836 16.4478 68.6798 16.4478C68.1889 16.4478 67.8045 16.3196 67.399 15.9995L67.1427 16.48H66.9507Z" fill="black"/>
<path d="M76.3333 12.7979C76.8991 12.7979 77.2194 12.8938 77.4649 13.1394C77.7103 13.385 77.8492 13.844 77.8492 14.3563C77.8492 15.4238 77.3154 16.0217 76.3652 16.0217H75.981C75.4153 16.0217 75.3191 15.9362 75.3191 15.4665V12.7979H76.3333ZM75.3191 9.56334H76.2265C77.1232 9.56334 77.5181 10.001 77.5181 10.9938C77.5181 11.4847 77.4009 11.8371 77.1659 12.1146C76.9311 12.3815 76.6429 12.4669 76.0451 12.4669H75.3191V9.56334ZM78.4683 10.9724C78.4683 10.4172 78.2334 9.92622 77.8279 9.61659C77.4649 9.34975 77.0485 9.23228 76.3547 9.23228H73.5471V9.49929C74.3157 9.54191 74.4225 9.62739 74.4225 10.2038V15.3812C74.4225 15.9576 74.337 16.0323 73.5471 16.0964V16.3525H76.2479C77.0378 16.3525 77.4649 16.2565 77.9131 15.9789C78.447 15.6373 78.7992 14.9862 78.7992 14.3137C78.7992 13.7372 78.5538 13.2141 78.1373 12.8938C77.9131 12.7231 77.6783 12.627 77.294 12.5522C78.0627 12.2641 78.4683 11.7197 78.4683 10.9724Z" fill="black"/>
<path d="M80.541 13.319C80.6478 12.0914 81.0535 11.4616 81.7366 11.4616C82.4305 11.4616 82.7828 12.0594 82.8469 13.319H80.541ZM81.9289 16.1158C80.9574 16.1158 80.5304 15.3686 80.5196 13.7033H83.7007C83.6794 12.0594 83.007 11.184 81.7474 11.184C80.4663 11.184 79.6658 12.2195 79.6658 13.8635C79.6658 15.5074 80.4663 16.4683 81.8435 16.4683C82.8896 16.4683 83.5728 15.8169 83.7116 14.7174H83.2846C83.1565 15.6248 82.6868 16.1158 81.9289 16.1158Z" fill="black"/>
<path d="M84.2652 11.6231V11.4417C84.8844 11.3562 85.2474 11.2709 85.6743 11.1214C85.7278 11.3669 85.7597 11.6445 85.7812 12.0502C86.1653 11.4737 86.6031 11.2175 87.2222 11.2175C87.8628 11.2175 88.4178 11.5484 88.6313 12.0714C88.738 12.3276 88.7915 12.6265 88.7915 13.0322V15.5943C88.7915 16.0532 88.8983 16.1387 89.5494 16.1707V16.3843C88.9836 16.3309 88.7701 16.3201 88.3858 16.3201C87.9908 16.3201 87.7773 16.3309 87.2222 16.3843V16.1707C87.7987 16.1494 87.9374 16.0426 87.9374 15.6157V13.0002C87.9374 12.0714 87.66 11.6979 86.9768 11.6979C86.2509 11.6979 85.8666 12.1569 85.8666 13.0322V15.6157C85.8666 16.0426 86.0052 16.1494 86.5604 16.1707V16.3843C86.0052 16.3309 85.7918 16.3201 85.4076 16.3201C85.0339 16.3201 84.8097 16.3309 84.2546 16.3843V16.1707C84.9057 16.1387 85.0125 16.0532 85.0125 15.5943V12.2957V12.1356C85.0018 11.6979 84.9379 11.6338 84.404 11.6338C84.372 11.6338 84.3187 11.6231 84.2652 11.6231Z" fill="black"/>
<path d="M89.9646 16.3525L92.8577 11.5915H91.5446C90.8506 11.5915 90.68 11.7409 90.2957 12.7016H90.0821L90.3276 11.314H93.9999L91.0964 16.0751H92.3452C93.0713 16.0751 93.37 15.7867 93.6902 14.8154H93.9146L93.6368 16.3525H89.9646Z" fill="black"/>
</svg>
