<svg width="148" height="24" viewBox="0 0 148 24" fill="none" xmlns="http://www.w3.org/2000/svg">
<path d="M22.4221 13.1507C22.4375 12.8419 22.4728 12.8274 23.5189 12.6997L24.5172 12.5779L24.5604 12.3343C24.6113 12.0465 24.6087 6.39825 24.5561 3.01765L24.5192 0.644759L24.2451 0.563836C24.0943 0.519327 23.6456 0.459619 23.248 0.43115C22.5108 0.378375 22.4208 0.343147 22.4187 0.106592C22.4178 0.00661239 22.591 0 25.2108 0C29.3762 0 30.5727 0.132601 31.7065 0.719858C32.5414 1.15227 33.1127 1.90872 33.182 2.67357C33.2454 3.37257 32.9397 4.40024 32.4618 5.0949C31.7748 6.09335 30.3228 7.01872 28.8438 7.40063C27.9775 7.62432 27.8386 7.63943 27.8396 7.50991C27.8419 7.20364 27.9058 7.14461 28.4811 6.91691C29.1988 6.63282 29.6748 6.32672 30.0523 5.90644C30.6702 5.21858 30.9104 4.46908 30.8721 3.34907C30.8505 2.71522 30.8295 2.60772 30.6544 2.2335C30.176 1.2113 29.1588 0.669242 27.5338 0.570545L26.8779 0.530705L26.8253 0.798314C26.766 1.10058 26.7757 10.4996 26.8366 11.7348C26.8736 12.4869 26.8842 12.5386 27.0072 12.5726C27.0793 12.5925 27.6043 12.6516 28.1738 12.7038C28.7433 12.756 29.2435 12.8099 29.2854 12.8234C29.3272 12.837 29.3615 12.9176 29.3615 13.0024V13.1565H26.6301C25.1279 13.1565 23.5655 13.1745 23.1583 13.1964C22.5433 13.2294 22.4185 13.2217 22.4221 13.1507Z" fill="#00175C"/>
<path d="M45.0294 13.0783C45.0299 13.0027 45.0504 12.9122 45.0748 12.877C45.0993 12.8419 45.4371 12.779 45.8256 12.7374C46.2141 12.6957 46.6634 12.6291 46.8242 12.5894C47.1165 12.5173 47.1166 12.5172 47.1566 12.2146C47.2428 11.5644 47.1771 0.892433 47.086 0.745111C47.0634 0.708578 46.6117 0.623352 46.0821 0.55572C45.5526 0.488089 45.1147 0.428182 45.1091 0.422592C45.1035 0.417003 45.0801 0.33759 45.0571 0.246116L45.0154 0.0798027H47.8271C49.3736 0.0798027 50.8513 0.0618473 51.1109 0.0399014L51.5829 0L51.5394 0.176078C51.5155 0.272921 51.4774 0.370581 51.4548 0.393101C51.4322 0.41562 50.9846 0.486083 50.4602 0.549684C49.9358 0.613285 49.4864 0.685627 49.4616 0.710446C49.3994 0.772543 49.3747 9.13906 49.4311 11.0042L49.4769 12.5173L49.7783 12.5916C49.944 12.6325 50.3903 12.693 50.77 12.726C51.1497 12.7589 51.4681 12.7936 51.4775 12.803C51.4869 12.8124 51.5116 12.8882 51.5324 12.9713L51.5701 13.1225L48.4355 13.1357C46.7114 13.143 45.2396 13.1639 45.1647 13.1823C45.0535 13.2095 45.0287 13.1903 45.0294 13.0783Z" fill="#00175C"/>
<path d="M75.4111 13.3623C74.3674 12.5109 72.5077 10.5134 70.1267 7.68614C69.8669 7.37765 69.6301 7.12525 69.6006 7.12525C69.3963 7.12525 66.9513 10.8567 66.2766 12.1983L66.0886 12.572L66.678 12.6712C67.0022 12.7258 67.3535 12.7835 67.4586 12.7995C67.6372 12.8265 67.7224 12.9197 67.7221 13.0878C67.722 13.1405 67.0943 13.1604 65.2648 13.1656L62.8076 13.1726L62.8459 13.0443C62.9089 12.8336 63.0011 12.7844 63.4735 12.7097C64.1002 12.6106 64.2652 12.5157 64.7899 11.9531C65.4163 11.2816 68.4421 7.47402 69.0827 6.55125C69.1238 6.49195 69.0225 6.33025 68.7142 5.96359C68.4803 5.68537 67.647 4.5982 66.8624 3.54767C66.0778 2.49713 65.2467 1.41931 65.0155 1.15251C64.6165 0.692015 64.5753 0.66224 64.2031 0.565434C63.9875 0.509345 63.7088 0.461593 63.5837 0.459319C63.3827 0.455662 63.3563 0.437603 63.3563 0.303589C63.3563 0.220214 63.3495 0.141555 63.3412 0.128792C63.3328 0.11603 64.6562 0.0898293 66.2821 0.0705693C69.0446 0.0378425 69.2381 0.0423379 69.2372 0.13925C69.2354 0.337775 69.1433 0.380874 68.5089 0.479971C68.1579 0.534807 67.7956 0.599745 67.7039 0.624279L67.5371 0.668884L67.9512 1.30484C68.775 2.56981 70.4347 4.87546 70.5244 4.87966C70.6523 4.88563 72.801 1.84725 73.3021 0.951964C73.4845 0.626163 73.4708 0.615701 72.6845 0.477929C72.1364 0.381904 72.0966 0.365099 72.0683 0.218152C72.0517 0.13174 72.0425 0.0570218 72.0479 0.0521101C72.0533 0.047198 73.0612 0.0334639 74.2877 0.021589L76.5176 0L76.4787 0.182114C76.4573 0.282277 76.4357 0.369177 76.4308 0.375225C76.4258 0.381275 76.1514 0.44146 75.821 0.50897C75.2386 0.627931 75.21 0.641612 74.891 0.952747C74.5137 1.32084 72.9046 3.14053 71.744 4.51164L70.9538 5.44529L71.4272 6.05295C71.8973 6.65618 72.105 6.94404 74.3014 10.0358C75.2373 11.3532 76.6248 13.26 76.8936 13.5982C76.9409 13.6578 76.8295 13.674 76.3735 13.674H75.7932L75.4111 13.3623Z" fill="#00175C"/>
<path d="M124.212 13.2293C123.195 12.4745 121.029 10.317 118.87 7.90847L118.005 6.94348L117.13 6.98017C116.648 7.00035 116.233 7.03661 116.206 7.06076C116.148 7.11341 116.225 12.2763 116.285 12.3742C116.344 12.469 116.675 12.534 117.532 12.6186C118.238 12.6883 118.269 12.6971 118.305 12.8411C118.326 12.9236 118.334 12.9986 118.325 13.0078C118.315 13.0171 116.86 13.0345 115.092 13.0465L111.878 13.0683C111.87 12.9492 111.881 12.8492 111.954 12.753C111.995 12.7213 112.45 12.6487 112.963 12.5915C113.485 12.5335 113.916 12.4572 113.94 12.419C113.963 12.3812 114.002 12.1179 114.026 11.8337C114.074 11.2578 114.005 1.04952 113.95 0.777661C113.907 0.56246 113.698 0.49491 112.935 0.449299C111.914 0.388334 111.878 0.379193 111.878 0.177373V0L114.066 0.00221252C120.153 0.0083651 121.512 0.213535 122.466 1.27009C123.061 1.92834 123.122 2.79576 122.644 3.77352C122.287 4.50271 121.345 5.48665 120.588 5.92108L120.275 6.10109L120.493 6.47581C120.805 7.01183 122.534 9.59632 123.246 10.5927C123.965 11.5972 124.344 12.0834 125.015 12.8653L125.516 13.4479L125.135 13.5141C124.926 13.5506 124.739 13.5804 124.72 13.5804C124.7 13.5804 124.472 13.4224 124.212 13.2293ZM117.819 6.26954C118.658 6.10185 119.22 5.81595 119.76 5.28184C120.255 4.79199 120.47 4.39703 120.608 3.7211C120.893 2.32394 119.98 1.16767 118.24 0.722833C117.576 0.552988 116.365 0.43821 116.268 0.53585C116.212 0.591268 116.189 1.33581 116.174 3.54143L116.154 6.47334L116.687 6.43126C116.98 6.40811 117.49 6.33534 117.819 6.26954Z" fill="#00175C"/>
<path d="M86.0065 12.9819C86.038 12.7671 85.982 12.7872 86.9908 12.6294L87.6882 12.5204L87.9138 12.0958C88.3455 11.2834 89.252 9.0554 91.0969 4.27239C91.8485 2.32376 92.458 0.652648 92.428 0.622654C92.4136 0.608262 92.1327 0.554973 91.8038 0.504234C90.8879 0.362949 90.9328 0.379011 90.933 0.192734L90.9332 0.0271105L93.8218 0.0078867C96.4851 -0.00983885 96.7074 -0.0035393 96.672 0.0886549C96.6509 0.143651 96.6336 0.222334 96.6336 0.263506C96.6336 0.312209 96.3896 0.376631 95.9352 0.447898C95.551 0.508143 95.223 0.579606 95.2063 0.606704C95.1895 0.6338 95.502 1.57883 95.9005 2.70677C97.3528 6.81658 98.5827 9.97128 99.4214 11.7378L99.771 12.474L100.067 12.5437C100.35 12.6103 101.163 12.7268 101.372 12.7308C101.435 12.7319 101.481 12.7976 101.497 12.9075L101.523 13.0824L98.3354 13.109C96.5822 13.1237 95.1442 13.1337 95.1398 13.1313C95.1354 13.1288 95.1447 13.0423 95.1605 12.939L95.1891 12.7513L96.0178 12.6492C97.065 12.5202 97.1377 12.5015 97.0825 12.3759C97.0137 12.2195 96.4866 10.7297 96.1144 9.63964C95.9265 9.08927 95.6357 8.27736 95.4682 7.83539L95.1636 7.03182H94.8223C93.8773 7.03182 90.7799 7.22514 90.717 7.28804C90.5853 7.41976 89.7353 10.4849 89.5099 11.6411C89.4252 12.0751 89.356 12.4405 89.356 12.453C89.356 12.4994 89.6465 12.5622 90.3264 12.6626C91.0113 12.7638 91.0241 12.7686 91.043 12.9311L91.0622 13.0965L88.8294 13.097C87.6013 13.0973 86.4575 13.1143 86.2876 13.1347L85.9786 13.1718L86.0065 12.9819ZM94.9354 6.33397C94.9036 6.25036 94.8359 6.10138 94.785 6.00291C94.6981 5.83501 93.9235 3.59093 93.3198 1.75836C93.1719 1.3096 93.0418 0.93327 93.0306 0.92207C92.9583 0.849807 90.9935 6.10619 90.9935 6.37177C90.9935 6.40009 91.6826 6.43105 92.5248 6.44056C93.367 6.45007 94.267 6.46419 94.5246 6.47193L94.9932 6.486L94.9354 6.33397Z" fill="#00175C"/>
<path d="M0.182373 22.767C0.190867 22.7352 0.202891 22.7314 0.384257 22.7029C0.671937 22.6578 0.64053 22.6776 0.720088 22.4918C0.826982 22.2421 0.995673 21.8154 1.22674 21.2102C1.47635 20.5564 1.96343 19.2551 1.96967 19.2255C1.97315 19.2089 1.93258 19.198 1.76656 19.1713C1.65246 19.1529 1.55842 19.1374 1.55759 19.1367C1.55676 19.1361 1.55236 19.12 1.54782 19.101L1.53956 19.0664H2.25183H2.9641L2.96006 19.1009C2.95617 19.1342 2.94856 19.1367 2.76239 19.1677C2.65589 19.1855 2.56479 19.2042 2.55996 19.2093C2.55512 19.2144 2.60233 19.3773 2.66488 19.5712C2.99916 20.6079 3.49449 21.9239 3.77477 22.5201L3.83788 22.6543L3.91465 22.6702C3.95687 22.679 4.05988 22.6964 4.14355 22.7089C4.2857 22.7301 4.2963 22.7339 4.3049 22.7662L4.31411 22.8007L3.53479 22.801C3.10617 22.8011 2.75547 22.796 2.75547 22.7897C2.75547 22.7441 2.78547 22.7283 2.88976 22.7191C3.03365 22.7064 3.27297 22.6691 3.29398 22.6561C3.30639 22.6484 3.27906 22.5512 3.19036 22.2875C3.04591 21.8581 2.85875 21.3235 2.79676 21.1631L2.75181 21.0469L2.43207 21.0561C2.11152 21.0654 1.74317 21.0842 1.55572 21.1008L1.45553 21.1097L1.38692 21.3259C1.1807 21.9758 1.01554 22.6238 1.04837 22.6542C1.06327 22.668 1.34013 22.7247 1.39275 22.7247C1.41828 22.7247 1.43222 22.7347 1.44188 22.7601C1.4493 22.7797 1.45537 22.7968 1.45537 22.7982C1.45537 22.7996 1.16691 22.8007 0.814354 22.8007H0.17334L0.182373 22.767ZM2.71398 20.9229C2.71398 20.8984 2.35541 19.8636 2.22937 19.5244L2.14258 19.2908L2.11872 19.3376C2.08286 19.4081 1.9541 19.7381 1.78748 20.1867C1.58319 20.7367 1.53267 20.8841 1.54442 20.8958C1.54995 20.9014 1.75157 20.9094 1.99246 20.9137C2.23335 20.9179 2.49424 20.9226 2.57221 20.924C2.65018 20.9255 2.71398 20.925 2.71398 20.9229Z" fill="#00175C"/>
<path d="M12.6267 22.1523C11.8562 21.1901 10.5911 19.6333 10.5306 19.573L10.4975 19.54L10.5059 20.2465C10.5235 21.7369 10.5513 22.6194 10.5812 22.6379C10.599 22.6489 10.7601 22.6696 10.9957 22.6912C11.0901 22.6999 11.1684 22.7076 11.1696 22.7083C11.1708 22.709 11.1755 22.7244 11.1801 22.7426L11.1884 22.7756H10.4811C9.8975 22.7756 9.77496 22.7725 9.78053 22.758C9.78424 22.7483 9.78728 22.7331 9.78728 22.7241C9.78728 22.7132 9.84498 22.7004 9.96355 22.6851C10.1769 22.6575 10.2327 22.6431 10.2415 22.6134C10.2684 22.5222 10.309 21.463 10.3425 19.9769C10.3527 19.5231 10.3523 19.3681 10.341 19.3611C10.3236 19.3503 10.2514 19.341 9.98719 19.3154C9.88287 19.3053 9.79605 19.2953 9.79426 19.2931C9.79246 19.2909 9.78729 19.2736 9.78276 19.2547L9.77454 19.2203L10.0748 19.2116C10.2399 19.2068 10.4701 19.1995 10.5863 19.1952L10.7976 19.1875L10.8965 19.3241C11.1492 19.6731 11.754 20.4478 12.5613 21.4562C12.8631 21.8332 13.1364 22.1759 13.1688 22.2178L13.2276 22.294L13.2317 21.9933C13.2407 21.3302 13.2016 19.5687 13.1741 19.3992C13.1663 19.3516 13.165 19.3506 13.0846 19.337C13.0398 19.3294 12.9139 19.3131 12.805 19.3008C12.696 19.2885 12.6059 19.2778 12.6046 19.2771C12.6034 19.2764 12.5987 19.2609 12.5941 19.2428L12.5859 19.2098H13.2664C13.9409 19.2098 13.9469 19.21 13.9391 19.2362C13.9347 19.2507 13.9274 19.2666 13.9227 19.2715C13.9181 19.2764 13.8252 19.2962 13.7164 19.3154C13.6075 19.3346 13.516 19.3528 13.513 19.3558C13.504 19.3648 13.4745 19.6829 13.4592 19.9362C13.4411 20.2338 13.4245 20.902 13.4058 22.0822C13.3979 22.587 13.3901 23.0227 13.3887 23.0503C13.3861 23.0992 13.366 23.0755 12.6267 22.1523Z" fill="#00175C"/>
<path d="M76.4016 22.15C75.6195 21.1733 74.3353 19.5931 74.2739 19.5319L74.2403 19.4984L74.2488 20.2156C74.2667 21.7284 74.295 22.6242 74.3253 22.6429C74.3433 22.6541 74.5069 22.6751 74.746 22.6971C74.8418 22.7059 74.9213 22.7137 74.9225 22.7144C74.9238 22.7151 74.9286 22.7308 74.9332 22.7492L74.9416 22.7827H74.2236C73.6313 22.7827 73.5069 22.7796 73.5125 22.7648C73.5163 22.755 73.5194 22.7395 73.5194 22.7305C73.5194 22.7193 73.578 22.7064 73.6983 22.6908C73.9149 22.6628 73.9715 22.6482 73.9804 22.618C74.0078 22.5255 74.049 21.4504 74.083 19.9419C74.0933 19.4813 74.093 19.3239 74.0815 19.3169C74.0638 19.3059 73.9905 19.2965 73.7223 19.2705C73.6164 19.2602 73.5283 19.25 73.5265 19.2478C73.5247 19.2455 73.5194 19.228 73.5148 19.2088L73.5065 19.1739L73.8112 19.1651C73.9788 19.1603 74.2125 19.1528 74.3304 19.1485L74.5449 19.1406L74.6453 19.2793C74.9018 19.6336 75.5157 20.4199 76.3351 21.4435C76.6415 21.8261 76.919 22.174 76.9518 22.2166L77.0115 22.2939L77.0156 21.9887C77.0248 21.3155 76.9851 19.5276 76.9572 19.3555C76.9493 19.3072 76.948 19.3062 76.8664 19.2924C76.8208 19.2847 76.6931 19.2681 76.5825 19.2556C76.4719 19.2431 76.3804 19.2323 76.3792 19.2316C76.3779 19.2308 76.3731 19.2152 76.3685 19.1968L76.3601 19.1633H77.0509C77.7355 19.1633 77.7416 19.1635 77.7337 19.1901C77.7292 19.2048 77.7218 19.221 77.7171 19.2259C77.7124 19.2309 77.6181 19.2509 77.5076 19.2704C77.3971 19.29 77.3042 19.3084 77.3012 19.3114C77.2921 19.3206 77.2621 19.6435 77.2465 19.9006C77.2282 20.2026 77.2114 20.8809 77.1924 22.0789C77.1843 22.5913 77.1765 23.0335 77.175 23.0615C77.1724 23.1112 77.152 23.0871 76.4016 22.15Z" fill="#00175C"/>
<path d="M19.825 22.8133C19.825 22.8119 19.8308 22.7955 19.8379 22.7767C19.8486 22.7487 19.8597 22.7426 19.901 22.7419C19.9753 22.7408 20.367 22.6831 20.3785 22.6716C20.4156 22.6345 20.4182 19.4143 20.3812 19.3772C20.3743 19.3704 20.2782 19.3557 19.9188 19.3067C19.857 19.2983 19.8454 19.2921 19.8379 19.2637L19.829 19.2305H20.6036C21.372 19.2305 21.3782 19.2307 21.3703 19.257C21.3659 19.2716 21.3585 19.2876 21.3538 19.2925C21.3492 19.2974 21.2277 19.3177 21.0838 19.3375L20.8223 19.3736L20.8116 19.4481C20.7976 19.5458 20.7982 22.4397 20.8123 22.5734C20.8251 22.6954 20.7937 22.6803 21.1201 22.7212C21.36 22.7513 21.37 22.7547 21.3776 22.8091C21.3781 22.8127 21.029 22.8157 20.6018 22.8157C20.1745 22.8157 19.825 22.8146 19.825 22.8133Z" fill="#00175C"/>
<path d="M27.3638 22.8092C27.3676 22.7994 27.3707 22.7837 27.3707 22.7743C27.3707 22.7628 27.4196 22.7499 27.5208 22.7346C27.7558 22.6991 27.7681 22.6945 27.7833 22.6363C27.8465 22.3955 28.011 19.4364 28.011 19.3753C28.011 19.362 27.9231 19.3437 27.724 19.3154C27.6359 19.3029 27.5628 19.2919 27.5615 19.291C27.5603 19.2901 27.5555 19.2743 27.5509 19.256L27.5425 19.2227H28.2041C28.7495 19.2227 28.8644 19.2258 28.8588 19.2404C28.8551 19.2502 28.852 19.2654 28.852 19.2743C28.852 19.2841 28.7903 19.3026 28.6924 19.3221C28.6046 19.3396 28.5254 19.3584 28.5165 19.3639C28.5044 19.3714 28.5167 19.4232 28.5643 19.5653C28.7558 20.1371 29.6384 22.0143 29.6665 22.0424C29.671 22.0469 29.677 22.048 29.6799 22.0449C29.7018 22.0221 30.9679 19.3995 30.9679 19.3678C30.9679 19.3598 30.8637 19.336 30.7353 19.3147C30.6031 19.2927 30.5814 19.2826 30.581 19.2427C30.5808 19.2252 30.6578 19.2227 31.195 19.2227C31.701 19.2227 31.808 19.2258 31.8024 19.2404C31.7986 19.2502 31.7956 19.2659 31.7956 19.2753C31.7956 19.2868 31.7466 19.2998 31.6454 19.3152C31.5628 19.3277 31.4707 19.344 31.4408 19.3514L31.3864 19.3648L31.4052 19.4673C31.4836 19.8957 31.4727 22.4002 31.5351 22.6363C31.5504 22.6943 31.565 22.6999 31.7877 22.7343C31.922 22.7551 31.9612 22.7728 31.9612 22.8128C31.9612 22.8226 31.7396 22.827 31.2432 22.827L30.5251 22.8271L30.5303 22.7919C30.5352 22.7584 30.5401 22.7564 30.6391 22.7477C30.7964 22.734 31.0783 22.6932 31.0889 22.6826C31.1002 22.6713 31.091 22.4295 31.0729 21.7457C31.0586 21.2022 31.0827 19.7552 31.0635 19.6899L31.0518 19.6498L31.0154 19.7299C30.9529 19.8675 30.598 20.4589 30.1766 21.363C29.7546 22.2684 29.5901 22.684 29.5581 22.7461L29.5378 22.7853L29.5208 22.7527C29.4997 22.7123 29.0603 21.5593 28.6012 20.4483C28.4077 19.9798 28.1654 19.5939 28.1627 19.5909C28.1508 19.5774 28.176 19.5879 28.1862 20.2836C28.1968 21.007 28.1469 21.4412 28.1431 21.9566C28.1409 22.2656 28.1084 22.6681 28.1229 22.6826C28.1284 22.688 28.2538 22.7078 28.4016 22.7264C28.6657 22.7597 28.6705 22.7608 28.6793 22.794L28.6884 22.8278L28.0227 22.8274C27.474 22.8271 27.3582 22.8239 27.3638 22.8092Z" fill="#00175C"/>
<path d="M90.427 23.2541C90.4756 22.9188 90.5 22.5808 90.5102 22.1034L90.5192 21.6753L90.5671 21.6918L90.6149 21.7083L90.6229 21.8802C90.6367 22.1752 90.6445 22.2195 90.6991 22.3119C90.7628 22.42 90.9266 22.5735 91.043 22.6344C91.1975 22.7153 91.3125 22.744 91.4806 22.7436C91.6532 22.7432 91.757 22.7196 91.8984 22.6487C92.194 22.5005 92.3344 22.1692 92.2467 21.8264C92.1851 21.5857 92.0582 21.4507 91.6138 21.1536C91.2202 20.8904 91.0716 20.7763 90.9418 20.6376C90.6689 20.3459 90.6055 19.9939 90.7672 19.6679C90.8599 19.4809 90.9874 19.3536 91.1743 19.261C91.3533 19.1724 91.4589 19.1509 91.7137 19.1509C91.9574 19.1509 92.142 19.1804 92.2931 19.2436C92.3371 19.262 92.3826 19.2801 92.3943 19.2837C92.4121 19.2893 92.4227 19.2544 92.4593 19.0699L92.5031 18.8494L92.5485 18.8409C92.5736 18.8362 92.5962 18.8345 92.5989 18.8373C92.6016 18.84 92.5922 18.9291 92.5781 19.0353C92.5343 19.3631 92.4989 19.7379 92.4903 19.9645C92.4826 20.1666 92.4804 20.1807 92.4575 20.1743C92.3769 20.1517 92.3834 20.1693 92.3773 19.9573C92.37 19.7065 92.3482 19.6516 92.1962 19.5024C92.0835 19.3917 91.9775 19.3309 91.8326 19.2937C91.7305 19.2675 91.4783 19.2745 91.3792 19.3063C91.0951 19.3974 90.9398 19.6085 90.9583 19.8784C90.9756 20.13 91.0968 20.2554 91.6988 20.6449C92.0193 20.8522 92.1532 20.9544 92.2798 21.088C92.4403 21.2573 92.5284 21.4195 92.5667 21.6161C92.5908 21.7393 92.5766 22.0011 92.5396 22.1186C92.4126 22.5219 92.0805 22.7881 91.6072 22.8663C91.3727 22.905 90.9849 22.8735 90.7369 22.7955C90.6794 22.7774 90.6308 22.7646 90.6289 22.767C90.627 22.7693 90.603 22.8791 90.5757 23.011C90.5131 23.3131 90.5193 23.2931 90.4846 23.3024C90.4237 23.3187 90.4183 23.3142 90.427 23.2541Z" fill="#00175C"/>
<path d="M65.3367 22.8836C64.8483 22.8242 64.4894 22.6579 64.1835 22.3492C63.9127 22.0759 63.7642 21.8003 63.6995 21.4511C63.6639 21.2587 63.6673 20.8932 63.7065 20.7106C63.7913 20.3155 63.9574 20.0104 64.2446 19.7223C64.7257 19.2397 65.3359 19.039 66.1167 19.1065C66.426 19.1332 66.6801 19.2008 66.917 19.3193C67.4204 19.5712 67.7403 19.9777 67.8537 20.5097C67.8816 20.6402 67.8852 20.9549 67.8608 21.1269C67.7237 22.0947 66.9961 22.7783 65.9849 22.8894C65.8141 22.9082 65.5168 22.9055 65.3367 22.8836ZM66.2252 22.6787C66.8648 22.5758 67.3135 22.1369 67.455 21.476C67.4948 21.29 67.4981 20.9457 67.4619 20.7742C67.306 20.0372 66.7483 19.4746 66.0149 19.3142C65.8365 19.2752 65.4593 19.2786 65.269 19.3209C64.4865 19.4947 64.0344 20.0538 64.0344 20.8474C64.0344 21.5108 64.456 22.1789 65.0789 22.5025C65.441 22.6907 65.804 22.7465 66.2252 22.6787Z" fill="#00175C"/>
<path d="M117.724 22.8276C117.724 22.8245 117.729 22.8074 117.736 22.7898C117.747 22.7603 117.757 22.757 117.865 22.7487C118.038 22.7355 118.247 22.7006 118.266 22.6817C118.319 22.6305 118.324 19.437 118.271 19.3839C118.26 19.3727 118.015 19.3336 117.83 19.3135C117.744 19.3042 117.724 19.2928 117.724 19.2541C117.724 19.2365 117.863 19.2341 118.904 19.2344C120.134 19.2347 120.142 19.235 120.502 19.295C120.944 19.3687 121.243 19.5057 121.501 19.7528C121.635 19.8811 121.712 19.9858 121.781 20.1343C121.885 20.3554 121.918 20.5859 121.889 20.8712C121.814 21.5995 121.394 22.1817 120.704 22.5123C120.33 22.6915 119.947 22.7849 119.442 22.8194C119.249 22.8327 117.724 22.8399 117.724 22.8276ZM119.706 22.6462C120.221 22.5918 120.71 22.3736 121.031 22.055C121.23 21.8575 121.374 21.6116 121.446 21.3468C121.478 21.2266 121.481 21.1965 121.481 20.9506C121.481 20.7044 121.478 20.6745 121.445 20.5514C121.403 20.393 121.304 20.1857 121.212 20.0649C120.86 19.6004 120.244 19.3854 119.254 19.3816C119.082 19.381 118.895 19.3854 118.839 19.3914L118.738 19.4024L118.73 19.4513C118.726 19.4782 118.715 19.8535 118.707 20.2853C118.695 20.8871 118.695 21.235 118.707 21.7756C118.715 22.1635 118.726 22.5025 118.73 22.529C118.739 22.5853 118.756 22.5927 118.961 22.628C119.196 22.6685 119.439 22.6745 119.706 22.6462Z" fill="#00175C"/>
<path d="M47.6184 22.6995C47.6229 22.6817 47.6275 22.6668 47.6287 22.6664C47.6299 22.6659 47.7694 22.6508 47.9387 22.6327C48.1079 22.6146 48.2507 22.5955 48.2559 22.5903C48.2611 22.5851 48.2691 22.4255 48.2736 22.2355C48.2841 21.7945 48.2839 19.8689 48.2734 19.6047L48.2654 19.404L47.9675 19.4052C47.5581 19.4069 47.2614 19.4373 47.0304 19.5015C46.9082 19.5354 46.8621 19.5596 46.8477 19.5975C46.8414 19.6142 46.8239 19.697 46.809 19.7814C46.7563 20.0787 46.7599 20.0673 46.7152 20.0828C46.693 20.0906 46.6735 20.0954 46.6717 20.0936C46.67 20.0918 46.6792 19.9737 46.6923 19.8313C46.7228 19.4979 46.7439 19.1608 46.7439 19.0055V18.8828L46.786 18.8914L46.828 18.9L46.8365 19.0205C46.8412 19.0869 46.8486 19.1602 46.853 19.1835L46.861 19.2259L46.974 19.234C47.6415 19.2823 49.5991 19.2805 50.0968 19.2311L50.1813 19.2227L50.2098 19.1062C50.2254 19.0421 50.2387 18.9743 50.2392 18.9555C50.2398 18.9315 50.2488 18.9191 50.2692 18.9136C50.3234 18.8991 50.3459 18.9038 50.3386 18.9281C50.3259 18.9699 50.2794 19.3227 50.2333 19.727C50.2082 19.9474 50.1853 20.13 50.1824 20.1329C50.1795 20.1357 50.16 20.1343 50.1389 20.1297L50.1006 20.1212L50.1024 19.8403L50.1041 19.5594L50.02 19.5314C49.8358 19.4701 49.3759 19.4142 48.9499 19.4014L48.6892 19.3936L48.6789 19.6124C48.6657 19.8962 48.6657 21.6541 48.6789 22.1835L48.6891 22.5933L48.7235 22.6001C48.7424 22.6039 48.8859 22.62 49.0425 22.6358C49.1991 22.6517 49.3282 22.6652 49.3294 22.6659C49.3306 22.6666 49.3352 22.6817 49.3397 22.6995L49.3478 22.7319H48.479H47.6103L47.6184 22.6995Z" fill="#00175C"/>
<path d="M109.688 22.7405C109.177 22.6621 108.813 22.361 108.653 21.8846C108.569 21.6341 108.57 21.6434 108.559 20.5026C108.553 19.9308 108.544 19.4446 108.539 19.4222C108.529 19.3766 108.526 19.3755 108.284 19.3345C108.159 19.3133 108.138 19.3035 108.138 19.2652C108.138 19.2485 108.221 19.2461 108.814 19.2461C109.406 19.2461 109.49 19.2485 109.49 19.2652C109.49 19.2758 109.485 19.2905 109.48 19.298C109.475 19.3056 109.357 19.3268 109.217 19.3452C109.078 19.3635 108.961 19.3815 108.958 19.3851C108.943 19.3997 108.927 20.3017 108.933 20.796C108.939 21.363 108.949 21.4794 109.013 21.7252C109.15 22.2542 109.48 22.5581 109.957 22.593C110.223 22.6124 110.467 22.5728 110.662 22.4783C110.886 22.3701 111.056 22.1344 111.127 21.8357C111.165 21.6787 111.174 21.5757 111.181 21.2106C111.189 20.8762 111.17 19.3974 111.158 19.3858C111.152 19.379 110.837 19.3333 110.72 19.322C110.638 19.3142 110.629 19.3104 110.617 19.2797L110.604 19.2461H111.238H111.872L111.86 19.2794C111.849 19.3105 111.837 19.3151 111.681 19.3464C111.589 19.3648 111.509 19.3865 111.505 19.3944C111.488 19.4216 111.477 20.0613 111.483 20.6047C111.491 21.1859 111.482 21.3864 111.441 21.6031C111.318 22.2592 110.888 22.6671 110.236 22.7465C110.084 22.7651 109.83 22.7623 109.688 22.7405Z" fill="#00175C"/>
<path d="M37.7004 22.767C37.7089 22.7352 37.721 22.7314 37.9023 22.7029C38.19 22.6578 38.1586 22.6776 38.2382 22.4918C38.345 22.2421 38.5137 21.8154 38.7448 21.2102C38.9944 20.5564 39.4815 19.2551 39.4877 19.2255C39.4912 19.2089 39.4506 19.198 39.2846 19.1713C39.1705 19.1529 39.0765 19.1374 39.0757 19.1367C39.0748 19.1361 39.0704 19.12 39.0659 19.101L39.0576 19.0664H39.7699H40.4822L40.4781 19.1009C40.4742 19.1342 40.4666 19.1367 40.2805 19.1677C40.174 19.1855 40.0829 19.2042 40.078 19.2093C40.0732 19.2144 40.1204 19.3773 40.183 19.5712C40.5172 20.6079 41.0126 21.9239 41.2928 22.5201L41.3559 22.6543L41.4327 22.6702C41.4749 22.679 41.5779 22.6964 41.6616 22.7089C41.8038 22.7301 41.8144 22.7339 41.823 22.7662L41.8322 22.8007L41.0529 22.801C40.6242 22.8011 40.2735 22.796 40.2735 22.7897C40.2735 22.7441 40.3035 22.7283 40.4078 22.7191C40.5517 22.7064 40.791 22.6691 40.812 22.6561C40.8245 22.6484 40.7971 22.5512 40.7084 22.2875C40.564 21.8581 40.3768 21.3235 40.3148 21.1631L40.2699 21.0469L39.9501 21.0561C39.6296 21.0654 39.2612 21.0842 39.0738 21.1008L38.9736 21.1097L38.905 21.3259C38.6988 21.9758 38.5336 22.6238 38.5664 22.6542C38.5813 22.668 38.8582 22.7247 38.9108 22.7247C38.9363 22.7247 38.9503 22.7347 38.9599 22.7601C38.9674 22.7797 38.9734 22.7968 38.9734 22.7982C38.9734 22.7996 38.685 22.8007 38.3324 22.8007H37.6914L37.7004 22.767ZM40.232 20.9229C40.232 20.8984 39.8735 19.8636 39.7474 19.5244L39.6606 19.2908L39.6368 19.3376C39.6009 19.4081 39.4722 19.7381 39.3056 20.1867C39.1013 20.7367 39.0507 20.8841 39.0625 20.8958C39.068 20.9014 39.2696 20.9094 39.5105 20.9137C39.7514 20.9179 40.0123 20.9226 40.0903 20.924C40.1682 20.9255 40.232 20.925 40.232 20.9229Z" fill="#00175C"/>
<path d="M56.2024 22.8133C56.2024 22.8119 56.2082 22.7955 56.2153 22.7767C56.226 22.7487 56.2372 22.7426 56.2784 22.7419C56.3527 22.7408 56.7444 22.6831 56.756 22.6716C56.793 22.6345 56.7956 19.4143 56.7586 19.3772C56.7517 19.3704 56.6557 19.3557 56.2963 19.3067C56.2344 19.2983 56.2229 19.2921 56.2153 19.2637L56.2065 19.2305H56.9811C57.7495 19.2305 57.7556 19.2307 57.7477 19.257C57.7433 19.2716 57.7359 19.2876 57.7313 19.2925C57.7266 19.2974 57.6051 19.3177 57.4613 19.3375L57.1997 19.3736L57.1891 19.4481C57.1751 19.5458 57.1757 22.4397 57.1897 22.5734C57.2026 22.6954 57.1711 22.6803 57.4975 22.7212C57.7374 22.7513 57.7474 22.7547 57.7551 22.8091C57.7556 22.8127 57.4064 22.8157 56.9792 22.8157C56.552 22.8157 56.2024 22.8146 56.2024 22.8133Z" fill="#00175C"/>
<path d="M99.6164 22.6995C99.6209 22.6817 99.6255 22.6668 99.6267 22.6664C99.6279 22.6659 99.7674 22.6508 99.9367 22.6327C100.106 22.6146 100.249 22.5955 100.254 22.5903C100.259 22.5851 100.267 22.4255 100.272 22.2355C100.282 21.7945 100.282 19.8689 100.271 19.6047L100.263 19.404L99.9656 19.4052C99.5561 19.4069 99.2594 19.4373 99.0285 19.5015C98.9062 19.5354 98.8602 19.5596 98.8458 19.5975C98.8394 19.6142 98.822 19.697 98.807 19.7814C98.7543 20.0787 98.7579 20.0673 98.7132 20.0828C98.6911 20.0906 98.6715 20.0954 98.6698 20.0936C98.668 20.0918 98.6773 19.9737 98.6903 19.8313C98.7208 19.4979 98.7419 19.1608 98.7419 19.0055V18.8828L98.784 18.8914L98.8261 18.9L98.8346 19.0205C98.8393 19.0869 98.8467 19.1602 98.8511 19.1835L98.859 19.2259L98.972 19.234C99.6396 19.2823 101.597 19.2805 102.095 19.2311L102.179 19.2227L102.208 19.1062C102.223 19.0421 102.237 18.9743 102.237 18.9555C102.238 18.9315 102.247 18.9191 102.267 18.9136C102.321 18.8991 102.344 18.9038 102.337 18.9281C102.324 18.9699 102.277 19.3227 102.231 19.727C102.206 19.9474 102.183 20.13 102.18 20.1329C102.178 20.1357 102.158 20.1343 102.137 20.1297L102.099 20.1212L102.1 19.8403L102.102 19.5594L102.018 19.5314C101.834 19.4701 101.374 19.4142 100.948 19.4014L100.687 19.3936L100.677 19.6124C100.664 19.8962 100.664 21.6541 100.677 22.1835L100.687 22.5933L100.722 22.6001C100.74 22.6039 100.884 22.62 101.041 22.6358C101.197 22.6517 101.326 22.6652 101.327 22.6659C101.329 22.6666 101.333 22.6817 101.338 22.6995L101.346 22.7319H100.477H99.6083L99.6164 22.6995Z" fill="#00175C"/>
<path d="M136.889 22.8836C136.4 22.8242 136.041 22.6579 135.735 22.3492C135.465 22.0759 135.316 21.8003 135.251 21.4511C135.216 21.2587 135.219 20.8932 135.258 20.7106C135.343 20.3155 135.509 20.0104 135.796 19.7223C136.278 19.2397 136.888 19.039 137.669 19.1065C137.978 19.1332 138.232 19.2008 138.469 19.3193C138.972 19.5712 139.292 19.9777 139.406 20.5097C139.433 20.6402 139.437 20.9549 139.413 21.1269C139.276 22.0947 138.548 22.7783 137.537 22.8894C137.366 22.9082 137.069 22.9055 136.889 22.8836ZM137.777 22.6787C138.417 22.5758 138.865 22.1369 139.007 21.476C139.047 21.29 139.05 20.9457 139.014 20.7742C138.858 20.0372 138.3 19.4746 137.567 19.3142C137.388 19.2752 137.011 19.2786 136.821 19.3209C136.038 19.4947 135.586 20.0538 135.586 20.8474C135.586 21.5108 136.008 22.1789 136.631 22.5025C136.993 22.6907 137.356 22.7465 137.777 22.6787Z" fill="#00175C"/>
<path d="M127.754 22.8133C127.754 22.8119 127.76 22.7955 127.767 22.7767C127.778 22.7487 127.789 22.7426 127.83 22.7419C127.905 22.7408 128.296 22.6831 128.308 22.6716C128.345 22.6345 128.348 19.4143 128.311 19.3772C128.304 19.3704 128.208 19.3557 127.848 19.3067C127.786 19.2983 127.775 19.2921 127.767 19.2637L127.758 19.2305H128.533C129.301 19.2305 129.308 19.2307 129.3 19.257C129.295 19.2716 129.288 19.2876 129.283 19.2925C129.279 19.2974 129.157 19.3177 129.013 19.3375L128.752 19.3736L128.741 19.4481C128.727 19.5458 128.728 22.4397 128.742 22.5734C128.755 22.6954 128.723 22.6803 129.05 22.7212C129.289 22.7513 129.299 22.7547 129.307 22.8091C129.308 22.8127 128.958 22.8157 128.531 22.8157C128.104 22.8157 127.754 22.8146 127.754 22.8133Z" fill="#00175C"/>
<path d="M145.331 23.2541C145.38 22.9188 145.404 22.5808 145.414 22.1034L145.423 21.6753L145.471 21.6918L145.519 21.7083L145.527 21.8802C145.541 22.1752 145.549 22.2195 145.603 22.3119C145.667 22.42 145.831 22.5735 145.947 22.6344C146.102 22.7153 146.217 22.744 146.385 22.7436C146.557 22.7432 146.661 22.7196 146.803 22.6487C147.098 22.5005 147.239 22.1692 147.151 21.8264C147.089 21.5857 146.962 21.4507 146.518 21.1536C146.124 20.8904 145.976 20.7763 145.846 20.6376C145.573 20.3459 145.51 19.9939 145.671 19.6679C145.764 19.4809 145.892 19.3536 146.078 19.261C146.257 19.1724 146.363 19.1509 146.618 19.1509C146.862 19.1509 147.046 19.1804 147.197 19.2436C147.241 19.262 147.287 19.2801 147.298 19.2837C147.316 19.2893 147.327 19.2544 147.364 19.0699L147.407 18.8494L147.453 18.8409C147.478 18.8362 147.5 18.8345 147.503 18.8373C147.506 18.84 147.496 18.9291 147.482 19.0353C147.439 19.3631 147.403 19.7379 147.394 19.9645C147.387 20.1666 147.385 20.1807 147.362 20.1743C147.281 20.1517 147.288 20.1693 147.281 19.9573C147.274 19.7065 147.252 19.6516 147.1 19.5024C146.988 19.3917 146.882 19.3309 146.737 19.2937C146.635 19.2675 146.382 19.2745 146.283 19.3063C145.999 19.3974 145.844 19.6085 145.862 19.8784C145.88 20.13 146.001 20.2554 146.603 20.6449C146.923 20.8522 147.057 20.9544 147.184 21.088C147.344 21.2573 147.433 21.4195 147.471 21.6161C147.495 21.7393 147.481 22.0011 147.444 22.1186C147.317 22.5219 146.985 22.7881 146.511 22.8663C146.277 22.905 145.889 22.8735 145.641 22.7955C145.584 22.7774 145.535 22.7646 145.533 22.767C145.531 22.7693 145.507 22.8791 145.48 23.011C145.417 23.3131 145.424 23.2931 145.389 23.3024C145.328 23.3187 145.322 23.3142 145.331 23.2541Z" fill="#00175C"/>
</svg>
