<svg width="154" height="25" viewBox="0 0 154 25" fill="none" xmlns="http://www.w3.org/2000/svg">
<path d="M23.9764 14.3145C23.9924 13.9966 24.0291 13.9817 25.1161 13.8503L26.1534 13.7248L26.1982 13.474C26.2511 13.1777 26.2485 7.3624 26.1938 3.8818L26.1554 1.43873L25.8706 1.35542C25.714 1.30959 25.2477 1.24812 24.8345 1.2188C24.0686 1.16447 23.9751 1.1282 23.9729 0.884647C23.972 0.78171 24.152 0.774902 26.874 0.774902C31.2021 0.774902 32.4454 0.911425 33.6235 1.51605C34.4909 1.96125 35.0845 2.74008 35.1566 3.52755C35.2224 4.24722 34.9048 5.30529 34.4082 6.02049C33.6944 7.04848 32.1857 8.00122 30.6489 8.39442C29.7488 8.62473 29.6045 8.64029 29.6055 8.50694C29.6079 8.19161 29.6743 8.13083 30.272 7.8964C31.0178 7.60391 31.5124 7.28875 31.9046 6.85604C32.5466 6.14784 32.7963 5.37617 32.7565 4.22303C32.734 3.57044 32.7121 3.45976 32.5302 3.07447C32.0332 2.02203 30.9763 1.46394 29.2878 1.36232L28.6062 1.3213L28.5516 1.59683C28.49 1.90803 28.5 11.5851 28.5633 12.8568C28.6018 13.6311 28.6128 13.6843 28.7406 13.7194C28.8155 13.7399 29.361 13.8007 29.9527 13.8544C30.5445 13.9082 31.0642 13.9636 31.1077 13.9776C31.1512 13.9916 31.1868 14.0745 31.1868 14.1618V14.3206H28.3488C26.7879 14.3206 25.1645 14.339 24.7413 14.3616C24.1024 14.3956 23.9727 14.3877 23.9764 14.3145Z" fill="black"/>
<path d="M47.4663 14.24C47.4668 14.1622 47.488 14.069 47.5134 14.0328C47.5388 13.9966 47.8899 13.9319 48.2935 13.889C48.6972 13.8461 49.1641 13.7775 49.3311 13.7367C49.6348 13.6624 49.6349 13.6624 49.6765 13.3508C49.766 12.6814 49.6978 1.69373 49.6032 1.54205C49.5797 1.50444 49.1103 1.41669 48.5601 1.34706C48.0098 1.27743 47.5549 1.21575 47.549 1.20999C47.5432 1.20424 47.5189 1.12248 47.495 1.0283L47.4517 0.857065H50.3732C51.9801 0.857065 53.5155 0.838579 53.7852 0.815984L54.2757 0.774902L54.2305 0.956188C54.2056 1.0559 54.166 1.15644 54.1425 1.17963C54.119 1.20282 53.654 1.27536 53.1091 1.34084C52.5642 1.40633 52.0973 1.48081 52.0715 1.50636C52.0069 1.5703 51.9812 10.1843 52.0399 12.1046L52.0875 13.6624L52.4006 13.739C52.5728 13.7811 53.0365 13.8433 53.431 13.8773C53.8256 13.9112 54.1564 13.9469 54.1661 13.9566C54.1759 13.9663 54.2016 14.0443 54.2232 14.1299L54.2624 14.2855L51.0053 14.2991C49.214 14.3066 47.6846 14.3282 47.6068 14.3471C47.4913 14.3751 47.4655 14.3554 47.4663 14.24Z" fill="black"/>
<path d="M79.0346 14.5324C77.9502 13.6559 76.0179 11.5992 73.5439 8.68838C73.2739 8.37076 73.0279 8.1109 72.9972 8.1109C72.785 8.1109 70.2445 11.9528 69.5434 13.334L69.3481 13.7188L69.9605 13.8209C70.2973 13.8771 70.6623 13.9365 70.7716 13.9529C70.9572 13.9808 71.0456 14.0767 71.0453 14.2498C71.0453 14.3041 70.393 14.3246 68.4921 14.3299L65.939 14.3371L65.9788 14.2051C66.0442 13.9881 66.14 13.9375 66.6309 13.8605C67.282 13.7585 67.4535 13.6608 67.9987 13.0816C68.6495 12.3902 71.7935 8.46999 72.4591 7.51992C72.5019 7.45887 72.3965 7.29238 72.0762 6.91488C71.8332 6.62843 70.9673 5.50911 70.1521 4.4275C69.3369 3.34589 68.4733 2.23619 68.2331 1.9615C67.8185 1.48739 67.7757 1.45673 67.389 1.35706C67.1649 1.29931 66.8753 1.25015 66.7454 1.24781C66.5365 1.24404 66.5091 1.22545 66.5091 1.08747C66.5091 1.00163 66.502 0.920644 66.4934 0.907503C66.4847 0.894364 67.8598 0.867389 69.5491 0.847559C72.4195 0.813864 72.6205 0.818493 72.6196 0.918271C72.6178 1.12267 72.5221 1.16704 71.8629 1.26907C71.4982 1.32553 71.1217 1.39239 71.0264 1.41765L70.8531 1.46357L71.2835 2.11833C72.1394 3.42073 73.8639 5.79456 73.9571 5.79889C74.09 5.80504 76.3226 2.67679 76.8433 1.75502C77.0328 1.41959 77.0186 1.40881 76.2016 1.26697C75.6321 1.1681 75.5907 1.1508 75.5613 0.999507C75.5441 0.910539 75.5345 0.833611 75.5401 0.828554C75.5457 0.823496 76.593 0.809356 77.8674 0.79713L80.1844 0.774902L80.1439 0.962403C80.1217 1.06553 80.0993 1.155 80.0941 1.16123C80.089 1.16745 79.8039 1.22942 79.4605 1.29893C78.8554 1.42141 78.8257 1.43549 78.4942 1.75583C78.1022 2.13481 76.4302 4.00832 75.2244 5.41998L74.4032 6.38125L74.8952 7.00688C75.3836 7.62796 75.5994 7.92433 77.8816 11.1076C78.8541 12.4639 80.2957 14.4271 80.5751 14.7753C80.6242 14.8367 80.5084 14.8534 80.0347 14.8534H79.4317L79.0346 14.5324Z" fill="black"/>
<path d="M129.741 14.3955C128.684 13.6184 126.433 11.397 124.19 8.91728L123.291 7.92376L122.382 7.96153C121.882 7.9823 121.45 8.01964 121.422 8.0445C121.362 8.09871 121.442 13.4143 121.505 13.5151C121.565 13.6127 121.91 13.6796 122.801 13.7667C123.534 13.8385 123.566 13.8475 123.603 13.9958C123.625 14.0807 123.634 14.158 123.624 14.1675C123.613 14.177 122.102 14.1949 120.265 14.2072L116.926 14.2297C116.917 14.1071 116.929 14.0042 117.004 13.9051C117.047 13.8725 117.519 13.7977 118.053 13.7388C118.595 13.6791 119.043 13.6006 119.067 13.5612C119.092 13.5223 119.132 13.2512 119.157 12.9586C119.207 12.3657 119.135 1.85547 119.079 1.57557C119.034 1.354 118.817 1.28445 118.023 1.23749C116.963 1.17472 116.926 1.16531 116.926 0.957522V0.774902L119.199 0.77718C125.523 0.783515 126.935 0.994753 127.927 2.08256C128.545 2.76028 128.609 3.65336 128.111 4.66003C127.74 5.4108 126.762 6.42383 125.976 6.87111L125.65 7.05645L125.877 7.44226C126.201 7.99412 127.997 10.6551 128.738 11.6809C129.485 12.7152 129.878 13.2157 130.576 14.0207L131.096 14.6205L130.7 14.6887C130.483 14.7263 130.289 14.7569 130.269 14.7569C130.249 14.7569 130.011 14.5943 129.741 14.3955ZM123.098 7.22988C123.971 7.05723 124.554 6.76287 125.115 6.21297C125.63 5.70862 125.853 5.30198 125.996 4.60607C126.292 3.16758 125.343 1.97711 123.536 1.51912C122.846 1.34425 121.588 1.22607 121.486 1.3266C121.429 1.38366 121.405 2.15022 121.389 4.42108L121.368 7.4397L121.922 7.39638C122.227 7.37255 122.756 7.29763 123.098 7.22988Z" fill="black"/>
<path d="M90.0436 14.1408C90.0764 13.9196 90.0182 13.9403 91.0663 13.7779L91.791 13.6656L92.0254 13.2285C92.4739 12.3921 93.4158 10.0981 95.3328 5.17366C96.1137 3.16739 96.747 1.44685 96.7158 1.41597C96.7009 1.40116 96.409 1.34629 96.0673 1.29405C95.1156 1.14859 95.1623 1.16512 95.1625 0.973337L95.1627 0.802815L98.1641 0.783022C100.931 0.764772 101.162 0.771258 101.126 0.866179C101.104 0.922802 101.086 1.00381 101.086 1.0462C101.086 1.09635 100.832 1.16267 100.36 1.23605C99.9609 1.29808 99.6201 1.37165 99.6027 1.39955C99.5853 1.42745 99.9099 2.40043 100.324 3.56173C101.833 7.7931 103.111 11.0411 103.982 12.8598L104.346 13.6179L104.653 13.6897C104.947 13.7582 105.792 13.8781 106.01 13.8822C106.074 13.8834 106.123 13.951 106.139 14.0642L106.166 14.2442L102.854 14.2717C101.032 14.2868 99.5381 14.297 99.5336 14.2945C99.529 14.292 99.5387 14.203 99.5551 14.0967L99.5848 13.9033L100.446 13.7982C101.534 13.6654 101.61 13.6462 101.552 13.5169C101.481 13.3559 100.933 11.822 100.546 10.6997C100.351 10.133 100.049 9.29708 99.8748 8.84205L99.5583 8.01471H99.2036C98.2218 8.01471 95.0035 8.21374 94.9381 8.27851C94.8012 8.41412 93.918 11.57 93.6838 12.7604C93.5958 13.2072 93.5239 13.5833 93.5239 13.5963C93.5239 13.6441 93.8257 13.7086 94.5322 13.812C95.2439 13.9162 95.2572 13.9212 95.2768 14.0884L95.2967 14.2588L92.9767 14.2593C91.7007 14.2596 90.5122 14.2771 90.3357 14.2981L90.0146 14.3363L90.0436 14.1408ZM99.3211 7.29622C99.2881 7.21013 99.2178 7.05674 99.1649 6.95536C99.0747 6.78249 98.2698 4.47204 97.6425 2.58527C97.4889 2.12324 97.3537 1.73578 97.342 1.72424C97.2669 1.64984 95.2253 7.0617 95.2253 7.33513C95.2253 7.3643 95.9413 7.39617 96.8165 7.40596C97.6916 7.41575 98.6267 7.43029 98.8944 7.43825L99.3812 7.45274L99.3211 7.29622Z" fill="black"/>
<path d="M0.868028 24.2158C0.876855 24.1831 0.889347 24.1791 1.0778 24.1499C1.37671 24.1034 1.34408 24.1237 1.42674 23.9324C1.53781 23.6754 1.71309 23.2361 1.95318 22.613C2.21254 21.9398 2.71864 20.6001 2.72512 20.5695C2.72874 20.5524 2.68659 20.5413 2.51408 20.5138C2.39552 20.4948 2.29781 20.4788 2.29695 20.4782C2.29608 20.4775 2.29152 20.4609 2.2868 20.4414L2.27822 20.4058H3.01831H3.75839L3.75419 20.4413C3.75015 20.4755 3.74224 20.4782 3.5488 20.5101C3.43814 20.5284 3.34349 20.5476 3.33846 20.5528C3.33343 20.5581 3.3825 20.7258 3.44749 20.9255C3.79481 21.9928 4.3095 23.3478 4.60071 23.9616L4.66629 24.0998L4.74606 24.1162C4.78993 24.1252 4.89696 24.1431 4.9839 24.156C5.1316 24.1778 5.14262 24.1817 5.15156 24.2149L5.16112 24.2506L4.35137 24.2508C3.906 24.2509 3.54161 24.2457 3.54161 24.2392C3.54161 24.1922 3.57278 24.1759 3.68114 24.1665C3.83065 24.1534 4.07932 24.115 4.10115 24.1016C4.11405 24.0937 4.08565 23.9936 3.99349 23.7222C3.84339 23.28 3.64893 22.7296 3.58451 22.5645L3.53781 22.4448L3.20559 22.4543C2.87252 22.4639 2.48978 22.4833 2.29501 22.5004L2.1909 22.5095L2.11961 22.7321C1.90535 23.4012 1.73374 24.0684 1.76784 24.0997C1.78333 24.1139 2.071 24.1722 2.12568 24.1722C2.1522 24.1722 2.16668 24.1826 2.17672 24.2088C2.18443 24.2288 2.19074 24.2465 2.19074 24.2479C2.19074 24.2494 1.89102 24.2506 1.52469 24.2506H0.858643L0.868028 24.2158ZM3.4985 22.3171C3.4985 22.2919 3.12593 21.2265 2.99497 20.8773L2.90478 20.6367L2.87999 20.685C2.84273 20.7576 2.70895 21.0974 2.53582 21.5592C2.32356 22.1255 2.27106 22.2772 2.28327 22.2893C2.28901 22.295 2.4985 22.3033 2.7488 22.3077C2.9991 22.3121 3.27018 22.3169 3.3512 22.3183C3.43221 22.3198 3.4985 22.3193 3.4985 22.3171Z" fill="black"/>
<path d="M13.7983 23.5827C12.9977 22.5921 11.6832 20.9893 11.6203 20.9272L11.5859 20.8932L11.5946 21.6206C11.613 23.1551 11.6419 24.0637 11.6729 24.0827C11.6914 24.094 11.8588 24.1154 12.1035 24.1376C12.2017 24.1466 12.283 24.1545 12.2842 24.1552C12.2855 24.1559 12.2904 24.1718 12.2952 24.1905L12.3038 24.2245H11.5689C10.9625 24.2245 10.8352 24.2213 10.8409 24.2064C10.8448 24.1964 10.848 24.1807 10.848 24.1715C10.848 24.1602 10.9079 24.1471 11.0311 24.1313C11.2528 24.1029 11.3108 24.0881 11.3199 24.0575C11.3479 23.9637 11.3901 22.8731 11.4248 21.343C11.4355 20.8758 11.4351 20.7162 11.4233 20.709C11.4052 20.6979 11.3302 20.6883 11.0557 20.662C10.9473 20.6516 10.8571 20.6412 10.8552 20.639C10.8533 20.6367 10.848 20.6189 10.8433 20.5994L10.8347 20.564L11.1467 20.5551C11.3182 20.5502 11.5574 20.5426 11.6782 20.5382L11.8977 20.5303L12.0005 20.6709C12.263 21.0303 12.8915 21.8278 13.7303 22.8661C14.0439 23.2542 14.3279 23.6071 14.3615 23.6502L14.4226 23.7287L14.4269 23.4191C14.4363 22.7363 14.3956 20.9228 14.367 20.7482C14.359 20.6992 14.3576 20.6982 14.2741 20.6842C14.2275 20.6764 14.0967 20.6596 13.9835 20.6469C13.8703 20.6342 13.7766 20.6233 13.7753 20.6225C13.7741 20.6218 13.7692 20.6059 13.7644 20.5872L13.7558 20.5532H14.463C15.1637 20.5532 15.1701 20.5535 15.1619 20.5804C15.1574 20.5954 15.1497 20.6117 15.1449 20.6168C15.1401 20.6218 15.0436 20.6421 14.9305 20.6619C14.8174 20.6818 14.7223 20.7005 14.7192 20.7035C14.7099 20.7128 14.6792 21.0404 14.6632 21.3011C14.6445 21.6075 14.6273 22.2955 14.6078 23.5106C14.5995 24.0304 14.5915 24.4789 14.59 24.5073C14.5873 24.5577 14.5664 24.5332 13.7983 23.5827Z" fill="black"/>
<path d="M80.0636 23.5803C79.251 22.5748 77.9166 20.9478 77.8529 20.8848L77.8179 20.8503L77.8268 21.5887C77.8454 23.1463 77.8747 24.0685 77.9062 24.0878C77.925 24.0993 78.0949 24.121 78.3433 24.1436C78.4429 24.1526 78.5255 24.1607 78.5268 24.1614C78.5281 24.1621 78.533 24.1783 78.5378 24.1972L78.5466 24.2317H77.8006C77.1851 24.2317 77.0559 24.2285 77.0617 24.2133C77.0656 24.2032 77.0689 24.1873 77.0689 24.1779C77.0689 24.1665 77.1297 24.1531 77.2548 24.1371C77.4798 24.1083 77.5386 24.0933 77.5479 24.0622C77.5763 23.967 77.6191 22.86 77.6544 21.3069C77.6652 20.8327 77.6648 20.6707 77.6529 20.6634C77.6345 20.6521 77.5584 20.6424 77.2797 20.6156C77.1697 20.6051 77.0781 20.5946 77.0762 20.5923C77.0743 20.5899 77.0689 20.5719 77.0641 20.5521L77.0554 20.5162L77.372 20.5071C77.5462 20.5021 77.789 20.4944 77.9115 20.49L78.1344 20.4819L78.2387 20.6247C78.5052 20.9895 79.1431 21.799 79.9946 22.8529C80.3128 23.2469 80.6012 23.6051 80.6353 23.6488L80.6973 23.7285L80.7016 23.4142C80.7112 22.7212 80.6699 20.8803 80.6409 20.7032C80.6327 20.6534 80.6313 20.6524 80.5465 20.6382C80.4992 20.6302 80.3665 20.6132 80.2516 20.6003C80.1367 20.5875 80.0416 20.5763 80.0403 20.5756C80.039 20.5748 80.034 20.5587 80.0292 20.5397L80.0205 20.5052H80.7383C81.4496 20.5052 81.456 20.5055 81.4477 20.5329C81.4431 20.548 81.4353 20.5646 81.4305 20.5697C81.4256 20.5749 81.3276 20.5955 81.2128 20.6156C81.098 20.6357 81.0015 20.6547 80.9983 20.6578C80.9889 20.6672 80.9577 20.9997 80.9416 21.2643C80.9225 21.5754 80.905 22.2737 80.8853 23.5071C80.8769 24.0347 80.8687 24.49 80.8672 24.5188C80.8645 24.5699 80.8433 24.5451 80.0636 23.5803Z" fill="black"/>
<path d="M21.2776 24.2635C21.2776 24.2621 21.2836 24.2452 21.291 24.2259C21.3021 24.197 21.3137 24.1907 21.3566 24.19C21.4338 24.1889 21.8408 24.1295 21.8528 24.1176C21.8913 24.0794 21.894 20.764 21.8555 20.7258C21.8483 20.7187 21.7486 20.7036 21.3751 20.6532C21.3109 20.6445 21.2989 20.6382 21.291 20.6089L21.2818 20.5747H22.0867C22.8851 20.5747 22.8915 20.5749 22.8833 20.602C22.8787 20.6171 22.871 20.6335 22.8662 20.6386C22.8613 20.6436 22.7351 20.6645 22.5856 20.6849L22.3139 20.7221L22.3028 20.7988C22.2882 20.8993 22.2889 23.8788 22.3035 24.0165C22.3168 24.1421 22.2842 24.1265 22.6233 24.1687C22.8726 24.1996 22.883 24.2031 22.8909 24.2592C22.8914 24.2629 22.5287 24.266 22.0847 24.266C21.6408 24.266 21.2776 24.2649 21.2776 24.2635Z" fill="black"/>
<path d="M29.111 24.2585C29.1149 24.2485 29.1181 24.2323 29.1181 24.2227C29.1181 24.2108 29.1689 24.1975 29.2742 24.1817C29.5183 24.1452 29.5311 24.1405 29.5469 24.0806C29.6126 23.8326 29.7834 20.786 29.7834 20.7231C29.7834 20.7094 29.6921 20.6905 29.4852 20.6614C29.3937 20.6485 29.3177 20.6372 29.3164 20.6363C29.3151 20.6353 29.3102 20.6191 29.3054 20.6002L29.2967 20.5659H29.9841C30.5508 20.5659 30.6702 20.5691 30.6644 20.5842C30.6605 20.5943 30.6573 20.61 30.6573 20.6191C30.6573 20.6292 30.5932 20.6482 30.4914 20.6683C30.4002 20.6863 30.318 20.7057 30.3087 20.7114C30.2961 20.719 30.3089 20.7723 30.3584 20.9187C30.5574 21.5074 31.4744 23.4401 31.5036 23.4691C31.5083 23.4737 31.5145 23.4748 31.5176 23.4717C31.5403 23.4482 32.8559 20.7479 32.8559 20.7154C32.8559 20.7071 32.7476 20.6826 32.6142 20.6607C32.4768 20.6381 32.4543 20.6276 32.4538 20.5865C32.4536 20.5685 32.5337 20.5659 33.0918 20.5659C33.6176 20.5659 33.7288 20.5691 33.7229 20.5842C33.719 20.5943 33.7159 20.6104 33.7159 20.6201C33.7159 20.632 33.665 20.6453 33.5598 20.6612C33.474 20.6741 33.3783 20.6909 33.3472 20.6985L33.2907 20.7123L33.3102 20.8178C33.3917 21.2588 33.3803 23.8374 33.4452 24.0806C33.4611 24.1402 33.4763 24.1461 33.7077 24.1815C33.8472 24.2028 33.888 24.2211 33.888 24.2623C33.888 24.2724 33.6576 24.2769 33.1419 24.2769L32.3957 24.277L32.4011 24.2408C32.4062 24.2062 32.4113 24.2042 32.5143 24.1953C32.6777 24.1811 32.9705 24.1391 32.9815 24.1282C32.9933 24.1165 32.9837 23.8677 32.965 23.1636C32.9501 22.604 32.9751 21.1142 32.9552 21.047L32.943 21.0057L32.9052 21.0882C32.8402 21.2298 32.4715 21.8387 32.0336 22.7696C31.5951 23.7018 31.4242 24.1297 31.3909 24.1935L31.3699 24.2339L31.3523 24.2004C31.3303 24.1588 30.8737 22.9717 30.3968 21.8278C30.1956 21.3454 29.9439 20.9482 29.9411 20.945C29.9288 20.9311 29.9549 20.942 29.9655 21.6582C29.9765 22.4031 29.9247 22.8501 29.9208 23.3807C29.9184 23.6989 29.8847 24.1133 29.8997 24.1282C29.9054 24.1338 30.0357 24.1541 30.1893 24.1733C30.4637 24.2075 30.4687 24.2087 30.4779 24.2429L30.4873 24.2777L29.7956 24.2773C29.2255 24.2769 29.1052 24.2736 29.111 24.2585Z" fill="black"/>
<path d="M94.6369 24.7168C94.6875 24.3716 94.7129 24.0236 94.7234 23.5321L94.7328 23.0913L94.7825 23.1083L94.8322 23.1253L94.8406 23.3023C94.8549 23.606 94.863 23.6516 94.9196 23.7468C94.9859 23.858 95.1561 24.0161 95.277 24.0788C95.4376 24.1621 95.557 24.1916 95.7318 24.1912C95.911 24.1908 96.0189 24.1665 96.1658 24.0935C96.473 23.941 96.6188 23.5998 96.5277 23.2469C96.4637 22.999 96.3318 22.8601 95.8702 22.5542C95.4611 22.2832 95.3067 22.1657 95.1719 22.0229C94.8883 21.7226 94.8224 21.3602 94.9904 21.0246C95.0868 20.832 95.2192 20.7009 95.4135 20.6056C95.5994 20.5144 95.7091 20.4922 95.9739 20.4922C96.2271 20.4922 96.4189 20.5226 96.5759 20.5877C96.6216 20.6066 96.6689 20.6252 96.6811 20.629C96.6996 20.6348 96.7106 20.5988 96.7487 20.4088L96.7941 20.1818L96.8414 20.173C96.8674 20.1682 96.8909 20.1665 96.8937 20.1693C96.8965 20.1721 96.8867 20.2639 96.872 20.3732C96.8266 20.7108 96.7898 21.0966 96.7808 21.3299C96.7728 21.538 96.7705 21.5525 96.7468 21.5459C96.663 21.5226 96.6698 21.5407 96.6634 21.3225C96.6559 21.0643 96.6331 21.0077 96.4753 20.8542C96.3581 20.7402 96.248 20.6775 96.0975 20.6393C95.9913 20.6123 95.7293 20.6195 95.6263 20.6522C95.3311 20.746 95.1698 20.9634 95.189 21.2413C95.207 21.5003 95.3329 21.6295 95.9584 22.0304C96.2914 22.2439 96.4306 22.3491 96.5621 22.4866C96.7289 22.661 96.8204 22.8279 96.8603 23.0304C96.8852 23.1572 96.8706 23.4267 96.8321 23.5478C96.7001 23.9629 96.3551 24.237 95.8632 24.3175C95.6196 24.3574 95.2167 24.3249 94.9589 24.2446C94.8992 24.226 94.8488 24.2128 94.8467 24.2153C94.8447 24.2177 94.8199 24.3308 94.7915 24.4665C94.7264 24.7776 94.7329 24.7569 94.6968 24.7665C94.6335 24.7833 94.6279 24.7787 94.6369 24.7168Z" fill="black"/>
<path d="M68.5666 24.3351C68.0592 24.2739 67.6863 24.1026 67.3684 23.7848C67.087 23.5034 66.9327 23.2197 66.8655 22.8602C66.8285 22.662 66.8321 22.2857 66.8728 22.0978C66.9609 21.691 67.1335 21.3768 67.4319 21.0802C67.9317 20.5834 68.5658 20.3767 69.3771 20.4462C69.6984 20.4737 69.9625 20.5433 70.2087 20.6654C70.7317 20.9247 71.0641 21.3432 71.182 21.8909C71.2109 22.0252 71.2146 22.3493 71.1893 22.5264C71.0468 23.5229 70.2909 24.2267 69.2402 24.3411C69.0627 24.3604 68.7537 24.3576 68.5666 24.3351ZM69.4898 24.1241C70.1544 24.0181 70.6207 23.5663 70.7676 22.8858C70.809 22.6943 70.8125 22.3398 70.7748 22.1632C70.6128 21.4045 70.0334 20.8252 69.2713 20.6601C69.0859 20.62 68.6941 20.6234 68.4963 20.6669C67.6833 20.8459 67.2135 21.4215 67.2135 22.2386C67.2135 22.9216 67.6516 23.6095 68.2988 23.9427C68.675 24.1364 69.0522 24.1938 69.4898 24.1241Z" fill="black"/>
<path d="M122.999 24.2777C122.999 24.2744 123.005 24.2568 123.012 24.2387C123.024 24.2083 123.034 24.2049 123.147 24.1964C123.326 24.1828 123.543 24.1469 123.563 24.1274C123.618 24.0747 123.623 20.7867 123.568 20.7321C123.557 20.7206 123.302 20.6803 123.11 20.6596C123.021 20.65 123 20.6383 122.999 20.5984C122.999 20.5803 123.145 20.5779 124.226 20.5781C125.504 20.5785 125.512 20.5788 125.886 20.6406C126.345 20.7164 126.656 20.8575 126.924 21.1119C127.063 21.2439 127.143 21.3518 127.215 21.5047C127.323 21.7324 127.358 21.9697 127.327 22.2633C127.25 23.0132 126.813 23.6126 126.096 23.953C125.708 24.1375 125.309 24.2336 124.785 24.2692C124.585 24.2828 122.999 24.2903 122.999 24.2777ZM125.059 24.0909C125.594 24.0348 126.102 23.8102 126.436 23.4822C126.643 23.2789 126.793 23.0257 126.867 22.7531C126.901 22.6293 126.903 22.5983 126.903 22.3451C126.903 22.0916 126.901 22.0609 126.867 21.9341C126.823 21.771 126.719 21.5576 126.624 21.4332C126.259 20.9549 125.618 20.7336 124.589 20.7298C124.411 20.7291 124.217 20.7336 124.159 20.7398L124.053 20.7511L124.045 20.8015C124.041 20.8292 124.03 21.2156 124.021 21.6601C124.008 22.2797 124.008 22.6379 124.021 23.1945C124.03 23.5938 124.04 23.9429 124.045 23.9702C124.054 24.0282 124.072 24.0358 124.285 24.0721C124.53 24.1139 124.782 24.12 125.059 24.0909Z" fill="black"/>
<path d="M50.1565 24.1459C50.1611 24.1276 50.1659 24.1122 50.1672 24.1118C50.1684 24.1113 50.3133 24.0957 50.4892 24.0771C50.6651 24.0584 50.8135 24.0388 50.8189 24.0335C50.8243 24.0281 50.8326 23.8637 50.8372 23.6682C50.8481 23.2141 50.848 21.2316 50.837 20.9595L50.8287 20.7529L50.5193 20.7541C50.0938 20.7559 49.7855 20.7872 49.5455 20.8533C49.4185 20.8882 49.3707 20.9131 49.3557 20.9521C49.3491 20.9694 49.331 21.0546 49.3154 21.1415C49.2607 21.4476 49.2644 21.4358 49.218 21.4518C49.195 21.4598 49.1747 21.4647 49.1728 21.4629C49.171 21.461 49.1806 21.3395 49.1942 21.1928C49.2259 20.8496 49.2478 20.5025 49.2478 20.3426V20.2163L49.2915 20.2251L49.3352 20.234L49.3441 20.3581C49.349 20.4264 49.3567 20.5019 49.3612 20.5259L49.3695 20.5695L49.4869 20.5779C50.1805 20.6276 52.2145 20.6257 52.7317 20.5749L52.8195 20.5662L52.8491 20.4463C52.8653 20.3803 52.8791 20.3105 52.8796 20.2912C52.8803 20.2665 52.8895 20.2537 52.9108 20.248C52.9671 20.2331 52.9905 20.2379 52.9829 20.2629C52.9697 20.3059 52.9214 20.6692 52.8735 21.0854C52.8474 21.3124 52.8236 21.5004 52.8206 21.5033C52.8176 21.5063 52.7973 21.5048 52.7754 21.5L52.7356 21.4914L52.7375 21.2021L52.7393 20.9129L52.6518 20.884C52.4605 20.8209 51.9826 20.7634 51.54 20.7503L51.269 20.7422L51.2584 20.9675C51.2447 21.2597 51.2446 23.0696 51.2584 23.6146L51.269 24.0365L51.3047 24.0436C51.3243 24.0475 51.4735 24.064 51.6362 24.0803C51.7989 24.0966 51.933 24.1106 51.9343 24.1113C51.9355 24.112 51.9403 24.1276 51.945 24.1459L51.9534 24.1792H51.0507H50.148L50.1565 24.1459Z" fill="black"/>
<path d="M114.65 24.1881C114.119 24.1074 113.741 23.7974 113.575 23.3068C113.487 23.0489 113.488 23.0585 113.476 21.884C113.471 21.2953 113.462 20.7947 113.456 20.7717C113.446 20.7247 113.443 20.7236 113.192 20.6814C113.061 20.6595 113.04 20.6494 113.039 20.61C113.039 20.5928 113.126 20.5903 113.742 20.5903C114.357 20.5903 114.444 20.5928 114.444 20.61C114.444 20.6209 114.439 20.6361 114.434 20.6438C114.429 20.6516 114.306 20.6734 114.161 20.6923C114.016 20.7112 113.895 20.7297 113.891 20.7334C113.876 20.7485 113.859 21.6772 113.865 22.1861C113.872 22.7698 113.882 22.8897 113.948 23.1427C114.091 23.6874 114.434 24.0003 114.929 24.0362C115.206 24.0562 115.459 24.0154 115.662 23.9182C115.894 23.8067 116.072 23.5641 116.145 23.2565C116.184 23.0949 116.193 22.9888 116.202 22.613C116.209 22.2687 116.19 20.7461 116.178 20.7342C116.171 20.7272 115.844 20.6801 115.722 20.6685C115.637 20.6604 115.627 20.6566 115.615 20.625L115.602 20.5903H116.261H116.919L116.907 20.6247C116.896 20.6566 116.883 20.6614 116.721 20.6936C116.625 20.7126 116.542 20.7348 116.537 20.7431C116.52 20.771 116.508 21.4297 116.515 21.9891C116.523 22.5875 116.514 22.794 116.472 23.017C116.343 23.6926 115.896 24.1125 115.22 24.1943C115.061 24.2134 114.797 24.2105 114.65 24.1881Z" fill="black"/>
<path d="M39.8512 24.2158C39.86 24.1831 39.8725 24.1791 40.061 24.1499C40.3599 24.1034 40.3272 24.1237 40.4099 23.9324C40.521 23.6754 40.6962 23.2361 40.9363 22.613C41.1957 21.9398 41.7018 20.6001 41.7083 20.5695C41.7119 20.5524 41.6697 20.5413 41.4972 20.5138C41.3787 20.4948 41.281 20.4788 41.2801 20.4782C41.2792 20.4775 41.2747 20.4609 41.27 20.4414L41.2614 20.4058H42.0015H42.7415L42.7373 20.4413C42.7333 20.4755 42.7254 20.4782 42.532 20.5101C42.4213 20.5284 42.3266 20.5476 42.3216 20.5528C42.3166 20.5581 42.3657 20.7258 42.4306 20.9255C42.778 21.9928 43.2927 23.3478 43.5839 23.9616L43.6495 24.0998L43.7292 24.1162C43.7731 24.1252 43.8801 24.1431 43.9671 24.156C44.1148 24.1778 44.1258 24.1817 44.1347 24.2149L44.1443 24.2506L43.3345 24.2508C42.8892 24.2509 42.5248 24.2457 42.5248 24.2392C42.5248 24.1922 42.5559 24.1759 42.6643 24.1665C42.8138 24.1534 43.0625 24.115 43.0843 24.1016C43.0972 24.0937 43.0688 23.9936 42.9766 23.7222C42.8265 23.28 42.6321 22.7296 42.5677 22.5645L42.521 22.4448L42.1887 22.4543C41.8557 22.4639 41.4729 22.4833 41.2782 22.5004L41.1741 22.5095L41.1028 22.7321C40.8885 23.4012 40.7169 24.0684 40.751 24.0997C40.7665 24.1139 41.0542 24.1722 41.1088 24.1722C41.1354 24.1722 41.1498 24.1826 41.1599 24.2088C41.1676 24.2288 41.1739 24.2465 41.1739 24.2479C41.1739 24.2494 40.8742 24.2506 40.5078 24.2506H39.8418L39.8512 24.2158ZM42.4817 22.3171C42.4817 22.2919 42.1091 21.2265 41.9781 20.8773L41.8879 20.6367L41.8631 20.685C41.8259 20.7576 41.6921 21.0974 41.519 21.5592C41.3067 22.1255 41.2542 22.2772 41.2664 22.2893C41.2722 22.295 41.4817 22.3033 41.732 22.3077C41.9823 22.3121 42.2533 22.3169 42.3344 22.3183C42.4154 22.3198 42.4817 22.3193 42.4817 22.3171Z" fill="black"/>
<path d="M59.0757 24.2635C59.0757 24.2621 59.0817 24.2452 59.0891 24.2259C59.1002 24.197 59.1118 24.1907 59.1547 24.19C59.2319 24.1889 59.6389 24.1295 59.6509 24.1176C59.6894 24.0794 59.6921 20.764 59.6536 20.7258C59.6464 20.7187 59.5467 20.7036 59.1732 20.6532C59.1089 20.6445 59.097 20.6382 59.0891 20.6089L59.0799 20.5747H59.8848C60.6832 20.5747 60.6896 20.5749 60.6813 20.602C60.6768 20.6171 60.6691 20.6335 60.6643 20.6386C60.6594 20.6436 60.5332 20.6645 60.3837 20.6849L60.112 20.7221L60.1009 20.7988C60.0863 20.8993 60.087 23.8788 60.1016 24.0165C60.1149 24.1421 60.0823 24.1265 60.4214 24.1687C60.6707 24.1996 60.681 24.2031 60.689 24.2592C60.6895 24.2629 60.3267 24.266 59.8828 24.266C59.4389 24.266 59.0757 24.2649 59.0757 24.2635Z" fill="black"/>
<path d="M104.185 24.1459C104.19 24.1276 104.194 24.1122 104.196 24.1118C104.197 24.1113 104.342 24.0957 104.518 24.0771C104.694 24.0584 104.842 24.0388 104.847 24.0335C104.853 24.0281 104.861 23.8637 104.866 23.6682C104.877 23.2141 104.877 21.2316 104.866 20.9595L104.857 20.7529L104.548 20.7541C104.122 20.7559 103.814 20.7872 103.574 20.8533C103.447 20.8882 103.399 20.9131 103.384 20.9521C103.378 20.9694 103.36 21.0546 103.344 21.1415C103.289 21.4476 103.293 21.4358 103.247 21.4518C103.224 21.4598 103.203 21.4647 103.201 21.4629C103.2 21.461 103.209 21.3395 103.223 21.1928C103.254 20.8496 103.276 20.5025 103.276 20.3426V20.2163L103.32 20.2251L103.364 20.234L103.373 20.3581C103.378 20.4264 103.385 20.5019 103.39 20.5259L103.398 20.5695L103.515 20.5779C104.209 20.6276 106.243 20.6257 106.76 20.5749L106.848 20.5662L106.878 20.4463C106.894 20.3803 106.908 20.3105 106.908 20.2912C106.909 20.2665 106.918 20.2537 106.939 20.248C106.996 20.2331 107.019 20.2379 107.011 20.2629C106.998 20.3059 106.95 20.6692 106.902 21.0854C106.876 21.3124 106.852 21.5004 106.849 21.5033C106.846 21.5063 106.826 21.5048 106.804 21.5L106.764 21.4914L106.766 21.2021L106.768 20.9129L106.68 20.884C106.489 20.8209 106.011 20.7634 105.569 20.7503L105.298 20.7422L105.287 20.9675C105.273 21.2597 105.273 23.0696 105.287 23.6146L105.298 24.0365L105.333 24.0436C105.353 24.0475 105.502 24.064 105.665 24.0803C105.827 24.0966 105.962 24.1106 105.963 24.1113C105.964 24.112 105.969 24.1276 105.974 24.1459L105.982 24.1792H105.079H104.177L104.185 24.1459Z" fill="black"/>
<path d="M142.913 24.3351C142.406 24.2739 142.033 24.1026 141.715 23.7848C141.433 23.5034 141.279 23.2197 141.212 22.8602C141.175 22.662 141.178 22.2857 141.219 22.0978C141.307 21.691 141.48 21.3768 141.778 21.0802C142.278 20.5834 142.912 20.3767 143.723 20.4462C144.045 20.4737 144.309 20.5433 144.555 20.6654C145.078 20.9247 145.411 21.3432 145.528 21.8909C145.557 22.0252 145.561 22.3493 145.536 22.5264C145.393 23.5229 144.637 24.2267 143.587 24.3411C143.409 24.3604 143.1 24.3576 142.913 24.3351ZM143.836 24.1241C144.501 24.0181 144.967 23.5663 145.114 22.8858C145.155 22.6943 145.159 22.3398 145.121 22.1632C144.959 21.4045 144.38 20.8252 143.618 20.6601C143.432 20.62 143.04 20.6234 142.843 20.6669C142.03 20.8459 141.56 21.4215 141.56 22.2386C141.56 22.9216 141.998 23.6095 142.645 23.9427C143.021 24.1364 143.399 24.1938 143.836 24.1241Z" fill="black"/>
<path d="M133.422 24.2635C133.422 24.2621 133.428 24.2452 133.436 24.2259C133.447 24.197 133.458 24.1907 133.501 24.19C133.578 24.1889 133.985 24.1295 133.997 24.1176C134.036 24.0794 134.039 20.764 134 20.7258C133.993 20.7187 133.893 20.7036 133.52 20.6532C133.455 20.6445 133.443 20.6382 133.436 20.6089L133.426 20.5747H134.231C135.03 20.5747 135.036 20.5749 135.028 20.602C135.023 20.6171 135.016 20.6335 135.011 20.6386C135.006 20.6436 134.88 20.6645 134.73 20.6849L134.458 20.7221L134.447 20.7988C134.433 20.8993 134.433 23.8788 134.448 24.0165C134.461 24.1421 134.429 24.1265 134.768 24.1687C135.017 24.1996 135.027 24.2031 135.035 24.2592C135.036 24.2629 134.673 24.266 134.229 24.266C133.785 24.266 133.422 24.2649 133.422 24.2635Z" fill="black"/>
<path d="M151.685 24.7168C151.736 24.3716 151.761 24.0236 151.771 23.5321L151.781 23.0913L151.831 23.1083L151.88 23.1253L151.889 23.3023C151.903 23.606 151.911 23.6516 151.968 23.7468C152.034 23.858 152.204 24.0161 152.325 24.0788C152.486 24.1621 152.605 24.1916 152.78 24.1912C152.959 24.1908 153.067 24.1665 153.214 24.0935C153.521 23.941 153.667 23.5998 153.576 23.2469C153.512 22.999 153.38 22.8601 152.918 22.5542C152.509 22.2832 152.355 22.1657 152.22 22.0229C151.936 21.7226 151.871 21.3602 152.039 21.0246C152.135 20.832 152.267 20.7009 152.462 20.6056C152.648 20.5144 152.757 20.4922 153.022 20.4922C153.275 20.4922 153.467 20.5226 153.624 20.5877C153.67 20.6066 153.717 20.6252 153.729 20.629C153.748 20.6348 153.759 20.5988 153.797 20.4088L153.842 20.1818L153.889 20.173C153.915 20.1682 153.939 20.1665 153.942 20.1693C153.945 20.1721 153.935 20.2639 153.92 20.3732C153.875 20.7108 153.838 21.0966 153.829 21.3299C153.821 21.538 153.819 21.5525 153.795 21.5459C153.711 21.5226 153.718 21.5407 153.712 21.3225C153.704 21.0643 153.681 21.0077 153.523 20.8542C153.406 20.7402 153.296 20.6775 153.146 20.6393C153.039 20.6123 152.777 20.6195 152.674 20.6522C152.379 20.746 152.218 20.9634 152.237 21.2413C152.255 21.5003 152.381 21.6295 153.007 22.0304C153.34 22.2439 153.479 22.3491 153.61 22.4866C153.777 22.661 153.868 22.8279 153.908 23.0304C153.933 23.1572 153.919 23.4267 153.88 23.5478C153.748 23.9629 153.403 24.237 152.911 24.3175C152.668 24.3574 152.265 24.3249 152.007 24.2446C151.947 24.226 151.897 24.2128 151.895 24.2153C151.893 24.2177 151.868 24.3308 151.84 24.4665C151.775 24.7776 151.781 24.7569 151.745 24.7665C151.682 24.7833 151.676 24.7787 151.685 24.7168Z" fill="black"/>
</svg>
