<svg width="114" height="25" viewBox="0 0 114 25" fill="none" xmlns="http://www.w3.org/2000/svg">
<g clip-path="url(#clip0_608_702)">
<path d="M47.5348 5.72829V20.1283H45.0349V8.82829H45.0016L40.5351 20.1283H38.8685L34.302 8.82829H34.2687V20.1283H31.9688V5.72829H35.5686L39.7018 16.395H39.7684L44.1349 5.72829H47.5348ZM49.6014 6.82829C49.6014 6.42829 49.7347 6.09495 50.0347 5.82829C50.3347 5.56162 50.668 5.42829 51.068 5.42829C51.5013 5.42829 51.868 5.56162 52.1346 5.82829C52.4013 6.09495 52.568 6.42829 52.568 6.82829C52.568 7.22829 52.4346 7.56162 52.1346 7.82829C51.8347 8.09495 51.5013 8.22829 51.068 8.22829C50.6347 8.22829 50.3014 8.09495 50.0347 7.82829C49.7681 7.52829 49.6014 7.19495 49.6014 6.82829ZM52.3013 9.79495V20.1283H49.8681V9.79495H52.3013ZM59.6677 18.3616C60.0343 18.3616 60.4343 18.295 60.8676 18.095C61.301 17.9283 61.7009 17.695 62.0676 17.4283V19.695C61.6676 19.9283 61.2343 20.095 60.7343 20.195C60.2343 20.295 59.701 20.3616 59.101 20.3616C57.5678 20.3616 56.3345 19.895 55.4012 18.9283C54.4346 17.9616 53.9679 16.7283 53.9679 15.2616C53.9679 13.595 54.4679 12.2283 55.4345 11.1616C56.4011 10.095 57.7678 9.56162 59.5677 9.56162C60.0343 9.56162 60.501 9.62829 60.9343 9.72829C61.4009 9.82829 61.7676 9.99496 62.0343 10.1283V12.4616C61.6676 12.195 61.2676 11.9616 60.901 11.8283C60.501 11.695 60.101 11.595 59.701 11.595C58.7344 11.595 57.9677 11.895 57.3678 12.5283C56.7678 13.1616 56.5011 13.995 56.5011 15.0616C56.5011 16.095 56.8011 16.9283 57.3678 17.495C57.9344 18.0616 58.7011 18.3616 59.6677 18.3616ZM68.9673 9.62829C69.1673 9.62829 69.334 9.62829 69.5006 9.66162C69.6673 9.69495 69.8006 9.72829 69.9006 9.76162V12.2283C69.7673 12.1283 69.6006 12.0283 69.334 11.9616C69.0673 11.895 68.8007 11.8283 68.434 11.8283C67.834 11.8283 67.3341 12.095 66.9341 12.595C66.5341 13.095 66.3008 13.8616 66.3008 14.9283V20.1283H63.8675V9.79495H66.3008V11.4283H66.3341C66.5674 10.8616 66.9007 10.4283 67.3341 10.095C67.8007 9.79495 68.334 9.62829 68.9673 9.62829ZM70.0339 15.1283C70.0339 13.4283 70.5339 12.0616 71.4672 11.0616C72.4339 10.0616 73.7671 9.56162 75.4671 9.56162C77.067 9.56162 78.3336 10.0283 79.2336 10.995C80.1336 11.9616 80.6002 13.2616 80.6002 14.895C80.6002 16.5616 80.1002 17.895 79.1669 18.895C78.2003 19.895 76.9003 20.395 75.2337 20.395C73.6338 20.395 72.3672 19.9283 71.4339 18.995C70.5006 18.0283 70.0339 16.7283 70.0339 15.1283ZM72.5672 15.0283C72.5672 16.095 72.8005 16.9283 73.3005 17.495C73.8005 18.0616 74.5004 18.3616 75.4004 18.3616C76.267 18.3616 76.967 18.095 77.4337 17.495C77.9003 16.9283 78.1336 16.095 78.1336 14.9616C78.1336 13.8616 77.9003 13.0283 77.4337 12.4283C76.967 11.8616 76.267 11.5616 75.4337 11.5616C74.5338 11.5616 73.8671 11.8616 73.3671 12.4616C72.8005 13.095 72.5672 13.9283 72.5672 15.0283ZM84.2334 12.5283C84.2334 12.8616 84.3334 13.1616 84.5667 13.3616C84.8 13.5616 85.2667 13.795 86.0333 14.095C87 14.495 87.6999 14.9283 88.0666 15.395C88.4666 15.895 88.6666 16.4616 88.6666 17.1616C88.6666 18.1283 88.2999 18.895 87.5333 19.495C86.8 20.095 85.7667 20.3616 84.5001 20.3616C84.0667 20.3616 83.6001 20.295 83.0668 20.195C82.5335 20.095 82.1002 19.9616 81.7335 19.795V17.395C82.1668 17.695 82.6668 17.9616 83.1668 18.1283C83.6668 18.295 84.1334 18.395 84.5667 18.395C85.1 18.395 85.5334 18.3283 85.7667 18.1616C86.0333 17.995 86.1667 17.7616 86.1667 17.395C86.1667 17.0616 86.0333 16.795 85.7667 16.5283C85.5 16.295 84.9667 16.0283 84.2334 15.7283C83.3334 15.3616 82.7001 14.9283 82.3335 14.4616C81.9668 13.995 81.7668 13.395 81.7668 12.6616C81.7668 11.7283 82.1335 10.9616 82.8668 10.3616C83.6001 9.76162 84.5667 9.46162 85.7333 9.46162C86.1 9.46162 86.5 9.49495 86.9333 9.59495C87.3666 9.69495 87.7666 9.79495 88.0666 9.89495V12.2616C87.7333 12.0616 87.3666 11.8616 86.9333 11.695C86.5 11.5283 86.0667 11.4616 85.6667 11.4616C85.2 11.4616 84.8334 11.5616 84.6001 11.7283C84.3667 11.9616 84.2334 12.195 84.2334 12.5283ZM89.6999 15.1283C89.6999 13.4283 90.1998 12.0616 91.1331 11.0616C92.0998 10.0616 93.433 9.56162 95.133 9.56162C96.7329 9.56162 97.9995 10.0283 98.8995 10.995C99.7995 11.9616 100.266 13.2616 100.266 14.895C100.266 16.5616 99.7661 17.895 98.8328 18.895C97.8662 19.895 96.5663 20.395 94.8997 20.395C93.2997 20.395 92.0331 19.9283 91.0998 18.995C90.1998 18.0283 89.6999 16.7283 89.6999 15.1283ZM92.2331 15.0283C92.2331 16.095 92.4664 16.9283 92.9664 17.495C93.4664 18.0616 94.1664 18.3616 95.0663 18.3616C95.9329 18.3616 96.6329 18.095 97.0996 17.495C97.5662 16.9283 97.7995 16.095 97.7995 14.9616C97.7995 13.8616 97.5662 13.0283 97.0996 12.4283C96.6329 11.8616 95.933 11.5616 95.0997 11.5616C94.1997 11.5616 93.533 11.8616 93.0331 12.4616C92.4997 13.095 92.2331 13.9283 92.2331 15.0283ZM108.366 11.795H104.733V20.1283H102.266V11.795H100.533V9.79495H102.266V8.36162C102.266 7.29495 102.633 6.39495 103.333 5.69495C104.033 4.99495 104.933 4.66162 106.033 4.66162C106.333 4.66162 106.599 4.69495 106.833 4.69495C107.066 4.69495 107.266 4.76162 107.433 4.82829V6.92829C107.366 6.89495 107.199 6.82829 106.999 6.76162C106.799 6.69495 106.566 6.66162 106.299 6.66162C105.799 6.66162 105.399 6.82829 105.133 7.12829C104.866 7.42829 104.733 7.92829 104.733 8.52829V9.76162H108.366V7.42829L110.799 6.69495V9.76162H113.266V11.7616H110.799V16.595C110.799 17.2283 110.932 17.6616 111.132 17.9283C111.366 18.195 111.732 18.3283 112.232 18.3283C112.366 18.3283 112.532 18.295 112.732 18.2283C112.932 18.1616 113.099 18.095 113.232 17.995V19.995C113.066 20.095 112.832 20.1616 112.466 20.2283C112.099 20.295 111.766 20.3283 111.399 20.3283C110.366 20.3283 109.599 20.0616 109.099 19.5283C108.599 18.995 108.332 18.1616 108.332 17.0616L108.366 11.795Z" fill="black"/>
<path d="M12.1356 0.927246H0.735596V12.3272H12.1356V0.927246Z" fill="black"/>
<path d="M24.7367 0.927246H13.3367V12.3272H24.7367V0.927246Z" fill="black"/>
<path d="M12.1356 13.5288H0.735596V24.9288H12.1356V13.5288Z" fill="black"/>
<path d="M24.7367 13.5288H13.3367V24.9288H24.7367V13.5288Z" fill="black"/>
</g>
<defs>
<clipPath id="clip0_608_702">
<rect width="112.529" height="24" fill="white" transform="translate(0.735596 0.927246)"/>
</clipPath>
</defs>
</svg>
