<svg width="65" height="24" viewBox="0 0 65 24" fill="none" xmlns="http://www.w3.org/2000/svg">
<g clip-path="url(#clip0_413_580)">
<path d="M1.32251 20.1016H1.82668V21.6141H3.75944V20.1016H4.24686V23.6309H3.75944V22.0175H1.82668V23.6309H1.32251V20.1016Z" fill="#00175C"/>
<path d="M12.0666 22.3536C12.0666 23.2444 11.5287 23.715 10.6044 23.715C9.66321 23.715 9.0918 23.2948 9.0918 22.3536V20.1016H9.59597V22.3536C9.59597 22.9755 9.96572 23.3284 10.6044 23.3284C11.2262 23.3284 11.5792 22.9755 11.5792 22.3536V20.1016H12.0666V22.3536Z" fill="#00175C"/>
<path d="M18.1618 23.7299C17.0526 23.7971 16.3804 22.8559 16.3804 21.9316C16.3804 20.9064 16.9686 20.0156 18.145 20.0156C18.9518 20.0156 19.5904 20.3518 19.7248 21.1921H19.2375C19.1366 20.6543 18.6828 20.4022 18.145 20.4022C17.2375 20.4022 16.8677 21.1585 16.8677 21.9148C16.8677 22.6542 17.3383 23.3601 18.2291 23.3433C18.6828 23.3265 19.0526 23.2425 19.2375 22.94C19.3719 22.7551 19.3383 22.419 19.3215 22.1669H18.145V21.7635H19.7585C19.7585 21.7635 19.7585 22.6879 19.7585 23.0912C19.3383 23.6122 18.8341 23.6962 18.1618 23.7299Z" fill="#00175C"/>
<path d="M25.7933 23.3265C26.684 23.3265 27.0706 22.5702 27.0706 21.8643C27.0706 21.1585 26.684 20.4022 25.7933 20.4022C24.8857 20.4022 24.516 21.1585 24.516 21.8643C24.516 22.5702 24.8857 23.3265 25.7933 23.3265ZM25.7933 20.0156C26.9697 20.0156 27.5579 20.9064 27.5579 21.8643C27.5579 22.8223 26.9697 23.7131 25.7933 23.7131C24.6168 23.7131 24.0286 22.8223 24.0286 21.8643C24.0286 20.9064 24.6168 20.0156 25.7933 20.0156Z" fill="#00175C"/>
<path d="M37.4568 21.6141H38.4316C38.9863 21.6141 39.2216 21.4293 39.2216 21.0595C39.2216 20.5721 38.8686 20.4881 38.4316 20.4881H37.4568V21.6141ZM37.4568 23.2444H38.6837C39.1039 23.2444 39.3728 22.9923 39.3728 22.6057C39.3728 22.152 38.9863 22.0175 38.5661 22.0175H37.4568V23.2444ZM36.9695 20.1016H38.2972C38.6333 20.1016 39.0535 20.1016 39.272 20.2192C39.5241 20.3705 39.7089 20.6226 39.7089 20.9587C39.7089 21.3452 39.5073 21.631 39.1711 21.7654C39.6249 21.8494 39.877 22.1856 39.877 22.6225C39.877 23.1435 39.4736 23.6309 38.751 23.6309H36.9695V20.1016Z" fill="#00175C"/>
<path d="M46.0425 23.3265C46.95 23.3265 47.3198 22.5702 47.3198 21.8643C47.3198 21.1585 46.95 20.4022 46.0425 20.4022C45.1518 20.4022 44.7652 21.1585 44.7652 21.8643C44.7652 22.5702 45.1518 23.3265 46.0425 23.3265ZM46.0425 20.0156C47.2189 20.0156 47.824 20.9064 47.824 21.8643C47.824 22.8223 47.2189 23.7131 46.0425 23.7131C44.8661 23.7131 44.2778 22.8223 44.2778 21.8643C44.2778 20.9064 44.8661 20.0156 46.0425 20.0156Z" fill="#00175C"/>
<path d="M54.5981 21.1417C54.5477 20.6207 54.1947 20.4022 53.6905 20.4022C53.2704 20.4022 52.867 20.5534 52.867 21.0072C52.867 21.4442 53.4552 21.5114 54.0434 21.6459C54.6317 21.7635 55.2199 21.9652 55.2199 22.6711C55.2199 23.4105 54.4468 23.7131 53.7745 23.7131C52.951 23.7131 52.262 23.3265 52.262 22.4694H52.7158C52.7158 23.0576 53.2367 23.3265 53.7913 23.3265C54.2451 23.3265 54.7325 23.1921 54.7325 22.6711C54.7325 22.1837 54.1443 22.1164 53.5561 21.982C52.9679 21.8643 52.3628 21.6963 52.3628 21.0408C52.3628 20.3349 53.0351 20.0156 53.7073 20.0156C54.4636 20.0156 55.035 20.3518 55.0686 21.1417H54.5981Z" fill="#00175C"/>
<path d="M62.5675 21.1417C62.5002 20.6207 62.1474 20.4022 61.6431 20.4022C61.2397 20.4022 60.8196 20.5534 60.8196 21.0072C60.8196 21.4442 61.4078 21.5114 62.0129 21.6459C62.6011 21.7635 63.1893 21.9652 63.1893 22.6711C63.1893 23.4105 62.4162 23.7131 61.744 23.7131C60.9204 23.7131 60.2146 23.3265 60.2146 22.4694H60.6851C60.6851 23.0576 61.2062 23.3265 61.7608 23.3265C62.1977 23.3265 62.702 23.1921 62.702 22.6711C62.702 22.1837 62.0969 22.1164 61.5087 21.982C60.9204 21.8643 60.3322 21.6963 60.3322 21.0408C60.3322 20.3349 60.9877 20.0156 61.6767 20.0156C62.4162 20.0156 63.0045 20.3518 63.0213 21.1417H62.5675Z" fill="#00175C"/>
<path d="M5.66068 1.44262V7.79547H7.96319C7.96319 7.79547 8.16485 7.77866 8.28251 7.74505C9.62699 7.6274 10.4842 6.01398 10.5682 4.83752C10.7026 3.57704 9.92951 1.49303 7.99681 1.44262C7.42534 1.42581 5.66068 1.44262 5.66068 1.44262ZM5.66068 8.53496V16.1483H7.74466C7.74466 16.1483 8.92116 16.2323 9.97994 15.3752C11.022 14.5349 11.5598 13.2912 11.4421 11.8626C11.3581 10.5854 10.3833 8.77025 8.19846 8.53496C7.03883 8.53496 5.66068 8.53496 5.66068 8.53496ZM10.5682 0.703125C12.2993 0.803965 13.4253 1.72832 13.5261 1.84597C14.4169 2.66949 14.6858 3.91317 14.4673 5.10643C14.1816 7.10641 11.6942 7.94673 11.6942 7.94673C13.7782 8.19883 15.3412 9.76183 15.5765 11.4425C15.7782 13.0895 15.1732 14.5517 13.8118 15.5769C12.4337 16.6021 10.4169 16.9382 9.32448 16.9382C9.32448 16.9382 0.887616 16.9382 0.41706 16.9382C0.41706 16.6693 0.41706 16.4676 0.41706 16.2323C1.55988 16.2491 1.69436 16.2491 1.69436 15.7954C1.67755 14.0811 1.69436 2.11487 1.69436 1.79555C1.69436 1.4258 1.50946 1.409 0.41706 1.409C0.400251 1.12329 0.43387 0.703125 0.43387 0.703125H10.5682Z" fill="#00175C"/>
<path d="M24.3159 1.57828C23.2067 2.31777 22.4335 4.01523 22.0638 5.42698C21.4756 7.5614 21.5932 10.0824 22.1814 12.6706C22.7865 15.2588 24.4503 16.1663 25.4419 16.3848C27.2906 16.805 28.5007 15.7294 29.1562 14.7378C30.4335 12.805 30.7528 8.82188 30.3494 6.5362C29.9797 4.41858 29.4082 2.93961 28.299 1.94803C27.0554 0.855603 25.2738 0.939634 24.3159 1.57828ZM34.2822 11.6286C33.509 13.9311 31.9628 15.3764 30.1814 16.3176C27.8452 17.5781 24.5008 17.7798 22.1646 16.3848C20.7193 15.5277 17.0387 13.242 17.526 7.84711C17.6269 6.68746 18.2151 3.77993 21.4588 1.59509C23.6772 0.149729 26.8705 -0.270433 29.8452 1.1077C34.4838 3.22532 35.4586 8.45214 34.2822 11.6286Z" fill="#00175C"/>
<path d="M47.9083 1.4592C47.9251 2.66927 47.9083 5.17344 47.9083 5.17344L47.3201 5.19024C46.9672 3.62724 46.2109 2.28272 44.9168 1.66088C43.6731 1.05584 41.7908 0.753328 40.5639 1.82894C39.8412 2.46759 39.7404 3.12304 39.9925 3.86252C40.4294 4.95495 41.6395 5.29108 42.5807 5.71124C43.3538 6.01376 45.0008 6.55157 45.0008 6.55157C46.8327 7.19022 48.8663 8.4339 49.4209 10.5011C49.673 11.3918 49.673 12.4002 49.4713 13.3078C49.0175 15.3246 47.7235 15.812 46.984 16.3162C46.6142 16.5682 43.1521 17.896 38.9841 16.5346C38.1269 16.2489 37.1353 15.9128 37.1353 15.9128V11.3918C37.1353 11.3918 37.5891 11.4086 37.774 11.4086C38.0597 12.1313 38.3118 13.0053 38.9169 13.8792C40.3286 15.9296 42.3286 16.5514 44.5302 16.0809C45.4042 15.8792 46.3621 15.2741 46.6142 14.3666C46.9336 13.3414 46.8327 11.6439 43.7403 10.5011C41.505 9.4759 38.6983 9.05574 37.3707 6.56838C36.8496 5.17344 37.0009 2.7533 38.7152 1.57684C40.4463 0.400386 42.1269 0.131484 44.1605 0.400386C46.1773 0.686098 46.7151 0.955002 47.9083 1.4592Z" fill="#00175C"/>
<path d="M62.6339 1.4592C62.6507 2.66927 62.6339 5.17344 62.6339 5.17344L62.0456 5.19024C61.6927 3.62724 60.9364 2.28272 59.6423 1.66088C58.3986 1.05584 56.5163 0.753328 55.2894 1.82894C54.5668 2.46759 54.4659 3.12304 54.718 3.86252C55.155 4.95495 56.365 5.29108 57.3062 5.71124C58.0793 6.01376 59.7263 6.55157 59.7263 6.55157C61.5582 7.19022 63.5918 8.4339 64.1464 10.5011C64.3985 11.3918 64.3985 12.4002 64.1969 13.3078C63.7431 15.3246 62.449 15.812 61.7095 16.3162C61.3398 16.5682 57.8776 17.896 53.7096 16.5346C52.8525 16.2489 51.8609 15.9128 51.8609 15.9128V11.3918C51.8609 11.3918 52.3147 11.4086 52.4995 11.4086C52.7852 12.1313 53.0374 13.0053 53.6424 13.8792C55.0541 15.9296 57.0541 16.5514 59.2558 16.0809C60.1297 15.8792 61.0877 15.2741 61.3398 14.3666C61.6591 13.3414 61.5582 11.6439 58.4658 10.5011C56.2306 9.4759 53.4239 9.05574 52.0962 6.56838C51.5752 5.17344 51.7265 2.7533 53.4575 1.57684C55.1718 0.400386 56.8524 0.131484 58.8692 0.400386C60.9028 0.686098 61.4406 0.955002 62.6339 1.4592Z" fill="#00175C"/>
</g>
<defs>
<clipPath id="clip0_413_580">
<rect width="64.4604" height="24" fill="white" transform="translate(0.146729)"/>
</clipPath>
</defs>
</svg>
