<svg width="127" height="32" viewBox="0 0 127 32" fill="none" xmlns="http://www.w3.org/2000/svg">
<path fill-rule="evenodd" clip-rule="evenodd" d="M23.5796 1.81392C28.6738 4.49311 32.1537 9.83466 32.1537 15.9918C32.1537 22.1489 28.6738 27.5073 23.5796 30.1701V28.3393C25.5278 27.1738 27.1757 25.5431 28.3749 23.6129L23.5796 21.6664V18.7042L28.8405 22.8146C29.9394 20.7843 30.5554 18.471 30.5554 15.9914C30.5554 10.766 27.758 6.17355 23.5796 3.64384V1.81392ZM16.171 0C18.8349 0 21.3485 0.649272 23.5796 1.81392V3.64468C21.5317 2.41266 19.1343 1.68086 16.6038 1.59749L18.4349 14.6941L23.5796 18.7047V21.6668L16.1373 18.6546L8.74506 21.6832V18.7375L13.923 14.6937L15.7377 1.59707C13.1736 1.68044 10.793 2.41266 8.74506 3.64384V1.81392C10.9597 0.649272 13.4902 0 16.171 0ZM23.5796 30.1701C21.3485 31.3347 18.8345 32 16.171 32C13.4906 32 10.9602 31.3347 8.74548 30.1865V28.3393C10.9101 29.6534 13.4569 30.4025 16.171 30.4025C18.8682 30.4025 21.399 29.6534 23.5796 28.3393V30.1701ZM8.74548 30.1865C3.63403 27.5073 0.154541 22.1489 0.154541 15.9918C0.154541 9.83466 3.63403 4.49311 8.74548 1.81392V3.64468C4.5498 6.17398 1.75282 10.75 1.75282 15.9918C1.75282 18.471 2.38564 20.818 3.48456 22.8479L8.74548 18.7375V21.6832L3.96708 23.6462C5.16578 25.5608 6.79732 27.1743 8.74548 28.3393V30.1865Z" fill="#00175C"/>
<path d="M95.593 16.5724H98.809V17.3164H95.593V16.5724Z" fill="#00175C"/>
<path d="M42.1117 12.0601L41.8238 19.53V19.6595C41.8238 20.2928 42.011 20.4224 43.0184 20.4943V20.8398C42.2844 20.7823 41.9965 20.7678 41.5935 20.7678C41.1906 20.7678 40.9027 20.7823 40.1543 20.8398V20.4943C41.1618 20.4224 41.3056 20.3072 41.3344 19.53L41.6368 12.4632V12.3769C41.6368 11.7146 41.4352 11.5708 40.4422 11.5132V11.1534C41.0034 11.1966 41.2193 11.2111 41.6223 11.2111C42.1549 11.2111 42.4428 11.1966 42.9896 11.139L45.6668 18.4218L48.3869 11.139C49.0347 11.1966 49.3369 11.2111 49.7687 11.2111C50.1285 11.2111 50.3588 11.1966 50.9056 11.1534V11.5132C49.927 11.5708 49.711 11.7146 49.711 12.3624V12.4632L49.8694 19.53C49.8838 20.3072 50.0133 20.4224 51.0496 20.4943V20.8398C50.1429 20.7534 49.7975 20.7246 49.2505 20.7246C48.7036 20.7246 48.3581 20.7534 47.4514 20.8398V20.4943C48.4302 20.4367 48.646 20.2784 48.646 19.602V19.53L48.5164 12.0746L46.1417 18.4937L45.969 18.9687L45.7675 19.5012L45.5804 20.0482L45.422 20.5232H45.2061L45.0479 20.0626L44.8463 19.5012L44.6448 18.9399L44.4721 18.4361L42.1117 12.0601Z" fill="#00175C"/>
<path d="M52.9195 16.707C53.0634 15.052 53.6104 14.2027 54.5316 14.2027C55.4671 14.2027 55.942 15.0087 56.0285 16.707H52.9195ZM54.7906 20.478C53.4809 20.478 52.9052 19.4704 52.8907 17.2252H57.1798C57.151 15.0087 56.2443 13.8285 54.5459 13.8285C52.8187 13.8285 51.7393 15.2247 51.7393 17.4412C51.7393 19.6576 52.8187 20.9531 54.6755 20.9531C56.0859 20.9531 57.0071 20.075 57.1943 18.5925H56.6185C56.4457 19.8159 55.8125 20.478 54.7906 20.478Z" fill="#00175C"/>
<path d="M58.0385 14.363V14.1039C58.8589 14.032 59.3482 13.9456 59.9384 13.7728C60.0103 14.3054 60.0391 14.5356 60.0679 14.9674V15.1258C60.3844 14.3054 61.0034 13.8304 61.7518 13.8304C62.4714 13.8304 63.004 14.3054 63.004 14.9962C63.004 15.4136 62.7594 15.6872 62.3995 15.6872C62.0684 15.6872 61.8096 15.4855 61.8096 15.1978C61.8096 15.169 61.8239 15.1115 61.8382 15.0538L61.867 14.9099V14.7803C61.867 14.5788 61.6942 14.4349 61.4351 14.4349C60.6868 14.4349 60.2117 15.3417 60.2117 16.7665V19.7746C60.2117 20.3935 60.3558 20.5086 61.2336 20.5518V20.8398C60.4421 20.7677 60.1398 20.7533 59.6361 20.7533C59.1179 20.7533 58.8157 20.7677 58.0242 20.8398V20.5518C58.9021 20.5086 59.0604 20.3935 59.0604 19.7746V15.2985V15.0682C59.046 14.4493 58.974 14.3773 58.2257 14.363H58.0385Z" fill="#00175C"/>
<path d="M68.506 13.6991V16.0738H68.1892C67.9302 14.8217 67.3979 14.2171 66.5196 14.2171C65.4404 14.2171 64.8069 15.383 64.8069 17.4412C64.8069 19.4562 65.3684 20.478 66.4764 20.478C67.369 20.478 67.9014 19.8447 68.0742 18.5782H68.6642C68.4771 20.1182 67.6567 20.9531 66.3614 20.9531C64.6918 20.9531 63.5548 19.5425 63.5548 17.4412C63.5548 15.2966 64.7062 13.8285 66.4046 13.8285C67.0234 13.8285 67.4121 13.9868 67.8728 14.4329L68.2613 13.6991H68.506Z" fill="#00175C"/>
<path d="M70.8712 16.707C71.0151 15.052 71.5621 14.2027 72.4832 14.2027C73.4187 14.2027 73.8937 15.0087 73.9801 16.707H70.8712ZM72.7423 20.478C71.4327 20.478 70.8567 19.4704 70.8424 17.2252H75.1315C75.1026 15.0087 74.196 13.8285 72.4977 13.8285C70.7704 13.8285 69.691 15.2247 69.691 17.4412C69.691 19.6576 70.7704 20.9531 72.6273 20.9531C74.0377 20.9531 74.9589 20.075 75.1458 18.5925H74.5702C74.3975 19.8159 73.7643 20.478 72.7423 20.478Z" fill="#00175C"/>
<path d="M79.1156 20.5654C78.0792 20.5654 77.5324 19.4861 77.5324 17.4279C77.5324 15.341 78.036 14.319 79.0723 14.319C80.1373 14.319 80.6843 15.4128 80.6843 17.5288C80.6843 19.5292 80.1518 20.5654 79.1156 20.5654ZM81.8214 19.3421V11.0327C81.1017 11.2245 80.4539 11.3397 79.6481 11.4262V11.6708C80.5548 11.6708 80.6699 11.7716 80.6699 12.5199V15.0387C80.1373 14.1752 79.72 13.916 78.9428 13.916C77.4028 13.916 76.3234 15.3697 76.3234 17.4423C76.3234 19.5149 77.4171 20.9688 78.986 20.9688C79.8063 20.9688 80.3677 20.5944 80.7706 19.7884C80.8283 20.3352 80.8283 20.3928 80.9722 20.9399C81.5623 20.7526 81.807 20.695 82.6561 20.5944L82.8719 20.5655V20.3209C81.9076 20.292 81.8214 20.2201 81.8214 19.3421Z" fill="#00175C"/>
<path d="M84.5989 16.707C84.7428 15.052 85.2897 14.2027 86.2108 14.2027C87.1464 14.2027 87.6212 15.0087 87.7077 16.707H84.5989ZM86.4701 20.478C85.1602 20.478 84.5845 19.4704 84.57 17.2252H88.8591C88.8304 15.0087 87.9235 13.8285 86.2253 13.8285C84.498 13.8285 83.4186 15.2247 83.4186 17.4412C83.4186 19.6576 84.498 20.9531 86.3547 20.9531C87.7652 20.9531 88.6864 20.075 88.8734 18.5925H88.2977C88.1251 19.8159 87.4918 20.478 86.4701 20.478Z" fill="#00175C"/>
<path d="M90.082 20.9688V18.5649L90.3986 18.5506C90.6578 19.8603 91.2622 20.4935 92.2697 20.4935C93.1189 20.4935 93.7523 19.9321 93.7523 19.1981C93.7523 18.7087 93.4787 18.3777 92.7735 18.0611L92.2262 17.8163L91.5644 17.5142C90.5137 17.0248 90.1826 16.6217 90.1826 15.7872C90.1826 14.65 91.0751 13.8729 92.3416 13.8729C92.903 13.8729 93.3204 14.0025 93.8097 14.3335L94.0544 13.7433H94.3134V15.9741H93.9822C93.8526 14.8229 93.3778 14.2759 92.4711 14.2759C91.7083 14.2759 91.1183 14.7941 91.1183 15.4705C91.1183 16.0462 91.334 16.2333 92.6438 16.8089L93.2482 17.0681C94.342 17.5429 94.7308 18.0035 94.7308 18.8528C94.7308 20.0618 93.7667 20.9254 92.4134 20.9254C91.7515 20.9254 91.2333 20.7526 90.6864 20.3209L90.3409 20.9688H90.082Z" fill="#00175C"/>
<path d="M102.733 16.0042C103.495 16.0042 103.927 16.1336 104.258 16.4647C104.589 16.7958 104.776 17.4146 104.776 18.1054C104.776 19.5447 104.057 20.3509 102.776 20.3509H102.258C101.495 20.3509 101.365 20.2355 101.365 19.6023V16.0042H102.733ZM101.365 11.6432H102.589C103.798 11.6432 104.33 12.2332 104.33 13.5718C104.33 14.2336 104.172 14.7088 103.855 15.083C103.538 15.4428 103.15 15.5579 102.344 15.5579H101.365V11.6432ZM105.611 13.543C105.611 12.7944 105.294 12.1324 104.748 11.715C104.258 11.3552 103.697 11.1968 102.761 11.1968H98.976V11.5568C100.012 11.6143 100.156 11.7295 100.156 12.5067V19.4873C100.156 20.2644 100.041 20.3651 98.976 20.4515V20.7969H102.617C103.682 20.7969 104.258 20.6674 104.862 20.2931C105.582 19.8326 106.057 18.9546 106.057 18.0479C106.057 17.2707 105.726 16.5655 105.165 16.1336C104.862 15.9034 104.546 15.7738 104.028 15.673C105.064 15.2845 105.611 14.5505 105.611 13.543Z" fill="#00175C"/>
<path d="M108.405 16.707C108.549 15.052 109.096 14.2027 110.017 14.2027C110.953 14.2027 111.428 15.0087 111.514 16.707H108.405ZM110.277 20.478C108.967 20.478 108.391 19.4704 108.377 17.2252H112.666C112.637 15.0087 111.73 13.8285 110.032 13.8285C108.305 13.8285 107.225 15.2247 107.225 17.4412C107.225 19.6576 108.305 20.9531 110.161 20.9531C111.572 20.9531 112.493 20.075 112.68 18.5925H112.105C111.932 19.8159 111.298 20.478 110.277 20.478Z" fill="#00175C"/>
<path d="M113.427 14.4205V14.1759C114.262 14.0607 114.751 13.9456 115.326 13.7441C115.399 14.075 115.442 14.4493 115.471 14.9963C115.988 14.219 116.579 13.8736 117.413 13.8736C118.277 13.8736 119.025 14.3197 119.313 15.0249C119.457 15.3704 119.529 15.7734 119.529 16.3203V19.7747C119.529 20.3935 119.673 20.5087 120.551 20.5519V20.8398C119.788 20.7678 119.5 20.7534 118.982 20.7534C118.45 20.7534 118.162 20.7678 117.413 20.8398V20.5519C118.191 20.5232 118.378 20.3791 118.378 19.8035V16.2772C118.378 15.0249 118.004 14.5213 117.083 14.5213C116.104 14.5213 115.586 15.1402 115.586 16.3203V19.8035C115.586 20.3791 115.773 20.5232 116.521 20.5519V20.8398C115.773 20.7678 115.485 20.7534 114.967 20.7534C114.463 20.7534 114.161 20.7678 113.412 20.8398V20.5519C114.29 20.5087 114.434 20.3935 114.434 19.7747V15.3273V15.1115C114.42 14.5213 114.334 14.4349 113.614 14.4349C113.571 14.4349 113.499 14.4205 113.427 14.4205Z" fill="#00175C"/>
<path d="M121.111 20.7969L125.012 14.3777H123.241C122.306 14.3777 122.075 14.5792 121.557 15.8745H121.269L121.6 14.0036H126.552L122.637 20.4228H124.321C125.3 20.4228 125.702 20.034 126.134 18.7244H126.437L126.062 20.7969H121.111Z" fill="#00175C"/>
</svg>
